<svg t="1750669015193" class="icon" viewBox="0 0 1024 1024" version="1.1" xmlns="http://www.w3.org/2000/svg" p-id="61577" width="64" height="64"><path d="M326.387953 0.752941h211.568941v54.3488H326.387953zM539.458259 56.609129h52.279717v52.279718h-52.279717z" fill="#000000" p-id="61578"></path><path d="M485.681694 56.609129h52.279718v52.279718h-52.279718zM431.894588 56.609129h52.279718v52.279718h-52.279718zM378.105976 56.609129h52.279718v52.279718h-52.279718zM324.317365 56.609129h52.279717v52.279718h-52.279717z" fill="#FD0000" p-id="61579"></path><path d="M270.528753 56.609129h52.279718v52.279718h-52.279718z" fill="#000000" p-id="61580"></path><path d="M270.528753 110.394729h52.279718v52.279718h-52.279718zM270.528753 164.178824h52.279718v52.279717h-52.279718z" fill="#FD0000" p-id="61581"></path><path d="M270.528753 217.964424h52.279718v52.279717h-52.279718z" fill="#000000" p-id="61582"></path><path d="M270.528753 271.750024h52.279718v52.279717h-52.279718z" fill="#FD0000" p-id="61583"></path><path d="M270.528753 325.538635h52.279718v52.279718h-52.279718zM270.528753 379.324235h52.279718v52.279718h-52.279718zM270.528753 433.108329h52.279718v52.279718h-52.279718z" fill="#FFFFFF" p-id="61584"></path><path d="M270.528753 486.893929h52.279718v52.279718h-52.279718zM270.528753 540.679529h52.279718v52.279718h-52.279718zM270.528753 594.465129h52.279718v52.279718h-52.279718z" fill="#FBD5B5" p-id="61585"></path><path d="M270.528753 648.252235h52.279718v52.279718h-52.279718zM216.753694 110.394729h52.279718v52.279718H216.753694zM216.753694 164.178824h52.279718v52.279717H216.753694zM216.753694 217.964424h52.279718v52.279717H216.753694z" fill="#000000" p-id="61586"></path><path d="M216.753694 271.750024h52.279718v52.279717H216.753694z" fill="#FD0000" p-id="61587"></path><path d="M216.753694 325.538635h52.279718v52.279718H216.753694z" fill="#000000" p-id="61588"></path><path d="M216.753694 379.324235h52.279718v52.279718H216.753694z" fill="#FFFFFF" p-id="61589"></path><path d="M216.753694 433.108329h52.279718v52.279718H216.753694z" fill="#000000" p-id="61590"></path><path d="M216.753694 486.893929h52.279718v52.279718H216.753694zM216.753694 540.679529h52.279718v52.279718H216.753694z" fill="#FBD5B5" p-id="61591"></path><path d="M216.753694 594.465129h52.279718v52.279718H216.753694zM216.753694 648.252235h52.279718v52.279718H216.753694zM162.965082 486.893929h52.279718v52.279718H162.965082zM162.965082 540.679529h52.279718v52.279718H162.965082zM162.965082 594.465129h52.279718v52.279718H162.965082zM162.965082 217.964424h52.279718v52.279717H162.965082z" fill="#000000" p-id="61592"></path><path d="M162.965082 271.750024h52.279718v52.279717H162.965082z" fill="#FD0000" p-id="61593"></path><path d="M162.965082 325.538635h52.279718v52.279718H162.965082zM109.176471 271.750024h52.279717v52.279717H109.176471z" fill="#000000" p-id="61594"></path><path d="M324.317365 110.394729h52.279717v52.279718h-52.279717zM324.317365 164.178824h52.279717v52.279717h-52.279717z" fill="#FD0000" p-id="61595"></path><path d="M324.317365 217.964424h52.279717v52.279717h-52.279717z" fill="#000000" p-id="61596"></path><path d="M324.317365 271.750024h52.279717v52.279717h-52.279717z" fill="#FD0000" p-id="61597"></path><path d="M324.317365 325.538635h52.279717v52.279718h-52.279717z" fill="#FFFFFF" p-id="61598"></path><path d="M324.317365 379.324235h52.279717v52.279718h-52.279717zM324.317365 433.108329h52.279717v52.279718h-52.279717z" fill="#000000" p-id="61599"></path><path d="M324.317365 486.893929h52.279717v52.279718h-52.279717zM324.317365 540.679529h52.279717v52.279718h-52.279717zM324.317365 594.465129h52.279717v52.279718h-52.279717z" fill="#FBD5B5" p-id="61600"></path><path d="M324.317365 648.252235h52.279717v52.279718h-52.279717z" fill="#000000" p-id="61601"></path><path d="M378.105976 110.394729h52.279718v52.279718h-52.279718zM378.105976 164.178824h52.279718v52.279717h-52.279718z" fill="#FD0000" p-id="61602"></path><path d="M378.105976 217.964424h52.279718v52.279717h-52.279718z" fill="#000000" p-id="61603"></path><path d="M378.105976 271.750024h52.279718v52.279717h-52.279718z" fill="#FD0000" p-id="61604"></path><path d="M378.105976 325.538635h52.279718v52.279718h-52.279718zM378.105976 379.324235h52.279718v52.279718h-52.279718zM378.105976 433.108329h52.279718v52.279718h-52.279718zM378.105976 486.893929h52.279718v52.279718h-52.279718zM378.105976 540.679529h52.279718v52.279718h-52.279718zM378.105976 594.465129h52.279718v52.279718h-52.279718z" fill="#FBD5B5" p-id="61605"></path><path d="M378.105976 648.252235h52.279718v52.279718h-52.279718z" fill="#000000" p-id="61606"></path><path d="M431.894588 110.394729h52.279718v52.279718h-52.279718zM431.894588 164.178824h52.279718v52.279717h-52.279718z" fill="#FD0000" p-id="61607"></path><path d="M431.894588 217.964424h52.279718v52.279717h-52.279718z" fill="#000000" p-id="61608"></path><path d="M431.894588 271.750024h52.279718v52.279717h-52.279718z" fill="#FD0000" p-id="61609"></path><path d="M431.894588 325.538635h52.279718v52.279718h-52.279718z" fill="#FFFFFF" p-id="61610"></path><path d="M431.894588 379.324235h52.279718v52.279718h-52.279718zM431.894588 433.108329h52.279718v52.279718h-52.279718z" fill="#000000" p-id="61611"></path><path d="M431.894588 486.893929h52.279718v52.279718h-52.279718zM431.894588 540.679529h52.279718v52.279718h-52.279718z" fill="#FBD5B5" p-id="61612"></path><path d="M431.894588 594.465129h52.279718v52.279718h-52.279718zM431.894588 648.252235h52.279718v52.279718h-52.279718z" fill="#000000" p-id="61613"></path><path d="M485.681694 110.394729h52.279718v52.279718h-52.279718zM485.681694 164.178824h52.279718v52.279717h-52.279718zM485.681694 217.964424h52.279718v52.279717h-52.279718z" fill="#FD0000" p-id="61614"></path><path d="M485.681694 271.750024h52.279718v52.279717h-52.279718z" fill="#000000" p-id="61615"></path><path d="M485.681694 325.538635h52.279718v52.279718h-52.279718zM485.681694 379.324235h52.279718v52.279718h-52.279718zM485.681694 433.108329h52.279718v52.279718h-52.279718z" fill="#FFFFFF" p-id="61616"></path><path d="M485.681694 486.893929h52.279718v52.279718h-52.279718z" fill="#FBD5B5" p-id="61617"></path><path d="M485.681694 540.679529h52.279718v52.279718h-52.279718zM485.681694 594.465129h52.279718v52.279718h-52.279718zM485.681694 648.252235h52.279718v52.279718h-52.279718z" fill="#000000" p-id="61618"></path><path d="M539.458259 110.394729h52.279717v52.279718h-52.279717zM539.458259 164.178824h52.279717v52.279717h-52.279717zM539.458259 217.964424h52.279717v52.279717h-52.279717zM539.458259 271.750024h52.279717v52.279717h-52.279717z" fill="#FD0000" p-id="61619"></path><path d="M539.458259 325.538635h52.279717v52.279718h-52.279717z" fill="#000000" p-id="61620"></path><path d="M539.458259 379.324235h52.279717v52.279718h-52.279717zM539.458259 433.108329h52.279717v52.279718h-52.279717zM539.458259 486.893929h52.279717v52.279718h-52.279717zM539.458259 540.679529h52.279717v52.279718h-52.279717z" fill="#FBD5B5" p-id="61621"></path><path d="M539.458259 594.465129h52.279717v52.279718h-52.279717z" fill="#000000" p-id="61622"></path><path d="M539.458259 648.252235h52.279717v52.279718h-52.279717z" fill="#FBD5B5" p-id="61623"></path><path d="M593.246871 110.394729h52.279717v52.279718h-52.279717zM593.246871 164.178824h52.279717v52.279717h-52.279717zM593.246871 217.964424h52.279717v52.279717h-52.279717zM593.246871 271.750024h52.279717v52.279717h-52.279717z" fill="#FD0000" p-id="61624"></path><path d="M593.246871 325.538635h52.279717v52.279718h-52.279717z" fill="#000000" p-id="61625"></path><path d="M593.246871 379.324235h52.279717v52.279718h-52.279717zM593.246871 433.108329h52.279717v52.279718h-52.279717z" fill="#FBD5B5" p-id="61626"></path><path d="M593.246871 486.893929h52.279717v52.279718h-52.279717z" fill="#000000" p-id="61627"></path><path d="M593.246871 540.679529h52.279717v52.279718h-52.279717zM593.246871 594.465129h52.279717v52.279718h-52.279717zM593.246871 648.252235h52.279717v52.279718h-52.279717z" fill="#FBD5B5" p-id="61628"></path><path d="M593.246871 56.609129h52.279717v52.279718h-52.279717zM647.035482 110.394729h52.279718v52.279718h-52.279718z" fill="#000000" p-id="61629"></path><path d="M647.035482 164.178824h52.279718v52.279717h-52.279718zM647.035482 217.964424h52.279718v52.279717h-52.279718zM647.035482 271.750024h52.279718v52.279717h-52.279718zM647.035482 325.538635h52.279718v52.279718h-52.279718z" fill="#FD0000" p-id="61630"></path><path d="M647.035482 379.324235h52.279718v52.279718h-52.279718zM647.035482 433.108329h52.279718v52.279718h-52.279718zM647.035482 486.893929h52.279718v52.279718h-52.279718zM647.035482 540.679529h52.279718v52.279718h-52.279718z" fill="#000000" p-id="61631"></path><path d="M647.035482 594.465129h52.279718v52.279718h-52.279718zM647.035482 648.252235h52.279718v52.279718h-52.279718z" fill="#FBD5B5" p-id="61632"></path><path d="M700.824094 217.964424h52.279718v52.279717h-52.279718zM700.824094 271.750024h52.279718v52.279717h-52.279718zM700.824094 325.538635h52.279718v52.279718h-52.279718z" fill="#FD0000" p-id="61633"></path><path d="M700.824094 379.324235h52.279718v52.279718h-52.279718zM700.824094 433.108329h52.279718v52.279718h-52.279718z" fill="#000000" p-id="61634"></path><path d="M700.824094 486.893929h52.279718v52.279718h-52.279718zM700.824094 540.679529h52.279718v52.279718h-52.279718zM700.824094 594.465129h52.279718v52.279718h-52.279718z" fill="#FBD5B5" p-id="61635"></path><path d="M700.824094 648.252235h52.279718v52.279718h-52.279718zM700.824094 164.178824h52.279718v52.279717h-52.279718zM754.6112 217.964424h52.279718v52.279717h-52.279718z" fill="#000000" p-id="61636"></path><path d="M754.6112 271.750024h52.279718v52.279717h-52.279718zM754.6112 325.538635h52.279718v52.279718h-52.279718zM754.6112 379.324235h52.279718v52.279718h-52.279718z" fill="#FD0000" p-id="61637"></path><path d="M754.6112 433.108329h52.279718v52.279718h-52.279718z" fill="#000000" p-id="61638"></path><path d="M754.6112 486.893929h52.279718v52.279718h-52.279718zM754.6112 540.679529h52.279718v52.279718h-52.279718z" fill="#FBD5B5" p-id="61639"></path><path d="M808.387765 217.964424h52.279717v52.279717H808.387765z" fill="#000000" p-id="61640"></path><path d="M808.387765 271.750024h52.279717v52.279717H808.387765zM808.387765 325.538635h52.279717v52.279718H808.387765zM808.387765 379.324235h52.279717v52.279718H808.387765z" fill="#FD0000" p-id="61641"></path><path d="M862.176376 271.750024h52.279718v52.279717h-52.279718zM862.176376 325.538635h52.279718v52.279718h-52.279718zM862.176376 379.324235h52.279718v52.279718h-52.279718zM808.387765 433.108329h52.279717v52.279718H808.387765zM808.387765 486.893929h52.279717v52.279718H808.387765zM808.387765 540.679529h52.279717v52.279718H808.387765zM754.6112 594.465129h52.279718v52.279718h-52.279718zM754.6112 648.252235h52.279718v52.279718h-52.279718zM700.824094 702.037835h52.279718v52.279718h-52.279718z" fill="#000000" p-id="61642"></path><path d="M700.824094 755.823435h52.279718v52.279718h-52.279718z" fill="#FD0000" p-id="61643"></path><path d="M754.6112 755.823435h52.279718v52.279718h-52.279718zM808.387765 809.609035h52.279717v52.279718H808.387765zM808.387765 863.394635h52.279717v52.279718H808.387765z" fill="#000000" p-id="61644"></path><path d="M808.387765 917.181741h52.279717v52.279718H808.387765z" fill="#FD0000" p-id="61645"></path><path d="M862.176376 917.181741h52.279718v52.279718h-52.279718zM862.176376 970.967341h52.279718V1023.247059h-52.279718z" fill="#000000" p-id="61646"></path><path d="M808.387765 970.967341h52.279717V1023.247059H808.387765zM754.6112 970.967341h52.279718V1023.247059h-52.279718zM754.6112 917.181741h52.279718v52.279718h-52.279718zM754.6112 863.394635h52.279718v52.279718h-52.279718zM754.6112 809.609035h52.279718v52.279718h-52.279718zM700.824094 970.967341h52.279718V1023.247059h-52.279718zM700.824094 917.181741h52.279718v52.279718h-52.279718zM700.824094 863.394635h52.279718v52.279718h-52.279718zM700.824094 809.609035h52.279718v52.279718h-52.279718zM647.035482 970.967341h52.279718V1023.247059h-52.279718zM647.035482 917.181741h52.279718v52.279718h-52.279718zM647.035482 863.394635h52.279718v52.279718h-52.279718zM647.035482 809.609035h52.279718v52.279718h-52.279718zM647.035482 755.823435h52.279718v52.279718h-52.279718z" fill="#FD0000" p-id="61647"></path><path d="M647.035482 702.037835h52.279718v52.279718h-52.279718z" fill="#000000" p-id="61648"></path><path d="M593.246871 970.967341h52.279717V1023.247059h-52.279717z" fill="#FFFFFF" p-id="61649"></path><path d="M593.246871 917.181741h52.279717v52.279718h-52.279717zM593.246871 863.394635h52.279717v52.279718h-52.279717zM593.246871 809.609035h52.279717v52.279718h-52.279717z" fill="#0072C1" p-id="61650"></path><path d="M593.246871 755.823435h52.279717v52.279718h-52.279717zM593.246871 702.037835h52.279717v52.279718h-52.279717z" fill="#000000" p-id="61651"></path><path d="M539.458259 970.967341h52.279717V1023.247059h-52.279717z" fill="#FFFFFF" p-id="61652"></path><path d="M539.458259 917.181741h52.279717v52.279718h-52.279717z" fill="#0072C1" p-id="61653"></path><path d="M539.458259 863.394635h52.279717v52.279718h-52.279717zM539.458259 809.609035h52.279717v52.279718h-52.279717z" fill="#FD0000" p-id="61654"></path><path d="M539.458259 755.823435h52.279717v52.279718h-52.279717z" fill="#000000" p-id="61655"></path><path d="M539.458259 702.037835h52.279717v52.279718h-52.279717z" fill="#FBD5B5" p-id="61656"></path><path d="M485.681694 970.967341h52.279718V1023.247059h-52.279718zM485.681694 917.181741h52.279718v52.279718h-52.279718z" fill="#0072C1" p-id="61657"></path><path d="M485.681694 863.394635h52.279718v52.279718h-52.279718zM485.681694 809.609035h52.279718v52.279718h-52.279718z" fill="#FD0000" p-id="61658"></path><path d="M485.681694 755.823435h52.279718v52.279718h-52.279718z" fill="#000000" p-id="61659"></path><path d="M485.681694 702.037835h52.279718v52.279718h-52.279718z" fill="#FBD5B5" p-id="61660"></path><path d="M431.894588 970.967341h52.279718V1023.247059h-52.279718zM431.894588 917.181741h52.279718v52.279718h-52.279718z" fill="#0072C1" p-id="61661"></path><path d="M431.894588 863.394635h52.279718v52.279718h-52.279718zM431.894588 809.609035h52.279718v52.279718h-52.279718z" fill="#FD0000" p-id="61662"></path><path d="M431.894588 755.823435h52.279718v52.279718h-52.279718z" fill="#000000" p-id="61663"></path><path d="M431.894588 702.037835h52.279718v52.279718h-52.279718z" fill="#FBD5B5" p-id="61664"></path><path d="M378.105976 970.967341h52.279718V1023.247059h-52.279718zM378.105976 917.181741h52.279718v52.279718h-52.279718zM378.105976 863.394635h52.279718v52.279718h-52.279718zM378.105976 809.609035h52.279718v52.279718h-52.279718z" fill="#0072C1" p-id="61665"></path><path d="M378.105976 755.823435h52.279718v52.279718h-52.279718z" fill="#000000" p-id="61666"></path><path d="M378.105976 702.037835h52.279718v52.279718h-52.279718z" fill="#FBD5B5" p-id="61667"></path><path d="M324.317365 970.967341h52.279717V1023.247059h-52.279717z" fill="#FFFFFF" p-id="61668"></path><path d="M324.317365 917.181741h52.279717v52.279718h-52.279717z" fill="#000000" p-id="61669"></path><path d="M324.317365 863.394635h52.279717v52.279718h-52.279717zM324.317365 809.609035h52.279717v52.279718h-52.279717z" fill="#FD0000" p-id="61670"></path><path d="M324.317365 755.823435h52.279717v52.279718h-52.279717z" fill="#000000" p-id="61671"></path><path d="M324.317365 702.037835h52.279717v52.279718h-52.279717z" fill="#FBD5B5" p-id="61672"></path><path d="M270.528753 702.037835h52.279718v52.279718h-52.279718z" fill="#000000" p-id="61673"></path><path d="M270.528753 970.967341h52.279718V1023.247059h-52.279718zM270.528753 917.181741h52.279718v52.279718h-52.279718z" fill="#FD0000" p-id="61674"></path><path d="M270.528753 863.394635h52.279718v52.279718h-52.279718zM270.528753 809.609035h52.279718v52.279718h-52.279718zM216.753694 970.967341h52.279718V1023.247059H216.753694zM216.753694 917.181741h52.279718v52.279718H216.753694z" fill="#000000" p-id="61675"></path></svg>