<svg t="1756782237972" class="icon" viewBox="0 0 1024 1024" version="1.1" xmlns="http://www.w3.org/2000/svg" p-id="6001" width="48" height="48"><path d="M326.387953 0.752941h211.568941v54.3488H326.387953zM539.458259 56.609129h52.279717v52.279718h-52.279717z" fill="#000000" p-id="6002"></path><path d="M485.681694 56.609129h52.279718v52.279718h-52.279718zM431.894588 56.609129h52.279718v52.279718h-52.279718zM378.105976 56.609129h52.279718v52.279718h-52.279718zM324.317365 56.609129h52.279717v52.279718h-52.279717z" fill="#FD0000" p-id="6003"></path><path d="M270.528753 56.609129h52.279718v52.279718h-52.279718z" fill="#000000" p-id="6004"></path><path d="M270.528753 110.394729h52.279718v52.279718h-52.279718zM270.528753 164.178824h52.279718v52.279717h-52.279718z" fill="#FD0000" p-id="6005"></path><path d="M270.528753 217.964424h52.279718v52.279717h-52.279718z" fill="#000000" p-id="6006"></path><path d="M270.528753 271.750024h52.279718v52.279717h-52.279718z" fill="#FD0000" p-id="6007"></path><path d="M270.528753 325.538635h52.279718v52.279718h-52.279718zM270.528753 379.324235h52.279718v52.279718h-52.279718zM270.528753 433.108329h52.279718v52.279718h-52.279718z" fill="#FFFFFF" p-id="6008"></path><path d="M270.528753 486.893929h52.279718v52.279718h-52.279718zM270.528753 540.679529h52.279718v52.279718h-52.279718zM270.528753 594.465129h52.279718v52.279718h-52.279718z" fill="#FBD5B5" p-id="6009"></path><path d="M270.528753 648.252235h52.279718v52.279718h-52.279718zM216.753694 110.394729h52.279718v52.279718H216.753694zM216.753694 164.178824h52.279718v52.279717H216.753694zM216.753694 217.964424h52.279718v52.279717H216.753694z" fill="#000000" p-id="6010"></path><path d="M216.753694 271.750024h52.279718v52.279717H216.753694z" fill="#FD0000" p-id="6011"></path><path d="M216.753694 325.538635h52.279718v52.279718H216.753694z" fill="#000000" p-id="6012"></path><path d="M216.753694 379.324235h52.279718v52.279718H216.753694z" fill="#FFFFFF" p-id="6013"></path><path d="M216.753694 433.108329h52.279718v52.279718H216.753694z" fill="#000000" p-id="6014"></path><path d="M216.753694 486.893929h52.279718v52.279718H216.753694zM216.753694 540.679529h52.279718v52.279718H216.753694z" fill="#FBD5B5" p-id="6015"></path><path d="M216.753694 594.465129h52.279718v52.279718H216.753694zM216.753694 648.252235h52.279718v52.279718H216.753694zM162.965082 486.893929h52.279718v52.279718H162.965082zM162.965082 540.679529h52.279718v52.279718H162.965082zM162.965082 594.465129h52.279718v52.279718H162.965082zM162.965082 217.964424h52.279718v52.279717H162.965082z" fill="#000000" p-id="6016"></path><path d="M162.965082 271.750024h52.279718v52.279717H162.965082z" fill="#FD0000" p-id="6017"></path><path d="M162.965082 325.538635h52.279718v52.279718H162.965082zM109.176471 271.750024h52.279717v52.279717H109.176471z" fill="#000000" p-id="6018"></path><path d="M324.317365 110.394729h52.279717v52.279718h-52.279717zM324.317365 164.178824h52.279717v52.279717h-52.279717z" fill="#FD0000" p-id="6019"></path><path d="M324.317365 217.964424h52.279717v52.279717h-52.279717z" fill="#000000" p-id="6020"></path><path d="M324.317365 271.750024h52.279717v52.279717h-52.279717z" fill="#FD0000" p-id="6021"></path><path d="M324.317365 325.538635h52.279717v52.279718h-52.279717z" fill="#FFFFFF" p-id="6022"></path><path d="M324.317365 379.324235h52.279717v52.279718h-52.279717zM324.317365 433.108329h52.279717v52.279718h-52.279717z" fill="#000000" p-id="6023"></path><path d="M324.317365 486.893929h52.279717v52.279718h-52.279717zM324.317365 540.679529h52.279717v52.279718h-52.279717zM324.317365 594.465129h52.279717v52.279718h-52.279717z" fill="#FBD5B5" p-id="6024"></path><path d="M324.317365 648.252235h52.279717v52.279718h-52.279717z" fill="#000000" p-id="6025"></path><path d="M378.105976 110.394729h52.279718v52.279718h-52.279718zM378.105976 164.178824h52.279718v52.279717h-52.279718z" fill="#FD0000" p-id="6026"></path><path d="M378.105976 217.964424h52.279718v52.279717h-52.279718z" fill="#000000" p-id="6027"></path><path d="M378.105976 271.750024h52.279718v52.279717h-52.279718z" fill="#FD0000" p-id="6028"></path><path d="M378.105976 325.538635h52.279718v52.279718h-52.279718zM378.105976 379.324235h52.279718v52.279718h-52.279718zM378.105976 433.108329h52.279718v52.279718h-52.279718zM378.105976 486.893929h52.279718v52.279718h-52.279718zM378.105976 540.679529h52.279718v52.279718h-52.279718zM378.105976 594.465129h52.279718v52.279718h-52.279718z" fill="#FBD5B5" p-id="6029"></path><path d="M378.105976 648.252235h52.279718v52.279718h-52.279718z" fill="#000000" p-id="6030"></path><path d="M431.894588 110.394729h52.279718v52.279718h-52.279718zM431.894588 164.178824h52.279718v52.279717h-52.279718z" fill="#FD0000" p-id="6031"></path><path d="M431.894588 217.964424h52.279718v52.279717h-52.279718z" fill="#000000" p-id="6032"></path><path d="M431.894588 271.750024h52.279718v52.279717h-52.279718z" fill="#FD0000" p-id="6033"></path><path d="M431.894588 325.538635h52.279718v52.279718h-52.279718z" fill="#FFFFFF" p-id="6034"></path><path d="M431.894588 379.324235h52.279718v52.279718h-52.279718zM431.894588 433.108329h52.279718v52.279718h-52.279718z" fill="#000000" p-id="6035"></path><path d="M431.894588 486.893929h52.279718v52.279718h-52.279718zM431.894588 540.679529h52.279718v52.279718h-52.279718z" fill="#FBD5B5" p-id="6036"></path><path d="M431.894588 594.465129h52.279718v52.279718h-52.279718zM431.894588 648.252235h52.279718v52.279718h-52.279718z" fill="#000000" p-id="6037"></path><path d="M485.681694 110.394729h52.279718v52.279718h-52.279718zM485.681694 164.178824h52.279718v52.279717h-52.279718zM485.681694 217.964424h52.279718v52.279717h-52.279718z" fill="#FD0000" p-id="6038"></path><path d="M485.681694 271.750024h52.279718v52.279717h-52.279718z" fill="#000000" p-id="6039"></path><path d="M485.681694 325.538635h52.279718v52.279718h-52.279718zM485.681694 379.324235h52.279718v52.279718h-52.279718zM485.681694 433.108329h52.279718v52.279718h-52.279718z" fill="#FFFFFF" p-id="6040"></path><path d="M485.681694 486.893929h52.279718v52.279718h-52.279718z" fill="#FBD5B5" p-id="6041"></path><path d="M485.681694 540.679529h52.279718v52.279718h-52.279718zM485.681694 594.465129h52.279718v52.279718h-52.279718zM485.681694 648.252235h52.279718v52.279718h-52.279718z" fill="#000000" p-id="6042"></path><path d="M539.458259 110.394729h52.279717v52.279718h-52.279717zM539.458259 164.178824h52.279717v52.279717h-52.279717zM539.458259 217.964424h52.279717v52.279717h-52.279717zM539.458259 271.750024h52.279717v52.279717h-52.279717z" fill="#FD0000" p-id="6043"></path><path d="M539.458259 325.538635h52.279717v52.279718h-52.279717z" fill="#000000" p-id="6044"></path><path d="M539.458259 379.324235h52.279717v52.279718h-52.279717zM539.458259 433.108329h52.279717v52.279718h-52.279717zM539.458259 486.893929h52.279717v52.279718h-52.279717zM539.458259 540.679529h52.279717v52.279718h-52.279717z" fill="#FBD5B5" p-id="6045"></path><path d="M539.458259 594.465129h52.279717v52.279718h-52.279717z" fill="#000000" p-id="6046"></path><path d="M539.458259 648.252235h52.279717v52.279718h-52.279717z" fill="#FBD5B5" p-id="6047"></path><path d="M593.246871 110.394729h52.279717v52.279718h-52.279717zM593.246871 164.178824h52.279717v52.279717h-52.279717zM593.246871 217.964424h52.279717v52.279717h-52.279717zM593.246871 271.750024h52.279717v52.279717h-52.279717z" fill="#FD0000" p-id="6048"></path><path d="M593.246871 325.538635h52.279717v52.279718h-52.279717z" fill="#000000" p-id="6049"></path><path d="M593.246871 379.324235h52.279717v52.279718h-52.279717zM593.246871 433.108329h52.279717v52.279718h-52.279717z" fill="#FBD5B5" p-id="6050"></path><path d="M593.246871 486.893929h52.279717v52.279718h-52.279717z" fill="#000000" p-id="6051"></path><path d="M593.246871 540.679529h52.279717v52.279718h-52.279717zM593.246871 594.465129h52.279717v52.279718h-52.279717zM593.246871 648.252235h52.279717v52.279718h-52.279717z" fill="#FBD5B5" p-id="6052"></path><path d="M593.246871 56.609129h52.279717v52.279718h-52.279717zM647.035482 110.394729h52.279718v52.279718h-52.279718z" fill="#000000" p-id="6053"></path><path d="M647.035482 164.178824h52.279718v52.279717h-52.279718zM647.035482 217.964424h52.279718v52.279717h-52.279718zM647.035482 271.750024h52.279718v52.279717h-52.279718zM647.035482 325.538635h52.279718v52.279718h-52.279718z" fill="#FD0000" p-id="6054"></path><path d="M647.035482 379.324235h52.279718v52.279718h-52.279718zM647.035482 433.108329h52.279718v52.279718h-52.279718zM647.035482 486.893929h52.279718v52.279718h-52.279718zM647.035482 540.679529h52.279718v52.279718h-52.279718z" fill="#000000" p-id="6055"></path><path d="M647.035482 594.465129h52.279718v52.279718h-52.279718zM647.035482 648.252235h52.279718v52.279718h-52.279718z" fill="#FBD5B5" p-id="6056"></path><path d="M700.824094 217.964424h52.279718v52.279717h-52.279718zM700.824094 271.750024h52.279718v52.279717h-52.279718zM700.824094 325.538635h52.279718v52.279718h-52.279718z" fill="#FD0000" p-id="6057"></path><path d="M700.824094 379.324235h52.279718v52.279718h-52.279718zM700.824094 433.108329h52.279718v52.279718h-52.279718z" fill="#000000" p-id="6058"></path><path d="M700.824094 486.893929h52.279718v52.279718h-52.279718zM700.824094 540.679529h52.279718v52.279718h-52.279718zM700.824094 594.465129h52.279718v52.279718h-52.279718z" fill="#FBD5B5" p-id="6059"></path><path d="M700.824094 648.252235h52.279718v52.279718h-52.279718zM700.824094 164.178824h52.279718v52.279717h-52.279718zM754.6112 217.964424h52.279718v52.279717h-52.279718z" fill="#000000" p-id="6060"></path><path d="M754.6112 271.750024h52.279718v52.279717h-52.279718zM754.6112 325.538635h52.279718v52.279718h-52.279718zM754.6112 379.324235h52.279718v52.279718h-52.279718z" fill="#FD0000" p-id="6061"></path><path d="M754.6112 433.108329h52.279718v52.279718h-52.279718z" fill="#000000" p-id="6062"></path><path d="M754.6112 486.893929h52.279718v52.279718h-52.279718zM754.6112 540.679529h52.279718v52.279718h-52.279718z" fill="#FBD5B5" p-id="6063"></path><path d="M808.387765 217.964424h52.279717v52.279717H808.387765z" fill="#000000" p-id="6064"></path><path d="M808.387765 271.750024h52.279717v52.279717H808.387765zM808.387765 325.538635h52.279717v52.279718H808.387765zM808.387765 379.324235h52.279717v52.279718H808.387765z" fill="#FD0000" p-id="6065"></path><path d="M862.176376 271.750024h52.279718v52.279717h-52.279718zM862.176376 325.538635h52.279718v52.279718h-52.279718zM862.176376 379.324235h52.279718v52.279718h-52.279718zM808.387765 433.108329h52.279717v52.279718H808.387765zM808.387765 486.893929h52.279717v52.279718H808.387765zM808.387765 540.679529h52.279717v52.279718H808.387765zM754.6112 594.465129h52.279718v52.279718h-52.279718zM754.6112 648.252235h52.279718v52.279718h-52.279718zM700.824094 702.037835h52.279718v52.279718h-52.279718z" fill="#000000" p-id="6066"></path><path d="M700.824094 755.823435h52.279718v52.279718h-52.279718z" fill="#FD0000" p-id="6067"></path><path d="M754.6112 755.823435h52.279718v52.279718h-52.279718zM808.387765 809.609035h52.279717v52.279718H808.387765zM808.387765 863.394635h52.279717v52.279718H808.387765z" fill="#000000" p-id="6068"></path><path d="M808.387765 917.181741h52.279717v52.279718H808.387765z" fill="#FD0000" p-id="6069"></path><path d="M862.176376 917.181741h52.279718v52.279718h-52.279718zM862.176376 970.967341h52.279718V1023.247059h-52.279718z" fill="#000000" p-id="6070"></path><path d="M808.387765 970.967341h52.279717V1023.247059H808.387765zM754.6112 970.967341h52.279718V1023.247059h-52.279718zM754.6112 917.181741h52.279718v52.279718h-52.279718zM754.6112 863.394635h52.279718v52.279718h-52.279718zM754.6112 809.609035h52.279718v52.279718h-52.279718zM700.824094 970.967341h52.279718V1023.247059h-52.279718zM700.824094 917.181741h52.279718v52.279718h-52.279718zM700.824094 863.394635h52.279718v52.279718h-52.279718zM700.824094 809.609035h52.279718v52.279718h-52.279718zM647.035482 970.967341h52.279718V1023.247059h-52.279718zM647.035482 917.181741h52.279718v52.279718h-52.279718zM647.035482 863.394635h52.279718v52.279718h-52.279718zM647.035482 809.609035h52.279718v52.279718h-52.279718zM647.035482 755.823435h52.279718v52.279718h-52.279718z" fill="#FD0000" p-id="6071"></path><path d="M647.035482 702.037835h52.279718v52.279718h-52.279718z" fill="#000000" p-id="6072"></path><path d="M593.246871 970.967341h52.279717V1023.247059h-52.279717z" fill="#FFFFFF" p-id="6073"></path><path d="M593.246871 917.181741h52.279717v52.279718h-52.279717zM593.246871 863.394635h52.279717v52.279718h-52.279717zM593.246871 809.609035h52.279717v52.279718h-52.279717z" fill="#0072C1" p-id="6074"></path><path d="M593.246871 755.823435h52.279717v52.279718h-52.279717zM593.246871 702.037835h52.279717v52.279718h-52.279717z" fill="#000000" p-id="6075"></path><path d="M539.458259 970.967341h52.279717V1023.247059h-52.279717z" fill="#FFFFFF" p-id="6076"></path><path d="M539.458259 917.181741h52.279717v52.279718h-52.279717z" fill="#0072C1" p-id="6077"></path><path d="M539.458259 863.394635h52.279717v52.279718h-52.279717zM539.458259 809.609035h52.279717v52.279718h-52.279717z" fill="#FD0000" p-id="6078"></path><path d="M539.458259 755.823435h52.279717v52.279718h-52.279717z" fill="#000000" p-id="6079"></path><path d="M539.458259 702.037835h52.279717v52.279718h-52.279717z" fill="#FBD5B5" p-id="6080"></path><path d="M485.681694 970.967341h52.279718V1023.247059h-52.279718zM485.681694 917.181741h52.279718v52.279718h-52.279718z" fill="#0072C1" p-id="6081"></path><path d="M485.681694 863.394635h52.279718v52.279718h-52.279718zM485.681694 809.609035h52.279718v52.279718h-52.279718z" fill="#FD0000" p-id="6082"></path><path d="M485.681694 755.823435h52.279718v52.279718h-52.279718z" fill="#000000" p-id="6083"></path><path d="M485.681694 702.037835h52.279718v52.279718h-52.279718z" fill="#FBD5B5" p-id="6084"></path><path d="M431.894588 970.967341h52.279718V1023.247059h-52.279718zM431.894588 917.181741h52.279718v52.279718h-52.279718z" fill="#0072C1" p-id="6085"></path><path d="M431.894588 863.394635h52.279718v52.279718h-52.279718zM431.894588 809.609035h52.279718v52.279718h-52.279718z" fill="#FD0000" p-id="6086"></path><path d="M431.894588 755.823435h52.279718v52.279718h-52.279718z" fill="#000000" p-id="6087"></path><path d="M431.894588 702.037835h52.279718v52.279718h-52.279718z" fill="#FBD5B5" p-id="6088"></path><path d="M378.105976 970.967341h52.279718V1023.247059h-52.279718zM378.105976 917.181741h52.279718v52.279718h-52.279718zM378.105976 863.394635h52.279718v52.279718h-52.279718zM378.105976 809.609035h52.279718v52.279718h-52.279718z" fill="#0072C1" p-id="6089"></path><path d="M378.105976 755.823435h52.279718v52.279718h-52.279718z" fill="#000000" p-id="6090"></path><path d="M378.105976 702.037835h52.279718v52.279718h-52.279718z" fill="#FBD5B5" p-id="6091"></path><path d="M324.317365 970.967341h52.279717V1023.247059h-52.279717z" fill="#FFFFFF" p-id="6092"></path><path d="M324.317365 917.181741h52.279717v52.279718h-52.279717z" fill="#000000" p-id="6093"></path><path d="M324.317365 863.394635h52.279717v52.279718h-52.279717zM324.317365 809.609035h52.279717v52.279718h-52.279717z" fill="#FD0000" p-id="6094"></path><path d="M324.317365 755.823435h52.279717v52.279718h-52.279717z" fill="#000000" p-id="6095"></path><path d="M324.317365 702.037835h52.279717v52.279718h-52.279717z" fill="#FBD5B5" p-id="6096"></path><path d="M270.528753 702.037835h52.279718v52.279718h-52.279718z" fill="#000000" p-id="6097"></path><path d="M270.528753 970.967341h52.279718V1023.247059h-52.279718zM270.528753 917.181741h52.279718v52.279718h-52.279718z" fill="#FD0000" p-id="6098"></path><path d="M270.528753 863.394635h52.279718v52.279718h-52.279718zM270.528753 809.609035h52.279718v52.279718h-52.279718zM216.753694 970.967341h52.279718V1023.247059H216.753694zM216.753694 917.181741h52.279718v52.279718H216.753694z" fill="#000000" p-id="6099"></path></svg>
