<?xml version="1.0" standalone="no"?><!DOCTYPE svg PUBLIC "-//W3C//DTD SVG 1.1//EN" "http://www.w3.org/Graphics/SVG/1.1/DTD/svg11.dtd"><svg t="1750667818988" class="icon" viewBox="0 0 1024 1024" version="1.1" xmlns="http://www.w3.org/2000/svg" p-id="16638" xmlns:xlink="http://www.w3.org/1999/xlink" width="64" height="64"><path d="M926.464 633.9072h48.7936v48.7424h-48.7936zM926.464 585.1648h48.7936v48.7424h-48.7936zM926.464 536.3712h48.7936v48.7936h-48.7936zM877.7216 682.6496h48.7424v48.7936h-48.7424z" fill="#012777" p-id="16639"></path><path d="M877.7216 633.9072h48.7424v48.7424h-48.7424zM877.7216 585.1648h48.7424v48.7424h-48.7424zM877.7216 536.3712h48.7424v48.7936h-48.7424z" fill="#DEE6FC" p-id="16640"></path><path d="M877.7216 487.6288h48.7424v48.7424h-48.7424zM828.928 731.4432h48.7936v48.7424h-48.7936z" fill="#012777" p-id="16641"></path><path d="M828.928 682.6496h48.7936v48.7936h-48.7936z" fill="#DEE6FC" p-id="16642"></path><path d="M828.928 633.9072h48.7936v48.7424h-48.7936zM828.928 585.1648h48.7936v48.7424h-48.7936zM828.928 536.3712h48.7936v48.7936h-48.7936z" fill="#DD75A1" p-id="16643"></path><path d="M828.928 487.6288h48.7936v48.7424h-48.7936z" fill="#DEE6FC" p-id="16644"></path><path d="M828.928 438.8352h48.7936v48.7936h-48.7936zM780.1856 877.7216h48.7424v48.7424h-48.7424zM780.1856 731.4432h48.7424v48.7424h-48.7424z" fill="#012777" p-id="16645"></path><path d="M780.1856 682.6496h48.7424v48.7936h-48.7424z" fill="#DEE6FC" p-id="16646"></path><path d="M780.1856 633.9072h48.7424v48.7424h-48.7424z" fill="#DD75A1" p-id="16647"></path><path d="M780.1856 585.1648h48.7424v48.7424h-48.7424z" fill="#375AA4" p-id="16648"></path><path d="M780.1856 536.3712h48.7424v48.7936h-48.7424z" fill="#DD75A1" p-id="16649"></path><path d="M780.1856 487.6288h48.7424v48.7424h-48.7424z" fill="#DEE6FC" p-id="16650"></path><path d="M780.1856 438.8352h48.7424v48.7936h-48.7424zM780.1856 390.0928h48.7424v48.7424h-48.7424zM731.4432 926.464h48.7424v48.7936h-48.7424z" fill="#012777" p-id="16651"></path><path d="M731.4432 877.7216h48.7424v48.7424h-48.7424z" fill="#A2D8EA" p-id="16652"></path><path d="M731.4432 828.928h48.7424v48.7936h-48.7424zM731.4432 731.4432h48.7424v48.7424h-48.7424z" fill="#012777" p-id="16653"></path><path d="M731.4432 682.6496h48.7424v48.7936h-48.7424z" fill="#DEE6FC" p-id="16654"></path><path d="M731.4432 633.9072h48.7424v48.7424h-48.7424zM731.4432 585.1648h48.7424v48.7424h-48.7424z" fill="#375AA4" p-id="16655"></path><path d="M731.4432 536.3712h48.7424v48.7936h-48.7424z" fill="#A2D8EA" p-id="16656"></path><path d="M731.4432 487.6288h48.7424v48.7424h-48.7424z" fill="#DEE6FC" p-id="16657"></path><path d="M731.4432 438.8352h48.7424v48.7936h-48.7424z" fill="#012777" p-id="16658"></path><path d="M731.4432 390.0928h48.7424v48.7424h-48.7424z" fill="#DEE6FC" p-id="16659"></path><path d="M731.4432 341.3504h48.7424v48.7424h-48.7424zM682.6496 877.7216h48.7936v48.7424h-48.7936zM682.6496 780.1856h48.7936v48.7424h-48.7936z" fill="#012777" p-id="16660"></path><path d="M682.6496 731.4432h48.7936v48.7424h-48.7936z" fill="#012777" p-id="16661"></path><path d="M682.6496 682.6496h48.7936v48.7936h-48.7936z" fill="#DEE6FC" p-id="16662"></path><path d="M682.6496 633.9072h48.7936v48.7424h-48.7936z" fill="#DD75A1" p-id="16663"></path><path d="M682.6496 585.1648h48.7936v48.7424h-48.7936z" fill="#A2D8EA" p-id="16664"></path><path d="M682.6496 536.3712h48.7936v48.7936h-48.7936z" fill="#DD75A1" p-id="16665"></path><path d="M682.6496 487.6288h48.7936v48.7424h-48.7936z" fill="#DEE6FC" p-id="16666"></path><path d="M682.6496 438.8352h48.7936v48.7936h-48.7936z" fill="#012777" p-id="16667"></path><path d="M682.6496 390.0928h48.7936v48.7424h-48.7936z" fill="#DD75A1" p-id="16668"></path><path d="M682.6496 341.3504h48.7936v48.7424h-48.7936z" fill="#DEE6FC" p-id="16669"></path><path d="M682.6496 292.5568h48.7936v48.7936h-48.7936zM633.9072 731.4432h48.7424v48.7424h-48.7424z" fill="#012777" p-id="16670"></path><path d="M633.9072 682.6496h48.7424v48.7936h-48.7424z" fill="#DEE6FC" p-id="16671"></path><path d="M633.9072 633.9072h48.7424v48.7424h-48.7424zM633.9072 585.1648h48.7424v48.7424h-48.7424zM633.9072 536.3712h48.7424v48.7936h-48.7424z" fill="#DD75A1" p-id="16672"></path><path d="M633.9072 487.6288h48.7424v48.7424h-48.7424z" fill="#DEE6FC" p-id="16673"></path><path d="M633.9072 438.8352h48.7424v48.7936h-48.7424z" fill="#012777" p-id="16674"></path><path d="M633.9072 390.0928h48.7424v48.7424h-48.7424z" fill="#DD75A1" p-id="16675"></path><path d="M633.9072 341.3504h48.7424v48.7424h-48.7424z" fill="#DEE6FC" p-id="16676"></path><path d="M633.9072 292.5568h48.7424v48.7936h-48.7424zM585.1648 731.4432h48.7424v48.7424h-48.7424z" fill="#012777" p-id="16677"></path><path d="M585.1648 682.6496h48.7424v48.7936h-48.7424z" fill="#DEE6FC" p-id="16678"></path><path d="M585.1648 633.9072h48.7424v48.7424h-48.7424zM585.1648 585.1648h48.7424v48.7424h-48.7424zM585.1648 536.3712h48.7424v48.7936h-48.7424z" fill="#DD75A1" p-id="16679"></path><path d="M585.1648 487.6288h48.7424v48.7424h-48.7424z" fill="#DEE6FC" p-id="16680"></path><path d="M585.1648 438.8352h48.7424v48.7936h-48.7424z" fill="#012777" p-id="16681"></path><path d="M585.1648 390.0928h48.7424v48.7424h-48.7424zM585.1648 341.3504h48.7424v48.7424h-48.7424z" fill="#DD75A1" p-id="16682"></path><path d="M585.1648 292.5568h48.7424v48.7936h-48.7424z" fill="#DEE6FC" p-id="16683"></path><path d="M585.1648 243.8144h48.7424v48.7424h-48.7424zM536.3712 877.7216h48.7936v48.7424h-48.7936zM536.3712 731.4432h48.7936v48.7424h-48.7936z" fill="#012777" p-id="16684"></path><path d="M536.3712 682.6496h48.7936v48.7936h-48.7936z" fill="#DEE6FC" p-id="16685"></path><path d="M536.3712 633.9072h48.7936v48.7424h-48.7936z" fill="#DD75A1" p-id="16686"></path><path d="M536.3712 585.1648h48.7936v48.7424h-48.7936z" fill="#375AA4" p-id="16687"></path><path d="M536.3712 536.3712h48.7936v48.7936h-48.7936z" fill="#DD75A1" p-id="16688"></path><path d="M536.3712 487.6288h48.7936v48.7424h-48.7936z" fill="#DEE6FC" p-id="16689"></path><path d="M536.3712 438.8352h48.7936v48.7936h-48.7936z" fill="#012777" p-id="16690"></path><path d="M536.3712 390.0928h48.7936v48.7424h-48.7936zM536.3712 341.3504h48.7936v48.7424h-48.7936z" fill="#DD75A1" p-id="16691"></path><path d="M536.3712 292.5568h48.7936v48.7936h-48.7936z" fill="#DEE6FC" p-id="16692"></path><path d="M536.3712 243.8144h48.7936v48.7424h-48.7936zM536.3712 97.536h48.7936v48.7424h-48.7936zM487.6288 926.464h48.7424v48.7936h-48.7424z" fill="#012777" p-id="16693"></path><path d="M487.6288 877.7216h48.7424v48.7424h-48.7424z" fill="#A2D8EA" p-id="16694"></path><path d="M487.6288 828.928h48.7424v48.7936h-48.7424zM487.6288 780.1856h48.7424v48.7424h-48.7424z" fill="#012777" p-id="16695"></path><path d="M487.6288 731.4432h48.7424v48.7424h-48.7424z" fill="#012777" p-id="16696"></path><path d="M487.6288 682.6496h48.7424v48.7936h-48.7424z" fill="#DEE6FC" p-id="16697"></path><path d="M487.6288 633.9072h48.7424v48.7424h-48.7424zM487.6288 585.1648h48.7424v48.7424h-48.7424z" fill="#375AA4" p-id="16698"></path><path d="M487.6288 536.3712h48.7424v48.7936h-48.7424z" fill="#A2D8EA" p-id="16699"></path><path d="M487.6288 487.6288h48.7424v48.7424h-48.7424z" fill="#DEE6FC" p-id="16700"></path><path d="M487.6288 438.8352h48.7424v48.7936h-48.7424z" fill="#012777" p-id="16701"></path><path d="M487.6288 390.0928h48.7424v48.7424h-48.7424zM487.6288 341.3504h48.7424v48.7424h-48.7424zM487.6288 292.5568h48.7424v48.7936h-48.7424z" fill="#DD75A1" p-id="16702"></path><path d="M487.6288 243.8144h48.7424v48.7424h-48.7424z" fill="#DEE6FC" p-id="16703"></path><path d="M487.6288 195.072h48.7424v48.7424h-48.7424zM487.6288 146.2784h48.7424v48.7936h-48.7424z" fill="#012777" p-id="16704"></path><path d="M487.6288 97.536h48.7424v48.7424h-48.7424z" fill="#A2D8EA" p-id="16705"></path><path d="M487.6288 48.7424h48.7424v48.7936h-48.7424zM438.8352 877.7216h48.7936v48.7424h-48.7936zM438.8352 731.4432h48.7936v48.7424h-48.7936z" fill="#012777" p-id="16706"></path><path d="M438.8352 682.6496h48.7936v48.7936h-48.7936z" fill="#DEE6FC" p-id="16707"></path><path d="M438.8352 633.9072h48.7936v48.7424h-48.7936z" fill="#DD75A1" p-id="16708"></path><path d="M438.8352 585.1648h48.7936v48.7424h-48.7936z" fill="#A2D8EA" p-id="16709"></path><path d="M438.8352 536.3712h48.7936v48.7936h-48.7936z" fill="#DD75A1" p-id="16710"></path><path d="M438.8352 487.6288h48.7936v48.7424h-48.7936z" fill="#DEE6FC" p-id="16711"></path><path d="M438.8352 438.8352h48.7936v48.7936h-48.7936z" fill="#012777" p-id="16712"></path><path d="M438.8352 390.0928h48.7936v48.7424h-48.7936zM438.8352 341.3504h48.7936v48.7424h-48.7936z" fill="#DD75A1" p-id="16713"></path><path d="M438.8352 292.5568h48.7936v48.7936h-48.7936z" fill="#DEE6FC" p-id="16714"></path><path d="M438.8352 243.8144h48.7936v48.7424h-48.7936zM438.8352 97.536h48.7936v48.7424h-48.7936zM390.0928 731.4432h48.7424v48.7424h-48.7424z" fill="#012777" p-id="16715"></path><path d="M390.0928 682.6496h48.7424v48.7936h-48.7424z" fill="#DEE6FC" p-id="16716"></path><path d="M390.0928 633.9072h48.7424v48.7424h-48.7424zM390.0928 585.1648h48.7424v48.7424h-48.7424zM390.0928 536.3712h48.7424v48.7936h-48.7424z" fill="#DD75A1" p-id="16717"></path><path d="M390.0928 487.6288h48.7424v48.7424h-48.7424z" fill="#DEE6FC" p-id="16718"></path><path d="M390.0928 438.8352h48.7424v48.7936h-48.7424z" fill="#012777" p-id="16719"></path><path d="M390.0928 390.0928h48.7424v48.7424h-48.7424zM390.0928 341.3504h48.7424v48.7424h-48.7424z" fill="#DD75A1" p-id="16720"></path><path d="M390.0928 292.5568h48.7424v48.7936h-48.7424z" fill="#DEE6FC" p-id="16721"></path><path d="M390.0928 243.8144h48.7424v48.7424h-48.7424zM341.3504 731.4432h48.7424v48.7424h-48.7424z" fill="#012777" p-id="16722"></path><path d="M341.3504 682.6496h48.7424v48.7936h-48.7424z" fill="#DEE6FC" p-id="16723"></path><path d="M341.3504 633.9072h48.7424v48.7424h-48.7424zM341.3504 585.1648h48.7424v48.7424h-48.7424zM341.3504 536.3712h48.7424v48.7936h-48.7424z" fill="#DD75A1" p-id="16724"></path><path d="M341.3504 487.6288h48.7424v48.7424h-48.7424z" fill="#DEE6FC" p-id="16725"></path><path d="M341.3504 438.8352h48.7424v48.7936h-48.7424z" fill="#012777" p-id="16726"></path><path d="M341.3504 390.0928h48.7424v48.7424h-48.7424z" fill="#DD75A1" p-id="16727"></path><path d="M341.3504 341.3504h48.7424v48.7424h-48.7424z" fill="#DEE6FC" p-id="16728"></path><path d="M341.3504 292.5568h48.7424v48.7936h-48.7424zM292.5568 877.7216h48.7936v48.7424h-48.7936zM292.5568 780.1856h48.7936v48.7424h-48.7936z" fill="#012777" p-id="16729"></path><path d="M292.5568 731.4432h48.7936v48.7424h-48.7936z" fill="#012777" p-id="16730"></path><path d="M292.5568 682.6496h48.7936v48.7936h-48.7936z" fill="#DEE6FC" p-id="16731"></path><path d="M292.5568 633.9072h48.7936v48.7424h-48.7936z" fill="#DD75A1" p-id="16732"></path><path d="M292.5568 585.1648h48.7936v48.7424h-48.7936z" fill="#375AA4" p-id="16733"></path><path d="M292.5568 536.3712h48.7936v48.7936h-48.7936z" fill="#DD75A1" p-id="16734"></path><path d="M292.5568 487.6288h48.7936v48.7424h-48.7936z" fill="#DEE6FC" p-id="16735"></path><path d="M292.5568 438.8352h48.7936v48.7936h-48.7936z" fill="#012777" p-id="16736"></path><path d="M292.5568 390.0928h48.7936v48.7424h-48.7936z" fill="#DD75A1" p-id="16737"></path><path d="M292.5568 341.3504h48.7936v48.7424h-48.7936z" fill="#DEE6FC" p-id="16738"></path><path d="M292.5568 292.5568h48.7936v48.7936h-48.7936zM243.8144 926.464h48.7424v48.7936h-48.7424z" fill="#012777" p-id="16739"></path><path d="M243.8144 877.7216h48.7424v48.7424h-48.7424z" fill="#A2D8EA" p-id="16740"></path><path d="M243.8144 828.928h48.7424v48.7936h-48.7424zM243.8144 731.4432h48.7424v48.7424h-48.7424z" fill="#012777" p-id="16741"></path><path d="M243.8144 682.6496h48.7424v48.7936h-48.7424z" fill="#DEE6FC" p-id="16742"></path><path d="M243.8144 633.9072h48.7424v48.7424h-48.7424zM243.8144 585.1648h48.7424v48.7424h-48.7424z" fill="#375AA4" p-id="16743"></path><path d="M243.8144 536.3712h48.7424v48.7936h-48.7424z" fill="#A2D8EA" p-id="16744"></path><path d="M243.8144 487.6288h48.7424v48.7424h-48.7424z" fill="#DEE6FC" p-id="16745"></path><path d="M243.8144 438.8352h48.7424v48.7936h-48.7424z" fill="#012777" p-id="16746"></path><path d="M243.8144 390.0928h48.7424v48.7424h-48.7424z" fill="#DEE6FC" p-id="16747"></path><path d="M243.8144 341.3504h48.7424v48.7424h-48.7424zM195.072 877.7216h48.7424v48.7424H195.072zM195.072 731.4432h48.7424v48.7424H195.072z" fill="#012777" p-id="16748"></path><path d="M195.072 682.6496h48.7424v48.7936H195.072z" fill="#DEE6FC" p-id="16749"></path><path d="M195.072 633.9072h48.7424v48.7424H195.072z" fill="#DD75A1" p-id="16750"></path><path d="M195.072 585.1648h48.7424v48.7424H195.072z" fill="#A2D8EA" p-id="16751"></path><path d="M195.072 536.3712h48.7424v48.7936H195.072z" fill="#DD75A1" p-id="16752"></path><path d="M195.072 487.6288h48.7424v48.7424H195.072z" fill="#DEE6FC" p-id="16753"></path><path d="M195.072 438.8352h48.7424v48.7936H195.072zM195.072 390.0928h48.7424v48.7424H195.072zM146.2784 731.4432h48.7936v48.7424h-48.7936z" fill="#012777" p-id="16754"></path><path d="M146.2784 682.6496h48.7936v48.7936h-48.7936z" fill="#DEE6FC" p-id="16755"></path><path d="M146.2784 633.9072h48.7936v48.7424h-48.7936zM146.2784 585.1648h48.7936v48.7424h-48.7936zM146.2784 536.3712h48.7936v48.7936h-48.7936z" fill="#DD75A1" p-id="16756"></path><path d="M146.2784 487.6288h48.7936v48.7424h-48.7936z" fill="#DEE6FC" p-id="16757"></path><path d="M146.2784 438.8352h48.7936v48.7936h-48.7936zM97.536 682.6496h48.7424v48.7936h-48.7424z" fill="#012777" p-id="16758"></path><path d="M97.536 633.9072h48.7424v48.7424h-48.7424zM97.536 585.1648h48.7424v48.7424h-48.7424zM97.536 536.3712h48.7424v48.7936h-48.7424z" fill="#DEE6FC" p-id="16759"></path><path d="M97.536 487.6288h48.7424v48.7424h-48.7424zM48.7424 633.9072h48.7936v48.7424H48.7424zM48.7424 585.1648h48.7936v48.7424H48.7424zM48.7424 536.3712h48.7936v48.7936H48.7424z" fill="#012777" p-id="16760"></path></svg>