<?xml version="1.0" standalone="no"?><!DOCTYPE svg PUBLIC "-//W3C//DTD SVG 1.1//EN" "http://www.w3.org/Graphics/SVG/1.1/DTD/svg11.dtd"><svg t="1750667612092" class="icon" viewBox="0 0 1024 1024" version="1.1" xmlns="http://www.w3.org/2000/svg" p-id="4422" xmlns:xlink="http://www.w3.org/1999/xlink" width="64" height="64"><path d="M926.464 828.928h48.7936v48.7936h-48.7936zM926.464 780.1856h48.7936v48.7424h-48.7936z" fill="#012777" p-id="4423"></path><path d="M926.464 731.4432h48.7936v48.7424h-48.7936zM926.464 682.6496h48.7936v48.7936h-48.7936zM926.464 633.9072h48.7936v48.7424h-48.7936zM926.464 585.1648h48.7936v48.7424h-48.7936zM926.464 536.3712h48.7936v48.7936h-48.7936zM926.464 487.6288h48.7936v48.7424h-48.7936zM926.464 438.8352h48.7936v48.7936h-48.7936zM926.464 390.0928h48.7936v48.7424h-48.7936zM877.7216 877.7216h48.7424v48.7424h-48.7424z" fill="#012777" p-id="4424"></path><path d="M877.7216 828.928h48.7424v48.7936h-48.7424zM877.7216 780.1856h48.7424v48.7424h-48.7424z" fill="#DEE6FC" p-id="4425"></path><path d="M877.7216 731.4432h48.7424v48.7424h-48.7424zM877.7216 682.6496h48.7424v48.7936h-48.7424zM877.7216 633.9072h48.7424v48.7424h-48.7424zM877.7216 585.1648h48.7424v48.7424h-48.7424zM877.7216 536.3712h48.7424v48.7936h-48.7424zM877.7216 487.6288h48.7424v48.7424h-48.7424zM877.7216 438.8352h48.7424v48.7936h-48.7424zM877.7216 390.0928h48.7424v48.7424h-48.7424z" fill="#DEE6FC" p-id="4426"></path><path d="M877.7216 341.3504h48.7424v48.7424h-48.7424zM828.928 926.464h48.7936v48.7936h-48.7936z" fill="#012777" p-id="4427"></path><path d="M828.928 877.7216h48.7936v48.7424h-48.7936z" fill="#DEE6FC" p-id="4428"></path><path d="M828.928 828.928h48.7936v48.7936h-48.7936zM828.928 780.1856h48.7936v48.7424h-48.7936z" fill="#DD75A1" p-id="4429"></path><path d="M828.928 731.4432h48.7936v48.7424h-48.7936zM828.928 682.6496h48.7936v48.7936h-48.7936zM828.928 633.9072h48.7936v48.7424h-48.7936zM828.928 585.1648h48.7936v48.7424h-48.7936zM828.928 536.3712h48.7936v48.7936h-48.7936zM828.928 487.6288h48.7936v48.7424h-48.7936z" fill="#DD75A1" p-id="4430"></path><path d="M828.928 438.8352h48.7936v48.7936h-48.7936z" fill="#DEE6FC" p-id="4431"></path><path d="M828.928 390.0928h48.7936v48.7424h-48.7936z" fill="#012777" p-id="4432"></path><path d="M828.928 341.3504h48.7936v48.7424h-48.7936z" fill="#A2D8EA" p-id="4433"></path><path d="M828.928 292.5568h48.7936v48.7936h-48.7936zM780.1856 926.464h48.7424v48.7936h-48.7424z" fill="#012777" p-id="4434"></path><path d="M780.1856 877.7216h48.7424v48.7424h-48.7424z" fill="#DEE6FC" p-id="4435"></path><path d="M780.1856 828.928h48.7424v48.7936h-48.7424zM780.1856 780.1856h48.7424v48.7424h-48.7424z" fill="#DD75A1" p-id="4436"></path><path d="M780.1856 731.4432h48.7424v48.7424h-48.7424zM780.1856 682.6496h48.7424v48.7936h-48.7424zM780.1856 633.9072h48.7424v48.7424h-48.7424zM780.1856 585.1648h48.7424v48.7424h-48.7424zM780.1856 536.3712h48.7424v48.7936h-48.7424zM780.1856 487.6288h48.7424v48.7424h-48.7424z" fill="#DD75A1" p-id="4437"></path><path d="M780.1856 438.8352h48.7424v48.7936h-48.7424z" fill="#DEE6FC" p-id="4438"></path><path d="M780.1856 390.0928h48.7424v48.7424h-48.7424z" fill="#012777" p-id="4439"></path><path d="M780.1856 341.3504h48.7424v48.7424h-48.7424z" fill="#375AA4" p-id="4440"></path><path d="M780.1856 292.5568h48.7424v48.7936h-48.7424z" fill="#A2D8EA" p-id="4441"></path><path d="M780.1856 243.8144h48.7424v48.7424h-48.7424zM731.4432 926.464h48.7424v48.7936h-48.7424z" fill="#012777" p-id="4442"></path><path d="M731.4432 877.7216h48.7424v48.7424h-48.7424z" fill="#DEE6FC" p-id="4443"></path><path d="M731.4432 828.928h48.7424v48.7936h-48.7424zM731.4432 780.1856h48.7424v48.7424h-48.7424z" fill="#DD75A1" p-id="4444"></path><path d="M731.4432 731.4432h48.7424v48.7424h-48.7424zM731.4432 682.6496h48.7424v48.7936h-48.7424zM731.4432 633.9072h48.7424v48.7424h-48.7424zM731.4432 585.1648h48.7424v48.7424h-48.7424zM731.4432 536.3712h48.7424v48.7936h-48.7424z" fill="#DD75A1" p-id="4445"></path><path d="M731.4432 487.6288h48.7424v48.7424h-48.7424z" fill="#DEE6FC" p-id="4446"></path><path d="M731.4432 438.8352h48.7424v48.7936h-48.7424z" fill="#012777" p-id="4447"></path><path d="M731.4432 390.0928h48.7424v48.7424h-48.7424z" fill="#DEE6FC" p-id="4448"></path><path d="M731.4432 341.3504h48.7424v48.7424h-48.7424z" fill="#012777" p-id="4449"></path><path d="M731.4432 292.5568h48.7424v48.7936h-48.7424z" fill="#375AA4" p-id="4450"></path><path d="M731.4432 243.8144h48.7424v48.7424h-48.7424z" fill="#A2D8EA" p-id="4451"></path><path d="M731.4432 195.072h48.7424v48.7424h-48.7424zM682.6496 926.464h48.7936v48.7936h-48.7936z" fill="#012777" p-id="4452"></path><path d="M682.6496 877.7216h48.7936v48.7424h-48.7936z" fill="#DEE6FC" p-id="4453"></path><path d="M682.6496 828.928h48.7936v48.7936h-48.7936zM682.6496 780.1856h48.7936v48.7424h-48.7936z" fill="#DD75A1" p-id="4454"></path><path d="M682.6496 731.4432h48.7936v48.7424h-48.7936zM682.6496 682.6496h48.7936v48.7936h-48.7936zM682.6496 633.9072h48.7936v48.7424h-48.7936zM682.6496 585.1648h48.7936v48.7424h-48.7936zM682.6496 536.3712h48.7936v48.7936h-48.7936z" fill="#DD75A1" p-id="4455"></path><path d="M682.6496 487.6288h48.7936v48.7424h-48.7936z" fill="#DEE6FC" p-id="4456"></path><path d="M682.6496 438.8352h48.7936v48.7936h-48.7936z" fill="#012777" p-id="4457"></path><path d="M682.6496 390.0928h48.7936v48.7424h-48.7936z" fill="#DD75A1" p-id="4458"></path><path d="M682.6496 341.3504h48.7936v48.7424h-48.7936z" fill="#DEE6FC" p-id="4459"></path><path d="M682.6496 292.5568h48.7936v48.7936h-48.7936z" fill="#012777" p-id="4460"></path><path d="M682.6496 243.8144h48.7936v48.7424h-48.7936z" fill="#375AA4" p-id="4461"></path><path d="M682.6496 195.072h48.7936v48.7424h-48.7936z" fill="#A2D8EA" p-id="4462"></path><path d="M682.6496 146.2784h48.7936v48.7936h-48.7936zM633.9072 926.464h48.7424v48.7936h-48.7424z" fill="#012777" p-id="4463"></path><path d="M633.9072 877.7216h48.7424v48.7424h-48.7424z" fill="#DEE6FC" p-id="4464"></path><path d="M633.9072 828.928h48.7424v48.7936h-48.7424zM633.9072 780.1856h48.7424v48.7424h-48.7424z" fill="#DD75A1" p-id="4465"></path><path d="M633.9072 731.4432h48.7424v48.7424h-48.7424zM633.9072 682.6496h48.7424v48.7936h-48.7424zM633.9072 633.9072h48.7424v48.7424h-48.7424zM633.9072 585.1648h48.7424v48.7424h-48.7424z" fill="#DD75A1" p-id="4466"></path><path d="M633.9072 536.3712h48.7424v48.7936h-48.7424z" fill="#DEE6FC" p-id="4467"></path><path d="M633.9072 487.6288h48.7424v48.7424h-48.7424z" fill="#012777" p-id="4468"></path><path d="M633.9072 438.8352h48.7424v48.7936h-48.7424zM633.9072 390.0928h48.7424v48.7424h-48.7424zM633.9072 341.3504h48.7424v48.7424h-48.7424z" fill="#DD75A1" p-id="4469"></path><path d="M633.9072 292.5568h48.7424v48.7936h-48.7424z" fill="#DEE6FC" p-id="4470"></path><path d="M633.9072 243.8144h48.7424v48.7424h-48.7424z" fill="#012777" p-id="4471"></path><path d="M633.9072 195.072h48.7424v48.7424h-48.7424z" fill="#375AA4" p-id="4472"></path><path d="M633.9072 146.2784h48.7424v48.7936h-48.7424z" fill="#A2D8EA" p-id="4473"></path><path d="M633.9072 97.536h48.7424v48.7424h-48.7424zM585.1648 926.464h48.7424v48.7936h-48.7424z" fill="#012777" p-id="4474"></path><path d="M585.1648 877.7216h48.7424v48.7424h-48.7424z" fill="#DEE6FC" p-id="4475"></path><path d="M585.1648 828.928h48.7424v48.7936h-48.7424zM585.1648 780.1856h48.7424v48.7424h-48.7424z" fill="#DD75A1" p-id="4476"></path><path d="M585.1648 731.4432h48.7424v48.7424h-48.7424zM585.1648 682.6496h48.7424v48.7936h-48.7424zM585.1648 633.9072h48.7424v48.7424h-48.7424zM585.1648 585.1648h48.7424v48.7424h-48.7424z" fill="#DD75A1" p-id="4477"></path><path d="M585.1648 536.3712h48.7424v48.7936h-48.7424z" fill="#DEE6FC" p-id="4478"></path><path d="M585.1648 487.6288h48.7424v48.7424h-48.7424z" fill="#012777" p-id="4479"></path><path d="M585.1648 438.8352h48.7424v48.7936h-48.7424zM585.1648 390.0928h48.7424v48.7424h-48.7424zM585.1648 341.3504h48.7424v48.7424h-48.7424z" fill="#DD75A1" p-id="4480"></path><path d="M585.1648 292.5568h48.7424v48.7936h-48.7424z" fill="#DEE6FC" p-id="4481"></path><path d="M585.1648 243.8144h48.7424v48.7424h-48.7424z" fill="#012777" p-id="4482"></path><path d="M585.1648 195.072h48.7424v48.7424h-48.7424z" fill="#375AA4" p-id="4483"></path><path d="M585.1648 146.2784h48.7424v48.7936h-48.7424z" fill="#A2D8EA" p-id="4484"></path><path d="M585.1648 97.536h48.7424v48.7424h-48.7424zM536.3712 926.464h48.7936v48.7936h-48.7936z" fill="#012777" p-id="4485"></path><path d="M536.3712 877.7216h48.7936v48.7424h-48.7936z" fill="#DEE6FC" p-id="4486"></path><path d="M536.3712 828.928h48.7936v48.7936h-48.7936zM536.3712 780.1856h48.7936v48.7424h-48.7936z" fill="#DD75A1" p-id="4487"></path><path d="M536.3712 731.4432h48.7936v48.7424h-48.7936zM536.3712 682.6496h48.7936v48.7936h-48.7936zM536.3712 633.9072h48.7936v48.7424h-48.7936z" fill="#DD75A1" p-id="4488"></path><path d="M536.3712 585.1648h48.7936v48.7424h-48.7936z" fill="#DEE6FC" p-id="4489"></path><path d="M536.3712 536.3712h48.7936v48.7936h-48.7936z" fill="#012777" p-id="4490"></path><path d="M536.3712 487.6288h48.7936v48.7424h-48.7936zM536.3712 438.8352h48.7936v48.7936h-48.7936zM536.3712 390.0928h48.7936v48.7424h-48.7936zM536.3712 341.3504h48.7936v48.7424h-48.7936z" fill="#DD75A1" p-id="4491"></path><path d="M536.3712 292.5568h48.7936v48.7936h-48.7936z" fill="#DEE6FC" p-id="4492"></path><path d="M536.3712 243.8144h48.7936v48.7424h-48.7936z" fill="#012777" p-id="4493"></path><path d="M536.3712 195.072h48.7936v48.7424h-48.7936zM536.3712 146.2784h48.7936v48.7936h-48.7936z" fill="#375AA4" p-id="4494"></path><path d="M536.3712 97.536h48.7936v48.7424h-48.7936z" fill="#A2D8EA" p-id="4495"></path><path d="M536.3712 48.7424h48.7936v48.7936h-48.7936zM487.6288 926.464h48.7424v48.7936h-48.7424z" fill="#012777" p-id="4496"></path><path d="M487.6288 877.7216h48.7424v48.7424h-48.7424z" fill="#DEE6FC" p-id="4497"></path><path d="M487.6288 828.928h48.7424v48.7936h-48.7424zM487.6288 780.1856h48.7424v48.7424h-48.7424z" fill="#DD75A1" p-id="4498"></path><path d="M487.6288 731.4432h48.7424v48.7424h-48.7424zM487.6288 682.6496h48.7424v48.7936h-48.7424zM487.6288 633.9072h48.7424v48.7424h-48.7424z" fill="#DD75A1" p-id="4499"></path><path d="M487.6288 585.1648h48.7424v48.7424h-48.7424z" fill="#DEE6FC" p-id="4500"></path><path d="M487.6288 536.3712h48.7424v48.7936h-48.7424z" fill="#012777" p-id="4501"></path><path d="M487.6288 487.6288h48.7424v48.7424h-48.7424zM487.6288 438.8352h48.7424v48.7936h-48.7424zM487.6288 390.0928h48.7424v48.7424h-48.7424zM487.6288 341.3504h48.7424v48.7424h-48.7424z" fill="#DD75A1" p-id="4502"></path><path d="M487.6288 292.5568h48.7424v48.7936h-48.7424z" fill="#DEE6FC" p-id="4503"></path><path d="M487.6288 243.8144h48.7424v48.7424h-48.7424z" fill="#012777" p-id="4504"></path><path d="M487.6288 195.072h48.7424v48.7424h-48.7424zM487.6288 146.2784h48.7424v48.7936h-48.7424z" fill="#375AA4" p-id="4505"></path><path d="M487.6288 97.536h48.7424v48.7424h-48.7424z" fill="#A2D8EA" p-id="4506"></path><path d="M487.6288 48.7424h48.7424v48.7936h-48.7424zM438.8352 926.464h48.7936v48.7936h-48.7936z" fill="#012777" p-id="4507"></path><path d="M438.8352 877.7216h48.7936v48.7424h-48.7936z" fill="#DEE6FC" p-id="4508"></path><path d="M438.8352 828.928h48.7936v48.7936h-48.7936zM438.8352 780.1856h48.7936v48.7424h-48.7936z" fill="#DD75A1" p-id="4509"></path><path d="M438.8352 731.4432h48.7936v48.7424h-48.7936zM438.8352 682.6496h48.7936v48.7936h-48.7936zM438.8352 633.9072h48.7936v48.7424h-48.7936z" fill="#DD75A1" p-id="4510"></path><path d="M438.8352 585.1648h48.7936v48.7424h-48.7936z" fill="#DEE6FC" p-id="4511"></path><path d="M438.8352 536.3712h48.7936v48.7936h-48.7936z" fill="#012777" p-id="4512"></path><path d="M438.8352 487.6288h48.7936v48.7424h-48.7936zM438.8352 438.8352h48.7936v48.7936h-48.7936zM438.8352 390.0928h48.7936v48.7424h-48.7936zM438.8352 341.3504h48.7936v48.7424h-48.7936z" fill="#DD75A1" p-id="4513"></path><path d="M438.8352 292.5568h48.7936v48.7936h-48.7936z" fill="#DEE6FC" p-id="4514"></path><path d="M438.8352 243.8144h48.7936v48.7424h-48.7936z" fill="#012777" p-id="4515"></path><path d="M438.8352 195.072h48.7936v48.7424h-48.7936zM438.8352 146.2784h48.7936v48.7936h-48.7936z" fill="#375AA4" p-id="4516"></path><path d="M438.8352 97.536h48.7936v48.7424h-48.7936z" fill="#A2D8EA" p-id="4517"></path><path d="M438.8352 48.7424h48.7936v48.7936h-48.7936zM390.0928 926.464h48.7424v48.7936h-48.7424z" fill="#012777" p-id="4518"></path><path d="M390.0928 877.7216h48.7424v48.7424h-48.7424z" fill="#DEE6FC" p-id="4519"></path><path d="M390.0928 828.928h48.7424v48.7936h-48.7424zM390.0928 780.1856h48.7424v48.7424h-48.7424z" fill="#DD75A1" p-id="4520"></path><path d="M390.0928 731.4432h48.7424v48.7424h-48.7424zM390.0928 682.6496h48.7424v48.7936h-48.7424z" fill="#012777" p-id="4521"></path><path d="M390.0928 633.9072h48.7424v48.7424h-48.7424zM390.0928 585.1648h48.7424v48.7424h-48.7424z" fill="#DD75A1" p-id="4522"></path><path d="M390.0928 536.3712h48.7424v48.7936h-48.7424z" fill="#DEE6FC" p-id="4523"></path><path d="M390.0928 487.6288h48.7424v48.7424h-48.7424z" fill="#012777" p-id="4524"></path><path d="M390.0928 438.8352h48.7424v48.7936h-48.7424zM390.0928 390.0928h48.7424v48.7424h-48.7424zM390.0928 341.3504h48.7424v48.7424h-48.7424z" fill="#DD75A1" p-id="4525"></path><path d="M390.0928 292.5568h48.7424v48.7936h-48.7424z" fill="#DEE6FC" p-id="4526"></path><path d="M390.0928 243.8144h48.7424v48.7424h-48.7424z" fill="#012777" p-id="4527"></path><path d="M390.0928 195.072h48.7424v48.7424h-48.7424z" fill="#375AA4" p-id="4528"></path><path d="M390.0928 146.2784h48.7424v48.7936h-48.7424z" fill="#A2D8EA" p-id="4529"></path><path d="M390.0928 97.536h48.7424v48.7424h-48.7424zM341.3504 926.464h48.7424v48.7936h-48.7424z" fill="#012777" p-id="4530"></path><path d="M341.3504 877.7216h48.7424v48.7424h-48.7424z" fill="#DEE6FC" p-id="4531"></path><path d="M341.3504 828.928h48.7424v48.7936h-48.7424z" fill="#DD75A1" p-id="4532"></path><path d="M341.3504 780.1856h48.7424v48.7424h-48.7424z" fill="#012777" p-id="4533"></path><path d="M341.3504 731.4432h48.7424v48.7424h-48.7424zM341.3504 682.6496h48.7424v48.7936h-48.7424z" fill="#375AA4" p-id="4534"></path><path d="M341.3504 633.9072h48.7424v48.7424h-48.7424z" fill="#012777" p-id="4535"></path><path d="M341.3504 585.1648h48.7424v48.7424h-48.7424z" fill="#DD75A1" p-id="4536"></path><path d="M341.3504 536.3712h48.7424v48.7936h-48.7424z" fill="#DEE6FC" p-id="4537"></path><path d="M341.3504 487.6288h48.7424v48.7424h-48.7424z" fill="#012777" p-id="4538"></path><path d="M341.3504 438.8352h48.7424v48.7936h-48.7424zM341.3504 390.0928h48.7424v48.7424h-48.7424zM341.3504 341.3504h48.7424v48.7424h-48.7424z" fill="#DD75A1" p-id="4539"></path><path d="M341.3504 292.5568h48.7424v48.7936h-48.7424z" fill="#DEE6FC" p-id="4540"></path><path d="M341.3504 243.8144h48.7424v48.7424h-48.7424z" fill="#012777" p-id="4541"></path><path d="M341.3504 195.072h48.7424v48.7424h-48.7424z" fill="#375AA4" p-id="4542"></path><path d="M341.3504 146.2784h48.7424v48.7936h-48.7424z" fill="#A2D8EA" p-id="4543"></path><path d="M341.3504 97.536h48.7424v48.7424h-48.7424zM292.5568 926.464h48.7936v48.7936h-48.7936z" fill="#012777" p-id="4544"></path><path d="M292.5568 877.7216h48.7936v48.7424h-48.7936z" fill="#DEE6FC" p-id="4545"></path><path d="M292.5568 828.928h48.7936v48.7936h-48.7936z" fill="#DD75A1" p-id="4546"></path><path d="M292.5568 780.1856h48.7936v48.7424h-48.7936z" fill="#012777" p-id="4547"></path><path d="M292.5568 731.4432h48.7936v48.7424h-48.7936z" fill="#375AA4" p-id="4548"></path><path d="M292.5568 682.6496h48.7936v48.7936h-48.7936z" fill="#A2D8EA" p-id="4549"></path><path d="M292.5568 633.9072h48.7936v48.7424h-48.7936z" fill="#012777" p-id="4550"></path><path d="M292.5568 585.1648h48.7936v48.7424h-48.7936zM292.5568 536.3712h48.7936v48.7936h-48.7936z" fill="#DD75A1" p-id="4551"></path><path d="M292.5568 487.6288h48.7936v48.7424h-48.7936z" fill="#DEE6FC" p-id="4552"></path><path d="M292.5568 438.8352h48.7936v48.7936h-48.7936z" fill="#012777" p-id="4553"></path><path d="M292.5568 390.0928h48.7936v48.7424h-48.7936z" fill="#DD75A1" p-id="4554"></path><path d="M292.5568 341.3504h48.7936v48.7424h-48.7936z" fill="#DEE6FC" p-id="4555"></path><path d="M292.5568 292.5568h48.7936v48.7936h-48.7936z" fill="#012777" p-id="4556"></path><path d="M292.5568 243.8144h48.7936v48.7424h-48.7936z" fill="#375AA4" p-id="4557"></path><path d="M292.5568 195.072h48.7936v48.7424h-48.7936z" fill="#A2D8EA" p-id="4558"></path><path d="M292.5568 146.2784h48.7936v48.7936h-48.7936zM243.8144 926.464h48.7424v48.7936h-48.7424z" fill="#012777" p-id="4559"></path><path d="M243.8144 877.7216h48.7424v48.7424h-48.7424z" fill="#DEE6FC" p-id="4560"></path><path d="M243.8144 828.928h48.7424v48.7936h-48.7424z" fill="#DD75A1" p-id="4561"></path><path d="M243.8144 780.1856h48.7424v48.7424h-48.7424z" fill="#012777" p-id="4562"></path><path d="M243.8144 731.4432h48.7424v48.7424h-48.7424z" fill="#375AA4" p-id="4563"></path><path d="M243.8144 682.6496h48.7424v48.7936h-48.7424z" fill="#A2D8EA" p-id="4564"></path><path d="M243.8144 633.9072h48.7424v48.7424h-48.7424z" fill="#012777" p-id="4565"></path><path d="M243.8144 585.1648h48.7424v48.7424h-48.7424zM243.8144 536.3712h48.7424v48.7936h-48.7424z" fill="#DD75A1" p-id="4566"></path><path d="M243.8144 487.6288h48.7424v48.7424h-48.7424z" fill="#DEE6FC" p-id="4567"></path><path d="M243.8144 438.8352h48.7424v48.7936h-48.7424z" fill="#012777" p-id="4568"></path><path d="M243.8144 390.0928h48.7424v48.7424h-48.7424z" fill="#DEE6FC" p-id="4569"></path><path d="M243.8144 341.3504h48.7424v48.7424h-48.7424z" fill="#012777" p-id="4570"></path><path d="M243.8144 292.5568h48.7424v48.7936h-48.7424z" fill="#375AA4" p-id="4571"></path><path d="M243.8144 243.8144h48.7424v48.7424h-48.7424z" fill="#A2D8EA" p-id="4572"></path><path d="M243.8144 195.072h48.7424v48.7424h-48.7424zM195.072 926.464h48.7424v48.7936H195.072z" fill="#012777" p-id="4573"></path><path d="M195.072 877.7216h48.7424v48.7424H195.072z" fill="#DEE6FC" p-id="4574"></path><path d="M195.072 828.928h48.7424v48.7936H195.072z" fill="#DD75A1" p-id="4575"></path><path d="M195.072 780.1856h48.7424v48.7424H195.072z" fill="#012777" p-id="4576"></path><path d="M195.072 731.4432h48.7424v48.7424H195.072zM195.072 682.6496h48.7424v48.7936H195.072z" fill="#A2D8EA" p-id="4577"></path><path d="M195.072 633.9072h48.7424v48.7424H195.072z" fill="#012777" p-id="4578"></path><path d="M195.072 585.1648h48.7424v48.7424H195.072zM195.072 536.3712h48.7424v48.7936H195.072zM195.072 487.6288h48.7424v48.7424H195.072z" fill="#DD75A1" p-id="4579"></path><path d="M195.072 438.8352h48.7424v48.7936H195.072z" fill="#DEE6FC" p-id="4580"></path><path d="M195.072 390.0928h48.7424v48.7424H195.072z" fill="#012777" p-id="4581"></path><path d="M195.072 341.3504h48.7424v48.7424H195.072z" fill="#375AA4" p-id="4582"></path><path d="M195.072 292.5568h48.7424v48.7936H195.072z" fill="#A2D8EA" p-id="4583"></path><path d="M195.072 243.8144h48.7424v48.7424H195.072zM146.2784 926.464h48.7936v48.7936h-48.7936z" fill="#012777" p-id="4584"></path><path d="M146.2784 877.7216h48.7936v48.7424h-48.7936z" fill="#DEE6FC" p-id="4585"></path><path d="M146.2784 828.928h48.7936v48.7936h-48.7936zM146.2784 780.1856h48.7936v48.7424h-48.7936z" fill="#DD75A1" p-id="4586"></path><path d="M146.2784 731.4432h48.7936v48.7424h-48.7936zM146.2784 682.6496h48.7936v48.7936h-48.7936z" fill="#012777" p-id="4587"></path><path d="M146.2784 633.9072h48.7936v48.7424h-48.7936zM146.2784 585.1648h48.7936v48.7424h-48.7936zM146.2784 536.3712h48.7936v48.7936h-48.7936zM146.2784 487.6288h48.7936v48.7424h-48.7936z" fill="#DD75A1" p-id="4588"></path><path d="M146.2784 438.8352h48.7936v48.7936h-48.7936z" fill="#DEE6FC" p-id="4589"></path><path d="M146.2784 390.0928h48.7936v48.7424h-48.7936z" fill="#012777" p-id="4590"></path><path d="M146.2784 341.3504h48.7936v48.7424h-48.7936z" fill="#A2D8EA" p-id="4591"></path><path d="M146.2784 292.5568h48.7936v48.7936h-48.7936zM97.536 877.7216h48.7424v48.7424h-48.7424z" fill="#012777" p-id="4592"></path><path d="M97.536 828.928h48.7424v48.7936h-48.7424zM97.536 780.1856h48.7424v48.7424h-48.7424z" fill="#DEE6FC" p-id="4593"></path><path d="M97.536 731.4432h48.7424v48.7424h-48.7424zM97.536 682.6496h48.7424v48.7936h-48.7424zM97.536 633.9072h48.7424v48.7424h-48.7424zM97.536 585.1648h48.7424v48.7424h-48.7424zM97.536 536.3712h48.7424v48.7936h-48.7424zM97.536 487.6288h48.7424v48.7424h-48.7424zM97.536 438.8352h48.7424v48.7936h-48.7424zM97.536 390.0928h48.7424v48.7424h-48.7424z" fill="#DEE6FC" p-id="4594"></path><path d="M97.536 341.3504h48.7424v48.7424h-48.7424zM48.7424 828.928h48.7936v48.7936H48.7424zM48.7424 780.1856h48.7936v48.7424H48.7424z" fill="#012777" p-id="4595"></path><path d="M48.7424 731.4432h48.7936v48.7424H48.7424zM48.7424 682.6496h48.7936v48.7936H48.7424zM48.7424 633.9072h48.7936v48.7424H48.7424zM48.7424 585.1648h48.7936v48.7424H48.7424zM48.7424 536.3712h48.7936v48.7936H48.7424zM48.7424 487.6288h48.7936v48.7424H48.7424zM48.7424 438.8352h48.7936v48.7936H48.7424zM48.7424 390.0928h48.7936v48.7424H48.7424z" fill="#012777" p-id="4596"></path></svg>