<?xml version="1.0" standalone="no"?><!DOCTYPE svg PUBLIC "-//W3C//DTD SVG 1.1//EN" "http://www.w3.org/Graphics/SVG/1.1/DTD/svg11.dtd"><svg t="1750667515442" class="icon" viewBox="0 0 1024 1024" version="1.1" xmlns="http://www.w3.org/2000/svg" p-id="6556" xmlns:xlink="http://www.w3.org/1999/xlink" width="64" height="64"><path d="M926.464 438.8352h48.7936v48.7936h-48.7936zM926.464 390.0928h48.7936v48.7424h-48.7936zM877.7216 487.6288h48.7424v48.7424h-48.7424z" fill="#012777" p-id="6557"></path><path d="M877.7216 438.8352h48.7424v48.7936h-48.7424z" fill="#375AA4" p-id="6558"></path><path d="M877.7216 390.0928h48.7424v48.7424h-48.7424z" fill="#A2D8EA" p-id="6559"></path><path d="M877.7216 341.3504h48.7424v48.7424h-48.7424zM828.928 877.7216h48.7936v48.7424h-48.7936zM828.928 828.928h48.7936v48.7936h-48.7936zM828.928 780.1856h48.7936v48.7424h-48.7936z" fill="#012777" p-id="6560"></path><path d="M828.928 731.4432h48.7936v48.7424h-48.7936zM828.928 682.6496h48.7936v48.7936h-48.7936zM828.928 633.9072h48.7936v48.7424h-48.7936zM828.928 585.1648h48.7936v48.7424h-48.7936zM828.928 438.8352h48.7936v48.7936h-48.7936z" fill="#012777" p-id="6561"></path><path d="M828.928 390.0928h48.7936v48.7424h-48.7936z" fill="#375AA4" p-id="6562"></path><path d="M828.928 341.3504h48.7936v48.7424h-48.7936z" fill="#A2D8EA" p-id="6563"></path><path d="M828.928 292.5568h48.7936v48.7936h-48.7936zM828.928 243.8144h48.7936v48.7424h-48.7936z" fill="#012777" p-id="6564"></path><path d="M828.928 195.072h48.7936v48.7424h-48.7936zM828.928 146.2784h48.7936v48.7936h-48.7936zM780.1856 926.464h48.7424v48.7936h-48.7424z" fill="#012777" p-id="6565"></path><path d="M780.1856 877.7216h48.7424v48.7424h-48.7424zM780.1856 828.928h48.7424v48.7936h-48.7424zM780.1856 780.1856h48.7424v48.7424h-48.7424z" fill="#DEE6FC" p-id="6566"></path><path d="M780.1856 731.4432h48.7424v48.7424h-48.7424zM780.1856 682.6496h48.7424v48.7936h-48.7424zM780.1856 633.9072h48.7424v48.7424h-48.7424zM780.1856 585.1648h48.7424v48.7424h-48.7424z" fill="#DEE6FC" p-id="6567"></path><path d="M780.1856 536.3712h48.7424v48.7936h-48.7424zM780.1856 390.0928h48.7424v48.7424h-48.7424z" fill="#012777" p-id="6568"></path><path d="M780.1856 341.3504h48.7424v48.7424h-48.7424zM780.1856 292.5568h48.7424v48.7936h-48.7424zM780.1856 243.8144h48.7424v48.7424h-48.7424z" fill="#375AA4" p-id="6569"></path><path d="M780.1856 195.072h48.7424v48.7424h-48.7424z" fill="#375AA4" p-id="6570"></path><path d="M780.1856 146.2784h48.7424v48.7936h-48.7424z" fill="#A2D8EA" p-id="6571"></path><path d="M780.1856 97.536h48.7424v48.7424h-48.7424zM731.4432 926.464h48.7424v48.7936h-48.7424z" fill="#012777" p-id="6572"></path><path d="M731.4432 877.7216h48.7424v48.7424h-48.7424z" fill="#DEE6FC" p-id="6573"></path><path d="M731.4432 828.928h48.7424v48.7936h-48.7424zM731.4432 780.1856h48.7424v48.7424h-48.7424z" fill="#DD75A1" p-id="6574"></path><path d="M731.4432 731.4432h48.7424v48.7424h-48.7424z" fill="#DD75A1" p-id="6575"></path><path d="M731.4432 682.6496h48.7424v48.7936h-48.7424zM731.4432 633.9072h48.7424v48.7424h-48.7424z" fill="#012777" p-id="6576"></path><path d="M731.4432 585.1648h48.7424v48.7424h-48.7424z" fill="#DD75A1" p-id="6577"></path><path d="M731.4432 536.3712h48.7424v48.7936h-48.7424z" fill="#DEE6FC" p-id="6578"></path><path d="M731.4432 487.6288h48.7424v48.7424h-48.7424zM731.4432 341.3504h48.7424v48.7424h-48.7424z" fill="#012777" p-id="6579"></path><path d="M731.4432 292.5568h48.7424v48.7936h-48.7424z" fill="#375AA4" p-id="6580"></path><path d="M731.4432 243.8144h48.7424v48.7424h-48.7424z" fill="#A2D8EA" p-id="6581"></path><path d="M731.4432 195.072h48.7424v48.7424h-48.7424zM731.4432 146.2784h48.7424v48.7936h-48.7424z" fill="#A2D8EA" p-id="6582"></path><path d="M731.4432 97.536h48.7424v48.7424h-48.7424zM682.6496 926.464h48.7936v48.7936h-48.7936z" fill="#012777" p-id="6583"></path><path d="M682.6496 877.7216h48.7936v48.7424h-48.7936z" fill="#DEE6FC" p-id="6584"></path><path d="M682.6496 828.928h48.7936v48.7936h-48.7936zM682.6496 780.1856h48.7936v48.7424h-48.7936z" fill="#DD75A1" p-id="6585"></path><path d="M682.6496 731.4432h48.7936v48.7424h-48.7936z" fill="#012777" p-id="6586"></path><path d="M682.6496 682.6496h48.7936v48.7936h-48.7936zM682.6496 633.9072h48.7936v48.7424h-48.7936z" fill="#375AA4" p-id="6587"></path><path d="M682.6496 585.1648h48.7936v48.7424h-48.7936z" fill="#012777" p-id="6588"></path><path d="M682.6496 536.3712h48.7936v48.7936h-48.7936z" fill="#DD75A1" p-id="6589"></path><path d="M682.6496 487.6288h48.7936v48.7424h-48.7936z" fill="#DEE6FC" p-id="6590"></path><path d="M682.6496 438.8352h48.7936v48.7936h-48.7936zM682.6496 292.5568h48.7936v48.7936h-48.7936z" fill="#012777" p-id="6591"></path><path d="M682.6496 243.8144h48.7936v48.7424h-48.7936z" fill="#375AA4" p-id="6592"></path><path d="M682.6496 195.072h48.7936v48.7424h-48.7936z" fill="#A2D8EA" p-id="6593"></path><path d="M682.6496 146.2784h48.7936v48.7936h-48.7936zM633.9072 926.464h48.7424v48.7936h-48.7424z" fill="#012777" p-id="6594"></path><path d="M633.9072 877.7216h48.7424v48.7424h-48.7424z" fill="#DEE6FC" p-id="6595"></path><path d="M633.9072 828.928h48.7424v48.7936h-48.7424zM633.9072 780.1856h48.7424v48.7424h-48.7424z" fill="#DD75A1" p-id="6596"></path><path d="M633.9072 731.4432h48.7424v48.7424h-48.7424z" fill="#012777" p-id="6597"></path><path d="M633.9072 682.6496h48.7424v48.7936h-48.7424zM633.9072 633.9072h48.7424v48.7424h-48.7424z" fill="#A2D8EA" p-id="6598"></path><path d="M633.9072 585.1648h48.7424v48.7424h-48.7424z" fill="#012777" p-id="6599"></path><path d="M633.9072 536.3712h48.7424v48.7936h-48.7424zM633.9072 487.6288h48.7424v48.7424h-48.7424z" fill="#DD75A1" p-id="6600"></path><path d="M633.9072 438.8352h48.7424v48.7936h-48.7424z" fill="#DEE6FC" p-id="6601"></path><path d="M633.9072 390.0928h48.7424v48.7424h-48.7424zM633.9072 243.8144h48.7424v48.7424h-48.7424z" fill="#012777" p-id="6602"></path><path d="M633.9072 195.072h48.7424v48.7424h-48.7424z" fill="#375AA4" p-id="6603"></path><path d="M633.9072 146.2784h48.7424v48.7936h-48.7424z" fill="#A2D8EA" p-id="6604"></path><path d="M633.9072 97.536h48.7424v48.7424h-48.7424zM585.1648 926.464h48.7424v48.7936h-48.7424z" fill="#012777" p-id="6605"></path><path d="M585.1648 877.7216h48.7424v48.7424h-48.7424z" fill="#DEE6FC" p-id="6606"></path><path d="M585.1648 828.928h48.7424v48.7936h-48.7424zM585.1648 780.1856h48.7424v48.7424h-48.7424z" fill="#DD75A1" p-id="6607"></path><path d="M585.1648 731.4432h48.7424v48.7424h-48.7424z" fill="#DD75A1" p-id="6608"></path><path d="M585.1648 682.6496h48.7424v48.7936h-48.7424zM585.1648 633.9072h48.7424v48.7424h-48.7424z" fill="#012777" p-id="6609"></path><path d="M585.1648 585.1648h48.7424v48.7424h-48.7424zM585.1648 536.3712h48.7424v48.7936h-48.7424zM585.1648 487.6288h48.7424v48.7424h-48.7424zM585.1648 438.8352h48.7424v48.7936h-48.7424z" fill="#DD75A1" p-id="6610"></path><path d="M585.1648 390.0928h48.7424v48.7424h-48.7424z" fill="#DEE6FC" p-id="6611"></path><path d="M585.1648 341.3504h48.7424v48.7424h-48.7424zM585.1648 195.072h48.7424v48.7424h-48.7424z" fill="#012777" p-id="6612"></path><path d="M585.1648 146.2784h48.7424v48.7936h-48.7424z" fill="#375AA4" p-id="6613"></path><path d="M585.1648 97.536h48.7424v48.7424h-48.7424z" fill="#A2D8EA" p-id="6614"></path><path d="M585.1648 48.7424h48.7424v48.7936h-48.7424zM536.3712 926.464h48.7936v48.7936h-48.7936z" fill="#012777" p-id="6615"></path><path d="M536.3712 877.7216h48.7936v48.7424h-48.7936z" fill="#DEE6FC" p-id="6616"></path><path d="M536.3712 828.928h48.7936v48.7936h-48.7936zM536.3712 780.1856h48.7936v48.7424h-48.7936z" fill="#DD75A1" p-id="6617"></path><path d="M536.3712 731.4432h48.7936v48.7424h-48.7936zM536.3712 682.6496h48.7936v48.7936h-48.7936zM536.3712 633.9072h48.7936v48.7424h-48.7936zM536.3712 585.1648h48.7936v48.7424h-48.7936zM536.3712 536.3712h48.7936v48.7936h-48.7936zM536.3712 487.6288h48.7936v48.7424h-48.7936zM536.3712 438.8352h48.7936v48.7936h-48.7936zM536.3712 390.0928h48.7936v48.7424h-48.7936z" fill="#DD75A1" p-id="6618"></path><path d="M536.3712 341.3504h48.7936v48.7424h-48.7936z" fill="#DEE6FC" p-id="6619"></path><path d="M536.3712 292.5568h48.7936v48.7936h-48.7936zM536.3712 195.072h48.7936v48.7424h-48.7936z" fill="#012777" p-id="6620"></path><path d="M536.3712 146.2784h48.7936v48.7936h-48.7936z" fill="#375AA4" p-id="6621"></path><path d="M536.3712 97.536h48.7936v48.7424h-48.7936z" fill="#A2D8EA" p-id="6622"></path><path d="M536.3712 48.7424h48.7936v48.7936h-48.7936zM487.6288 926.464h48.7424v48.7936h-48.7424z" fill="#012777" p-id="6623"></path><path d="M487.6288 877.7216h48.7424v48.7424h-48.7424z" fill="#DEE6FC" p-id="6624"></path><path d="M487.6288 828.928h48.7424v48.7936h-48.7424zM487.6288 780.1856h48.7424v48.7424h-48.7424z" fill="#012777" p-id="6625"></path><path d="M487.6288 731.4432h48.7424v48.7424h-48.7424zM487.6288 682.6496h48.7424v48.7936h-48.7424zM487.6288 633.9072h48.7424v48.7424h-48.7424z" fill="#012777" p-id="6626"></path><path d="M487.6288 585.1648h48.7424v48.7424h-48.7424zM487.6288 536.3712h48.7424v48.7936h-48.7424zM487.6288 487.6288h48.7424v48.7424h-48.7424zM487.6288 438.8352h48.7424v48.7936h-48.7424zM487.6288 390.0928h48.7424v48.7424h-48.7424z" fill="#DD75A1" p-id="6627"></path><path d="M487.6288 341.3504h48.7424v48.7424h-48.7424z" fill="#DEE6FC" p-id="6628"></path><path d="M487.6288 292.5568h48.7424v48.7936h-48.7424zM487.6288 195.072h48.7424v48.7424h-48.7424z" fill="#012777" p-id="6629"></path><path d="M487.6288 146.2784h48.7424v48.7936h-48.7424z" fill="#375AA4" p-id="6630"></path><path d="M487.6288 97.536h48.7424v48.7424h-48.7424z" fill="#A2D8EA" p-id="6631"></path><path d="M487.6288 48.7424h48.7424v48.7936h-48.7424zM438.8352 926.464h48.7936v48.7936h-48.7936z" fill="#012777" p-id="6632"></path><path d="M438.8352 877.7216h48.7936v48.7424h-48.7936z" fill="#DEE6FC" p-id="6633"></path><path d="M438.8352 828.928h48.7936v48.7936h-48.7936z" fill="#012777" p-id="6634"></path><path d="M438.8352 780.1856h48.7936v48.7424h-48.7936z" fill="#375AA4" p-id="6635"></path><path d="M438.8352 731.4432h48.7936v48.7424h-48.7936zM438.8352 682.6496h48.7936v48.7936h-48.7936zM438.8352 633.9072h48.7936v48.7424h-48.7936z" fill="#375AA4" p-id="6636"></path><path d="M438.8352 585.1648h48.7936v48.7424h-48.7936z" fill="#012777" p-id="6637"></path><path d="M438.8352 536.3712h48.7936v48.7936h-48.7936zM438.8352 487.6288h48.7936v48.7424h-48.7936zM438.8352 438.8352h48.7936v48.7936h-48.7936zM438.8352 390.0928h48.7936v48.7424h-48.7936z" fill="#DD75A1" p-id="6638"></path><path d="M438.8352 341.3504h48.7936v48.7424h-48.7936z" fill="#DEE6FC" p-id="6639"></path><path d="M438.8352 292.5568h48.7936v48.7936h-48.7936zM438.8352 195.072h48.7936v48.7424h-48.7936z" fill="#012777" p-id="6640"></path><path d="M438.8352 146.2784h48.7936v48.7936h-48.7936z" fill="#375AA4" p-id="6641"></path><path d="M438.8352 97.536h48.7936v48.7424h-48.7936z" fill="#A2D8EA" p-id="6642"></path><path d="M438.8352 48.7424h48.7936v48.7936h-48.7936zM390.0928 926.464h48.7424v48.7936h-48.7424z" fill="#012777" p-id="6643"></path><path d="M390.0928 877.7216h48.7424v48.7424h-48.7424z" fill="#DEE6FC" p-id="6644"></path><path d="M390.0928 828.928h48.7424v48.7936h-48.7424z" fill="#012777" p-id="6645"></path><path d="M390.0928 780.1856h48.7424v48.7424h-48.7424z" fill="#375AA4" p-id="6646"></path><path d="M390.0928 731.4432h48.7424v48.7424h-48.7424zM390.0928 682.6496h48.7424v48.7936h-48.7424z" fill="#375AA4" p-id="6647"></path><path d="M390.0928 633.9072h48.7424v48.7424h-48.7424zM390.0928 585.1648h48.7424v48.7424h-48.7424z" fill="#A2D8EA" p-id="6648"></path><path d="M390.0928 536.3712h48.7424v48.7936h-48.7424z" fill="#012777" p-id="6649"></path><path d="M390.0928 487.6288h48.7424v48.7424h-48.7424zM390.0928 438.8352h48.7424v48.7936h-48.7424z" fill="#DD75A1" p-id="6650"></path><path d="M390.0928 390.0928h48.7424v48.7424h-48.7424z" fill="#DEE6FC" p-id="6651"></path><path d="M390.0928 341.3504h48.7424v48.7424h-48.7424zM390.0928 195.072h48.7424v48.7424h-48.7424z" fill="#012777" p-id="6652"></path><path d="M390.0928 146.2784h48.7424v48.7936h-48.7424z" fill="#375AA4" p-id="6653"></path><path d="M390.0928 97.536h48.7424v48.7424h-48.7424z" fill="#A2D8EA" p-id="6654"></path><path d="M390.0928 48.7424h48.7424v48.7936h-48.7424zM341.3504 926.464h48.7424v48.7936h-48.7424z" fill="#012777" p-id="6655"></path><path d="M341.3504 877.7216h48.7424v48.7424h-48.7424z" fill="#DEE6FC" p-id="6656"></path><path d="M341.3504 828.928h48.7424v48.7936h-48.7424z" fill="#012777" p-id="6657"></path><path d="M341.3504 780.1856h48.7424v48.7424h-48.7424z" fill="#375AA4" p-id="6658"></path><path d="M341.3504 731.4432h48.7424v48.7424h-48.7424z" fill="#375AA4" p-id="6659"></path><path d="M341.3504 682.6496h48.7424v48.7936h-48.7424zM341.3504 633.9072h48.7424v48.7424h-48.7424zM341.3504 585.1648h48.7424v48.7424h-48.7424z" fill="#A2D8EA" p-id="6660"></path><path d="M341.3504 536.3712h48.7424v48.7936h-48.7424z" fill="#012777" p-id="6661"></path><path d="M341.3504 487.6288h48.7424v48.7424h-48.7424z" fill="#DD75A1" p-id="6662"></path><path d="M341.3504 438.8352h48.7424v48.7936h-48.7424z" fill="#DEE6FC" p-id="6663"></path><path d="M341.3504 390.0928h48.7424v48.7424h-48.7424zM341.3504 243.8144h48.7424v48.7424h-48.7424z" fill="#012777" p-id="6664"></path><path d="M341.3504 195.072h48.7424v48.7424h-48.7424z" fill="#375AA4" p-id="6665"></path><path d="M341.3504 146.2784h48.7424v48.7936h-48.7424z" fill="#A2D8EA" p-id="6666"></path><path d="M341.3504 97.536h48.7424v48.7424h-48.7424zM292.5568 926.464h48.7936v48.7936h-48.7936z" fill="#012777" p-id="6667"></path><path d="M292.5568 877.7216h48.7936v48.7424h-48.7936z" fill="#DEE6FC" p-id="6668"></path><path d="M292.5568 828.928h48.7936v48.7936h-48.7936z" fill="#012777" p-id="6669"></path><path d="M292.5568 780.1856h48.7936v48.7424h-48.7936z" fill="#375AA4" p-id="6670"></path><path d="M292.5568 731.4432h48.7936v48.7424h-48.7936zM292.5568 682.6496h48.7936v48.7936h-48.7936zM292.5568 633.9072h48.7936v48.7424h-48.7936z" fill="#A2D8EA" p-id="6671"></path><path d="M292.5568 585.1648h48.7936v48.7424h-48.7936z" fill="#012777" p-id="6672"></path><path d="M292.5568 536.3712h48.7936v48.7936h-48.7936z" fill="#DD75A1" p-id="6673"></path><path d="M292.5568 487.6288h48.7936v48.7424h-48.7936z" fill="#DEE6FC" p-id="6674"></path><path d="M292.5568 438.8352h48.7936v48.7936h-48.7936zM292.5568 292.5568h48.7936v48.7936h-48.7936z" fill="#012777" p-id="6675"></path><path d="M292.5568 243.8144h48.7936v48.7424h-48.7936z" fill="#375AA4" p-id="6676"></path><path d="M292.5568 195.072h48.7936v48.7424h-48.7936z" fill="#A2D8EA" p-id="6677"></path><path d="M292.5568 146.2784h48.7936v48.7936h-48.7936zM243.8144 926.464h48.7424v48.7936h-48.7424z" fill="#012777" p-id="6678"></path><path d="M243.8144 877.7216h48.7424v48.7424h-48.7424z" fill="#DEE6FC" p-id="6679"></path><path d="M243.8144 828.928h48.7424v48.7936h-48.7424zM243.8144 780.1856h48.7424v48.7424h-48.7424z" fill="#012777" p-id="6680"></path><path d="M243.8144 731.4432h48.7424v48.7424h-48.7424zM243.8144 682.6496h48.7424v48.7936h-48.7424zM243.8144 633.9072h48.7424v48.7424h-48.7424z" fill="#012777" p-id="6681"></path><path d="M243.8144 585.1648h48.7424v48.7424h-48.7424z" fill="#DD75A1" p-id="6682"></path><path d="M243.8144 536.3712h48.7424v48.7936h-48.7424z" fill="#DEE6FC" p-id="6683"></path><path d="M243.8144 487.6288h48.7424v48.7424h-48.7424zM243.8144 341.3504h48.7424v48.7424h-48.7424z" fill="#012777" p-id="6684"></path><path d="M243.8144 292.5568h48.7424v48.7936h-48.7424z" fill="#375AA4" p-id="6685"></path><path d="M243.8144 243.8144h48.7424v48.7424h-48.7424z" fill="#A2D8EA" p-id="6686"></path><path d="M243.8144 195.072h48.7424v48.7424h-48.7424zM195.072 926.464h48.7424v48.7936H195.072z" fill="#012777" p-id="6687"></path><path d="M195.072 877.7216h48.7424v48.7424H195.072zM195.072 828.928h48.7424v48.7936H195.072zM195.072 780.1856h48.7424v48.7424H195.072z" fill="#DEE6FC" p-id="6688"></path><path d="M195.072 731.4432h48.7424v48.7424H195.072zM195.072 682.6496h48.7424v48.7936H195.072zM195.072 633.9072h48.7424v48.7424H195.072zM195.072 585.1648h48.7424v48.7424H195.072z" fill="#DEE6FC" p-id="6689"></path><path d="M195.072 536.3712h48.7424v48.7936H195.072zM195.072 390.0928h48.7424v48.7424H195.072z" fill="#012777" p-id="6690"></path><path d="M195.072 341.3504h48.7424v48.7424H195.072z" fill="#375AA4" p-id="6691"></path><path d="M195.072 292.5568h48.7424v48.7936H195.072z" fill="#A2D8EA" p-id="6692"></path><path d="M195.072 243.8144h48.7424v48.7424H195.072zM146.2784 877.7216h48.7936v48.7424h-48.7936zM146.2784 828.928h48.7936v48.7936h-48.7936zM146.2784 780.1856h48.7936v48.7424h-48.7936z" fill="#012777" p-id="6693"></path><path d="M146.2784 731.4432h48.7936v48.7424h-48.7936zM146.2784 682.6496h48.7936v48.7936h-48.7936zM146.2784 633.9072h48.7936v48.7424h-48.7936zM146.2784 585.1648h48.7936v48.7424h-48.7936zM146.2784 438.8352h48.7936v48.7936h-48.7936z" fill="#012777" p-id="6694"></path><path d="M146.2784 390.0928h48.7936v48.7424h-48.7936z" fill="#375AA4" p-id="6695"></path><path d="M146.2784 341.3504h48.7936v48.7424h-48.7936z" fill="#A2D8EA" p-id="6696"></path><path d="M146.2784 292.5568h48.7936v48.7936h-48.7936zM97.536 487.6288h48.7424v48.7424h-48.7424z" fill="#012777" p-id="6697"></path><path d="M97.536 438.8352h48.7424v48.7936h-48.7424z" fill="#375AA4" p-id="6698"></path><path d="M97.536 390.0928h48.7424v48.7424h-48.7424z" fill="#A2D8EA" p-id="6699"></path><path d="M97.536 341.3504h48.7424v48.7424h-48.7424zM48.7424 438.8352h48.7936v48.7936H48.7424zM48.7424 390.0928h48.7936v48.7424H48.7424z" fill="#012777" p-id="6700"></path></svg>