<?xml version="1.0" standalone="no"?><!DOCTYPE svg PUBLIC "-//W3C//DTD SVG 1.1//EN" "http://www.w3.org/Graphics/SVG/1.1/DTD/svg11.dtd"><svg t="1750667727173" class="icon" viewBox="0 0 1024 1024" version="1.1" xmlns="http://www.w3.org/2000/svg" p-id="4757" xmlns:xlink="http://www.w3.org/1999/xlink" width="64" height="64"><path d="M926.464 390.0928h48.7936v48.7424h-48.7936zM926.464 341.3504h48.7936v48.7424h-48.7936zM926.464 292.5568h48.7936v48.7936h-48.7936zM926.464 243.8144h48.7936v48.7424h-48.7936z" fill="#012777" p-id="4758"></path><path d="M926.464 195.072h48.7936v48.7424h-48.7936zM926.464 146.2784h48.7936v48.7936h-48.7936zM926.464 97.536h48.7936v48.7424h-48.7936zM877.7216 487.6288h48.7424v48.7424h-48.7424zM877.7216 438.8352h48.7424v48.7936h-48.7424z" fill="#012777" p-id="4759"></path><path d="M877.7216 390.0928h48.7424v48.7424h-48.7424zM877.7216 341.3504h48.7424v48.7424h-48.7424zM877.7216 292.5568h48.7424v48.7936h-48.7424zM877.7216 243.8144h48.7424v48.7424h-48.7424z" fill="#DEE6FC" p-id="4760"></path><path d="M877.7216 195.072h48.7424v48.7424h-48.7424zM877.7216 146.2784h48.7424v48.7936h-48.7424zM877.7216 97.536h48.7424v48.7424h-48.7424z" fill="#DEE6FC" p-id="4761"></path><path d="M877.7216 48.7424h48.7424v48.7936h-48.7424zM828.928 731.4432h48.7936v48.7424h-48.7936zM828.928 682.6496h48.7936v48.7936h-48.7936zM828.928 536.3712h48.7936v48.7936h-48.7936z" fill="#012777" p-id="4762"></path><path d="M828.928 487.6288h48.7936v48.7424h-48.7936zM828.928 438.8352h48.7936v48.7936h-48.7936z" fill="#DEE6FC" p-id="4763"></path><path d="M828.928 390.0928h48.7936v48.7424h-48.7936zM828.928 341.3504h48.7936v48.7424h-48.7936zM828.928 292.5568h48.7936v48.7936h-48.7936zM828.928 243.8144h48.7936v48.7424h-48.7936z" fill="#DD75A1" p-id="4764"></path><path d="M828.928 195.072h48.7936v48.7424h-48.7936zM828.928 146.2784h48.7936v48.7936h-48.7936z" fill="#DD75A1" p-id="4765"></path><path d="M828.928 97.536h48.7936v48.7424h-48.7936z" fill="#DEE6FC" p-id="4766"></path><path d="M828.928 48.7424h48.7936v48.7936h-48.7936zM780.1856 780.1856h48.7424v48.7424h-48.7424z" fill="#012777" p-id="4767"></path><path d="M780.1856 731.4432h48.7424v48.7424h-48.7424zM780.1856 682.6496h48.7424v48.7936h-48.7424z" fill="#DEE6FC" p-id="4768"></path><path d="M780.1856 633.9072h48.7424v48.7424h-48.7424zM780.1856 585.1648h48.7424v48.7424h-48.7424z" fill="#012777" p-id="4769"></path><path d="M780.1856 536.3712h48.7424v48.7936h-48.7424z" fill="#DEE6FC" p-id="4770"></path><path d="M780.1856 487.6288h48.7424v48.7424h-48.7424zM780.1856 438.8352h48.7424v48.7936h-48.7424z" fill="#DD75A1" p-id="4771"></path><path d="M780.1856 390.0928h48.7424v48.7424h-48.7424zM780.1856 341.3504h48.7424v48.7424h-48.7424zM780.1856 292.5568h48.7424v48.7936h-48.7424z" fill="#012777" p-id="4772"></path><path d="M780.1856 243.8144h48.7424v48.7424h-48.7424z" fill="#DD75A1" p-id="4773"></path><path d="M780.1856 195.072h48.7424v48.7424h-48.7424zM780.1856 146.2784h48.7424v48.7936h-48.7424z" fill="#DD75A1" p-id="4774"></path><path d="M780.1856 97.536h48.7424v48.7424h-48.7424z" fill="#DEE6FC" p-id="4775"></path><path d="M780.1856 48.7424h48.7424v48.7936h-48.7424zM731.4432 828.928h48.7424v48.7936h-48.7424z" fill="#012777" p-id="4776"></path><path d="M731.4432 780.1856h48.7424v48.7424h-48.7424z" fill="#DEE6FC" p-id="4777"></path><path d="M731.4432 731.4432h48.7424v48.7424h-48.7424zM731.4432 682.6496h48.7424v48.7936h-48.7424z" fill="#DD75A1" p-id="4778"></path><path d="M731.4432 633.9072h48.7424v48.7424h-48.7424zM731.4432 585.1648h48.7424v48.7424h-48.7424z" fill="#DEE6FC" p-id="4779"></path><path d="M731.4432 536.3712h48.7424v48.7936h-48.7424zM731.4432 487.6288h48.7424v48.7424h-48.7424z" fill="#DD75A1" p-id="4780"></path><path d="M731.4432 438.8352h48.7424v48.7936h-48.7424z" fill="#012777" p-id="4781"></path><path d="M731.4432 390.0928h48.7424v48.7424h-48.7424zM731.4432 341.3504h48.7424v48.7424h-48.7424zM731.4432 292.5568h48.7424v48.7936h-48.7424z" fill="#375AA4" p-id="4782"></path><path d="M731.4432 243.8144h48.7424v48.7424h-48.7424z" fill="#012777" p-id="4783"></path><path d="M731.4432 195.072h48.7424v48.7424h-48.7424zM731.4432 146.2784h48.7424v48.7936h-48.7424z" fill="#DD75A1" p-id="4784"></path><path d="M731.4432 97.536h48.7424v48.7424h-48.7424z" fill="#DEE6FC" p-id="4785"></path><path d="M731.4432 48.7424h48.7424v48.7936h-48.7424zM682.6496 877.7216h48.7936v48.7424h-48.7936z" fill="#012777" p-id="4786"></path><path d="M682.6496 828.928h48.7936v48.7936h-48.7936z" fill="#DEE6FC" p-id="4787"></path><path d="M682.6496 780.1856h48.7936v48.7424h-48.7936z" fill="#DD75A1" p-id="4788"></path><path d="M682.6496 731.4432h48.7936v48.7424h-48.7936zM682.6496 682.6496h48.7936v48.7936h-48.7936zM682.6496 633.9072h48.7936v48.7424h-48.7936zM682.6496 585.1648h48.7936v48.7424h-48.7936zM682.6496 536.3712h48.7936v48.7936h-48.7936zM682.6496 487.6288h48.7936v48.7424h-48.7936z" fill="#DD75A1" p-id="4789"></path><path d="M682.6496 438.8352h48.7936v48.7936h-48.7936z" fill="#012777" p-id="4790"></path><path d="M682.6496 390.0928h48.7936v48.7424h-48.7936zM682.6496 341.3504h48.7936v48.7424h-48.7936zM682.6496 292.5568h48.7936v48.7936h-48.7936z" fill="#375AA4" p-id="4791"></path><path d="M682.6496 243.8144h48.7936v48.7424h-48.7936z" fill="#A2D8EA" p-id="4792"></path><path d="M682.6496 195.072h48.7936v48.7424h-48.7936z" fill="#012777" p-id="4793"></path><path d="M682.6496 146.2784h48.7936v48.7936h-48.7936z" fill="#DD75A1" p-id="4794"></path><path d="M682.6496 97.536h48.7936v48.7424h-48.7936z" fill="#DEE6FC" p-id="4795"></path><path d="M682.6496 48.7424h48.7936v48.7936h-48.7936zM633.9072 926.464h48.7424v48.7936h-48.7424z" fill="#012777" p-id="4796"></path><path d="M633.9072 877.7216h48.7424v48.7424h-48.7424z" fill="#DEE6FC" p-id="4797"></path><path d="M633.9072 828.928h48.7424v48.7936h-48.7424zM633.9072 780.1856h48.7424v48.7424h-48.7424z" fill="#DD75A1" p-id="4798"></path><path d="M633.9072 731.4432h48.7424v48.7424h-48.7424zM633.9072 682.6496h48.7424v48.7936h-48.7424zM633.9072 633.9072h48.7424v48.7424h-48.7424zM633.9072 585.1648h48.7424v48.7424h-48.7424zM633.9072 536.3712h48.7424v48.7936h-48.7424zM633.9072 487.6288h48.7424v48.7424h-48.7424z" fill="#DD75A1" p-id="4799"></path><path d="M633.9072 438.8352h48.7424v48.7936h-48.7424z" fill="#012777" p-id="4800"></path><path d="M633.9072 390.0928h48.7424v48.7424h-48.7424zM633.9072 341.3504h48.7424v48.7424h-48.7424z" fill="#375AA4" p-id="4801"></path><path d="M633.9072 292.5568h48.7424v48.7936h-48.7424zM633.9072 243.8144h48.7424v48.7424h-48.7424z" fill="#A2D8EA" p-id="4802"></path><path d="M633.9072 195.072h48.7424v48.7424h-48.7424z" fill="#012777" p-id="4803"></path><path d="M633.9072 146.2784h48.7424v48.7936h-48.7424z" fill="#DD75A1" p-id="4804"></path><path d="M633.9072 97.536h48.7424v48.7424h-48.7424z" fill="#DEE6FC" p-id="4805"></path><path d="M633.9072 48.7424h48.7424v48.7936h-48.7424zM585.1648 926.464h48.7424v48.7936h-48.7424z" fill="#012777" p-id="4806"></path><path d="M585.1648 877.7216h48.7424v48.7424h-48.7424zM585.1648 828.928h48.7424v48.7936h-48.7424z" fill="#DEE6FC" p-id="4807"></path><path d="M585.1648 780.1856h48.7424v48.7424h-48.7424z" fill="#012777" p-id="4808"></path><path d="M585.1648 731.4432h48.7424v48.7424h-48.7424zM585.1648 682.6496h48.7424v48.7936h-48.7424z" fill="#DEE6FC" p-id="4809"></path><path d="M585.1648 633.9072h48.7424v48.7424h-48.7424zM585.1648 585.1648h48.7424v48.7424h-48.7424zM585.1648 536.3712h48.7424v48.7936h-48.7424zM585.1648 487.6288h48.7424v48.7424h-48.7424zM585.1648 438.8352h48.7424v48.7936h-48.7424z" fill="#DD75A1" p-id="4810"></path><path d="M585.1648 390.0928h48.7424v48.7424h-48.7424z" fill="#012777" p-id="4811"></path><path d="M585.1648 341.3504h48.7424v48.7424h-48.7424zM585.1648 292.5568h48.7424v48.7936h-48.7424zM585.1648 243.8144h48.7424v48.7424h-48.7424z" fill="#A2D8EA" p-id="4812"></path><path d="M585.1648 195.072h48.7424v48.7424h-48.7424z" fill="#012777" p-id="4813"></path><path d="M585.1648 146.2784h48.7424v48.7936h-48.7424z" fill="#DD75A1" p-id="4814"></path><path d="M585.1648 97.536h48.7424v48.7424h-48.7424z" fill="#DEE6FC" p-id="4815"></path><path d="M585.1648 48.7424h48.7424v48.7936h-48.7424zM536.3712 877.7216h48.7936v48.7424h-48.7936zM536.3712 828.928h48.7936v48.7936h-48.7936zM536.3712 731.4432h48.7936v48.7424h-48.7936zM536.3712 682.6496h48.7936v48.7936h-48.7936z" fill="#012777" p-id="4816"></path><path d="M536.3712 633.9072h48.7936v48.7424h-48.7936z" fill="#DEE6FC" p-id="4817"></path><path d="M536.3712 585.1648h48.7936v48.7424h-48.7936zM536.3712 536.3712h48.7936v48.7936h-48.7936zM536.3712 487.6288h48.7936v48.7424h-48.7936zM536.3712 438.8352h48.7936v48.7936h-48.7936zM536.3712 390.0928h48.7936v48.7424h-48.7936z" fill="#DD75A1" p-id="4818"></path><path d="M536.3712 341.3504h48.7936v48.7424h-48.7936zM536.3712 292.5568h48.7936v48.7936h-48.7936zM536.3712 243.8144h48.7936v48.7424h-48.7936z" fill="#012777" p-id="4819"></path><path d="M536.3712 195.072h48.7936v48.7424h-48.7936z" fill="#DD75A1" p-id="4820"></path><path d="M536.3712 146.2784h48.7936v48.7936h-48.7936z" fill="#DEE6FC" p-id="4821"></path><path d="M536.3712 97.536h48.7936v48.7424h-48.7936zM487.6288 731.4432h48.7424v48.7424h-48.7424z" fill="#012777" p-id="4822"></path><path d="M487.6288 682.6496h48.7424v48.7936h-48.7424z" fill="#A2D8EA" p-id="4823"></path><path d="M487.6288 633.9072h48.7424v48.7424h-48.7424z" fill="#012777" p-id="4824"></path><path d="M487.6288 585.1648h48.7424v48.7424h-48.7424z" fill="#DEE6FC" p-id="4825"></path><path d="M487.6288 536.3712h48.7424v48.7936h-48.7424zM487.6288 487.6288h48.7424v48.7424h-48.7424zM487.6288 438.8352h48.7424v48.7936h-48.7424zM487.6288 390.0928h48.7424v48.7424h-48.7424zM487.6288 341.3504h48.7424v48.7424h-48.7424zM487.6288 292.5568h48.7424v48.7936h-48.7424zM487.6288 243.8144h48.7424v48.7424h-48.7424z" fill="#DD75A1" p-id="4826"></path><path d="M487.6288 195.072h48.7424v48.7424h-48.7424z" fill="#DD75A1" p-id="4827"></path><path d="M487.6288 146.2784h48.7424v48.7936h-48.7424z" fill="#DEE6FC" p-id="4828"></path><path d="M487.6288 97.536h48.7424v48.7424h-48.7424zM438.8352 731.4432h48.7936v48.7424h-48.7936z" fill="#012777" p-id="4829"></path><path d="M438.8352 682.6496h48.7936v48.7936h-48.7936z" fill="#375AA4" p-id="4830"></path><path d="M438.8352 633.9072h48.7936v48.7424h-48.7936z" fill="#A2D8EA" p-id="4831"></path><path d="M438.8352 585.1648h48.7936v48.7424h-48.7936z" fill="#012777" p-id="4832"></path><path d="M438.8352 536.3712h48.7936v48.7936h-48.7936z" fill="#DEE6FC" p-id="4833"></path><path d="M438.8352 487.6288h48.7936v48.7424h-48.7936zM438.8352 438.8352h48.7936v48.7936h-48.7936zM438.8352 390.0928h48.7936v48.7424h-48.7936zM438.8352 341.3504h48.7936v48.7424h-48.7936zM438.8352 292.5568h48.7936v48.7936h-48.7936zM438.8352 243.8144h48.7936v48.7424h-48.7936z" fill="#DD75A1" p-id="4834"></path><path d="M438.8352 195.072h48.7936v48.7424h-48.7936z" fill="#DEE6FC" p-id="4835"></path><path d="M438.8352 146.2784h48.7936v48.7936h-48.7936zM390.0928 828.928h48.7424v48.7936h-48.7424zM390.0928 682.6496h48.7424v48.7936h-48.7424z" fill="#012777" p-id="4836"></path><path d="M390.0928 633.9072h48.7424v48.7424h-48.7424z" fill="#375AA4" p-id="4837"></path><path d="M390.0928 585.1648h48.7424v48.7424h-48.7424z" fill="#A2D8EA" p-id="4838"></path><path d="M390.0928 536.3712h48.7424v48.7936h-48.7424z" fill="#012777" p-id="4839"></path><path d="M390.0928 487.6288h48.7424v48.7424h-48.7424z" fill="#DEE6FC" p-id="4840"></path><path d="M390.0928 438.8352h48.7424v48.7936h-48.7424zM390.0928 390.0928h48.7424v48.7424h-48.7424zM390.0928 341.3504h48.7424v48.7424h-48.7424zM390.0928 292.5568h48.7424v48.7936h-48.7424z" fill="#DD75A1" p-id="4841"></path><path d="M390.0928 243.8144h48.7424v48.7424h-48.7424z" fill="#DEE6FC" p-id="4842"></path><path d="M390.0928 195.072h48.7424v48.7424h-48.7424zM341.3504 877.7216h48.7424v48.7424h-48.7424zM341.3504 633.9072h48.7424v48.7424h-48.7424z" fill="#012777" p-id="4843"></path><path d="M341.3504 585.1648h48.7424v48.7424h-48.7424z" fill="#375AA4" p-id="4844"></path><path d="M341.3504 536.3712h48.7424v48.7936h-48.7424z" fill="#A2D8EA" p-id="4845"></path><path d="M341.3504 487.6288h48.7424v48.7424h-48.7424z" fill="#012777" p-id="4846"></path><path d="M341.3504 438.8352h48.7424v48.7936h-48.7424z" fill="#DEE6FC" p-id="4847"></path><path d="M341.3504 390.0928h48.7424v48.7424h-48.7424zM341.3504 341.3504h48.7424v48.7424h-48.7424zM341.3504 292.5568h48.7424v48.7936h-48.7424z" fill="#DD75A1" p-id="4848"></path><path d="M341.3504 243.8144h48.7424v48.7424h-48.7424z" fill="#DEE6FC" p-id="4849"></path><path d="M341.3504 195.072h48.7424v48.7424h-48.7424zM292.5568 926.464h48.7936v48.7936h-48.7936zM292.5568 780.1856h48.7936v48.7424h-48.7936z" fill="#012777" p-id="4850"></path><path d="M292.5568 731.4432h48.7936v48.7424h-48.7936zM292.5568 585.1648h48.7936v48.7424h-48.7936z" fill="#012777" p-id="4851"></path><path d="M292.5568 536.3712h48.7936v48.7936h-48.7936z" fill="#375AA4" p-id="4852"></path><path d="M292.5568 487.6288h48.7936v48.7424h-48.7936z" fill="#A2D8EA" p-id="4853"></path><path d="M292.5568 438.8352h48.7936v48.7936h-48.7936z" fill="#012777" p-id="4854"></path><path d="M292.5568 390.0928h48.7936v48.7424h-48.7936z" fill="#DEE6FC" p-id="4855"></path><path d="M292.5568 341.3504h48.7936v48.7424h-48.7936zM292.5568 292.5568h48.7936v48.7936h-48.7936zM292.5568 243.8144h48.7936v48.7424h-48.7936z" fill="#DD75A1" p-id="4856"></path><path d="M292.5568 195.072h48.7936v48.7424h-48.7936z" fill="#DEE6FC" p-id="4857"></path><path d="M292.5568 146.2784h48.7936v48.7936h-48.7936zM243.8144 828.928h48.7424v48.7936h-48.7424z" fill="#012777" p-id="4858"></path><path d="M243.8144 780.1856h48.7424v48.7424h-48.7424z" fill="#DEE6FC" p-id="4859"></path><path d="M243.8144 731.4432h48.7424v48.7424h-48.7424z" fill="#DD75A1" p-id="4860"></path><path d="M243.8144 682.6496h48.7424v48.7936h-48.7424zM243.8144 536.3712h48.7424v48.7936h-48.7424zM243.8144 487.6288h48.7424v48.7424h-48.7424zM243.8144 438.8352h48.7424v48.7936h-48.7424z" fill="#012777" p-id="4861"></path><path d="M243.8144 390.0928h48.7424v48.7424h-48.7424z" fill="#DEE6FC" p-id="4862"></path><path d="M243.8144 341.3504h48.7424v48.7424h-48.7424zM243.8144 292.5568h48.7424v48.7936h-48.7424zM243.8144 243.8144h48.7424v48.7424h-48.7424z" fill="#DD75A1" p-id="4863"></path><path d="M243.8144 195.072h48.7424v48.7424h-48.7424z" fill="#DEE6FC" p-id="4864"></path><path d="M243.8144 146.2784h48.7424v48.7936h-48.7424zM195.072 877.7216h48.7424v48.7424H195.072z" fill="#012777" p-id="4865"></path><path d="M195.072 828.928h48.7424v48.7936H195.072z" fill="#DEE6FC" p-id="4866"></path><path d="M195.072 780.1856h48.7424v48.7424H195.072z" fill="#DD75A1" p-id="4867"></path><path d="M195.072 731.4432h48.7424v48.7424H195.072z" fill="#DEE6FC" p-id="4868"></path><path d="M195.072 682.6496h48.7424v48.7936H195.072zM195.072 390.0928h48.7424v48.7424H195.072z" fill="#012777" p-id="4869"></path><path d="M195.072 341.3504h48.7424v48.7424H195.072zM195.072 292.5568h48.7424v48.7936H195.072z" fill="#DD75A1" p-id="4870"></path><path d="M195.072 243.8144h48.7424v48.7424H195.072z" fill="#DEE6FC" p-id="4871"></path><path d="M195.072 195.072h48.7424v48.7424H195.072zM146.2784 926.464h48.7936v48.7936h-48.7936z" fill="#012777" p-id="4872"></path><path d="M146.2784 877.7216h48.7936v48.7424h-48.7936z" fill="#DEE6FC" p-id="4873"></path><path d="M146.2784 828.928h48.7936v48.7936h-48.7936z" fill="#DD75A1" p-id="4874"></path><path d="M146.2784 780.1856h48.7936v48.7424h-48.7936z" fill="#DEE6FC" p-id="4875"></path><path d="M146.2784 731.4432h48.7936v48.7424h-48.7936zM146.2784 585.1648h48.7936v48.7424h-48.7936zM146.2784 438.8352h48.7936v48.7936h-48.7936z" fill="#012777" p-id="4876"></path><path d="M146.2784 390.0928h48.7936v48.7424h-48.7936z" fill="#DEE6FC" p-id="4877"></path><path d="M146.2784 341.3504h48.7936v48.7424h-48.7936z" fill="#DD75A1" p-id="4878"></path><path d="M146.2784 292.5568h48.7936v48.7936h-48.7936z" fill="#DEE6FC" p-id="4879"></path><path d="M146.2784 243.8144h48.7936v48.7424h-48.7936zM97.536 926.464h48.7424v48.7936h-48.7424z" fill="#012777" p-id="4880"></path><path d="M97.536 877.7216h48.7424v48.7424h-48.7424z" fill="#DD75A1" p-id="4881"></path><path d="M97.536 828.928h48.7424v48.7936h-48.7424z" fill="#DEE6FC" p-id="4882"></path><path d="M97.536 780.1856h48.7424v48.7424h-48.7424zM97.536 633.9072h48.7424v48.7424h-48.7424zM97.536 438.8352h48.7424v48.7936h-48.7424z" fill="#012777" p-id="4883"></path><path d="M97.536 390.0928h48.7424v48.7424h-48.7424zM97.536 341.3504h48.7424v48.7424h-48.7424z" fill="#DEE6FC" p-id="4884"></path><path d="M97.536 292.5568h48.7424v48.7936h-48.7424zM48.7424 877.7216h48.7936v48.7424H48.7424zM48.7424 828.928h48.7936v48.7936H48.7424zM48.7424 682.6496h48.7936v48.7936H48.7424zM48.7424 390.0928h48.7936v48.7424H48.7424zM48.7424 341.3504h48.7936v48.7424H48.7424z" fill="#012777" p-id="4885"></path></svg>