<?xml version="1.0" standalone="no"?><!DOCTYPE svg PUBLIC "-//W3C//DTD SVG 1.1//EN" "http://www.w3.org/Graphics/SVG/1.1/DTD/svg11.dtd"><svg t="1750667784793" class="icon" viewBox="0 0 1024 1024" version="1.1" xmlns="http://www.w3.org/2000/svg" p-id="16078" xmlns:xlink="http://www.w3.org/1999/xlink" width="64" height="64"><path d="M731.4432 731.4432h48.7424v48.7424h-48.7424zM682.6496 780.1856h48.7936v48.7424h-48.7936zM926.464 780.1856h48.7936v48.7424h-48.7936zM877.7216 828.928h48.7424v48.7936h-48.7424z" fill="#012777" p-id="16079"></path><path d="M877.7216 780.1856h48.7424v48.7424h-48.7424z" fill="#375AA4" p-id="16080"></path><path d="M877.7216 731.4432h48.7424v48.7424h-48.7424zM828.928 877.7216h48.7936v48.7424h-48.7936z" fill="#012777" p-id="16081"></path><path d="M828.928 828.928h48.7936v48.7936h-48.7936z" fill="#375AA4" p-id="16082"></path><path d="M828.928 780.1856h48.7936v48.7424h-48.7936z" fill="#A2D8EA" p-id="16083"></path><path d="M828.928 731.4432h48.7936v48.7424h-48.7936z" fill="#A2D8EA" p-id="16084"></path><path d="M828.928 682.6496h48.7936v48.7936h-48.7936zM828.928 536.3712h48.7936v48.7936h-48.7936zM828.928 487.6288h48.7936v48.7424h-48.7936zM828.928 438.8352h48.7936v48.7936h-48.7936zM828.928 390.0928h48.7936v48.7424h-48.7936zM828.928 341.3504h48.7936v48.7424h-48.7936zM828.928 292.5568h48.7936v48.7936h-48.7936zM828.928 243.8144h48.7936v48.7424h-48.7936zM780.1856 926.464h48.7424v48.7936h-48.7424z" fill="#012777" p-id="16085"></path><path d="M780.1856 877.7216h48.7424v48.7424h-48.7424zM780.1856 828.928h48.7424v48.7936h-48.7424z" fill="#375AA4" p-id="16086"></path><path d="M780.1856 780.1856h48.7424v48.7424h-48.7424z" fill="#A2D8EA" p-id="16087"></path><path d="M780.1856 731.4432h48.7424v48.7424h-48.7424zM780.1856 585.1648h48.7424v48.7424h-48.7424z" fill="#012777" p-id="16088"></path><path d="M780.1856 536.3712h48.7424v48.7936h-48.7424zM780.1856 487.6288h48.7424v48.7424h-48.7424zM780.1856 438.8352h48.7424v48.7936h-48.7424zM780.1856 390.0928h48.7424v48.7424h-48.7424zM780.1856 341.3504h48.7424v48.7424h-48.7424zM780.1856 292.5568h48.7424v48.7936h-48.7424zM780.1856 243.8144h48.7424v48.7424h-48.7424z" fill="#DEE6FC" p-id="16089"></path><path d="M780.1856 195.072h48.7424v48.7424h-48.7424zM731.4432 877.7216h48.7424v48.7424h-48.7424z" fill="#012777" p-id="16090"></path><path d="M731.4432 828.928h48.7424v48.7936h-48.7424zM731.4432 780.1856h48.7424v48.7424h-48.7424z" fill="#A2D8EA" p-id="16091"></path><path d="M731.4432 633.9072h48.7424v48.7424h-48.7424z" fill="#012777" p-id="16092"></path><path d="M731.4432 585.1648h48.7424v48.7424h-48.7424z" fill="#DEE6FC" p-id="16093"></path><path d="M731.4432 536.3712h48.7424v48.7936h-48.7424zM731.4432 487.6288h48.7424v48.7424h-48.7424zM731.4432 438.8352h48.7424v48.7936h-48.7424zM731.4432 390.0928h48.7424v48.7424h-48.7424zM731.4432 341.3504h48.7424v48.7424h-48.7424zM731.4432 292.5568h48.7424v48.7936h-48.7424zM731.4432 243.8144h48.7424v48.7424h-48.7424z" fill="#DD75A1" p-id="16094"></path><path d="M731.4432 195.072h48.7424v48.7424h-48.7424z" fill="#DEE6FC" p-id="16095"></path><path d="M731.4432 146.2784h48.7424v48.7936h-48.7424zM682.6496 828.928h48.7936v48.7936h-48.7936zM682.6496 633.9072h48.7936v48.7424h-48.7936z" fill="#012777" p-id="16096"></path><path d="M682.6496 585.1648h48.7936v48.7424h-48.7936z" fill="#DEE6FC" p-id="16097"></path><path d="M682.6496 536.3712h48.7936v48.7936h-48.7936zM682.6496 487.6288h48.7936v48.7424h-48.7936zM682.6496 438.8352h48.7936v48.7936h-48.7936z" fill="#DD75A1" p-id="16098"></path><path d="M682.6496 390.0928h48.7936v48.7424h-48.7936z" fill="#012777" p-id="16099"></path><path d="M682.6496 341.3504h48.7936v48.7424h-48.7936zM682.6496 292.5568h48.7936v48.7936h-48.7936zM682.6496 243.8144h48.7936v48.7424h-48.7936z" fill="#DD75A1" p-id="16100"></path><path d="M682.6496 195.072h48.7936v48.7424h-48.7936z" fill="#DEE6FC" p-id="16101"></path><path d="M682.6496 146.2784h48.7936v48.7936h-48.7936zM633.9072 682.6496h48.7424v48.7936h-48.7424z" fill="#012777" p-id="16102"></path><path d="M633.9072 633.9072h48.7424v48.7424h-48.7424z" fill="#DEE6FC" p-id="16103"></path><path d="M633.9072 585.1648h48.7424v48.7424h-48.7424zM633.9072 536.3712h48.7424v48.7936h-48.7424zM633.9072 487.6288h48.7424v48.7424h-48.7424z" fill="#DD75A1" p-id="16104"></path><path d="M633.9072 438.8352h48.7424v48.7936h-48.7424z" fill="#012777" p-id="16105"></path><path d="M633.9072 390.0928h48.7424v48.7424h-48.7424z" fill="#DEE6FC" p-id="16106"></path><path d="M633.9072 341.3504h48.7424v48.7424h-48.7424z" fill="#012777" p-id="16107"></path><path d="M633.9072 292.5568h48.7424v48.7936h-48.7424zM633.9072 243.8144h48.7424v48.7424h-48.7424z" fill="#DD75A1" p-id="16108"></path><path d="M633.9072 195.072h48.7424v48.7424h-48.7424z" fill="#DD75A1" p-id="16109"></path><path d="M633.9072 146.2784h48.7424v48.7936h-48.7424z" fill="#DEE6FC" p-id="16110"></path><path d="M633.9072 97.536h48.7424v48.7424h-48.7424zM585.1648 682.6496h48.7424v48.7936h-48.7424z" fill="#012777" p-id="16111"></path><path d="M585.1648 633.9072h48.7424v48.7424h-48.7424z" fill="#DEE6FC" p-id="16112"></path><path d="M585.1648 585.1648h48.7424v48.7424h-48.7424zM585.1648 536.3712h48.7424v48.7936h-48.7424zM585.1648 487.6288h48.7424v48.7424h-48.7424z" fill="#DD75A1" p-id="16113"></path><path d="M585.1648 438.8352h48.7424v48.7936h-48.7424z" fill="#012777" p-id="16114"></path><path d="M585.1648 390.0928h48.7424v48.7424h-48.7424z" fill="#DEE6FC" p-id="16115"></path><path d="M585.1648 341.3504h48.7424v48.7424h-48.7424z" fill="#012777" p-id="16116"></path><path d="M585.1648 292.5568h48.7424v48.7936h-48.7424zM585.1648 243.8144h48.7424v48.7424h-48.7424z" fill="#DD75A1" p-id="16117"></path><path d="M585.1648 195.072h48.7424v48.7424h-48.7424z" fill="#DD75A1" p-id="16118"></path><path d="M585.1648 146.2784h48.7424v48.7936h-48.7424z" fill="#DEE6FC" p-id="16119"></path><path d="M585.1648 97.536h48.7424v48.7424h-48.7424zM536.3712 731.4432h48.7936v48.7424h-48.7936z" fill="#012777" p-id="16120"></path><path d="M536.3712 682.6496h48.7936v48.7936h-48.7936z" fill="#DEE6FC" p-id="16121"></path><path d="M536.3712 633.9072h48.7936v48.7424h-48.7936zM536.3712 585.1648h48.7936v48.7424h-48.7936z" fill="#DD75A1" p-id="16122"></path><path d="M536.3712 536.3712h48.7936v48.7936h-48.7936zM536.3712 487.6288h48.7936v48.7424h-48.7936z" fill="#012777" p-id="16123"></path><path d="M536.3712 438.8352h48.7936v48.7936h-48.7936z" fill="#DEE6FC" p-id="16124"></path><path d="M536.3712 390.0928h48.7936v48.7424h-48.7936z" fill="#DD75A1" p-id="16125"></path><path d="M536.3712 341.3504h48.7936v48.7424h-48.7936z" fill="#DEE6FC" p-id="16126"></path><path d="M536.3712 292.5568h48.7936v48.7936h-48.7936zM536.3712 243.8144h48.7936v48.7424h-48.7936z" fill="#012777" p-id="16127"></path><path d="M536.3712 195.072h48.7936v48.7424h-48.7936zM536.3712 146.2784h48.7936v48.7936h-48.7936z" fill="#DD75A1" p-id="16128"></path><path d="M536.3712 97.536h48.7936v48.7424h-48.7936z" fill="#DEE6FC" p-id="16129"></path><path d="M536.3712 48.7424h48.7936v48.7936h-48.7936zM487.6288 731.4432h48.7424v48.7424h-48.7424z" fill="#012777" p-id="16130"></path><path d="M487.6288 682.6496h48.7424v48.7936h-48.7424z" fill="#DEE6FC" p-id="16131"></path><path d="M487.6288 633.9072h48.7424v48.7424h-48.7424z" fill="#DD75A1" p-id="16132"></path><path d="M487.6288 585.1648h48.7424v48.7424h-48.7424z" fill="#012777" p-id="16133"></path><path d="M487.6288 536.3712h48.7424v48.7936h-48.7424zM487.6288 487.6288h48.7424v48.7424h-48.7424z" fill="#DEE6FC" p-id="16134"></path><path d="M487.6288 438.8352h48.7424v48.7936h-48.7424zM487.6288 390.0928h48.7424v48.7424h-48.7424zM487.6288 341.3504h48.7424v48.7424h-48.7424z" fill="#DD75A1" p-id="16135"></path><path d="M487.6288 292.5568h48.7424v48.7936h-48.7424zM487.6288 243.8144h48.7424v48.7424h-48.7424z" fill="#DEE6FC" p-id="16136"></path><path d="M487.6288 195.072h48.7424v48.7424h-48.7424z" fill="#012777" p-id="16137"></path><path d="M487.6288 146.2784h48.7424v48.7936h-48.7424z" fill="#DD75A1" p-id="16138"></path><path d="M487.6288 97.536h48.7424v48.7424h-48.7424z" fill="#DEE6FC" p-id="16139"></path><path d="M487.6288 48.7424h48.7424v48.7936h-48.7424zM438.8352 731.4432h48.7936v48.7424h-48.7936z" fill="#012777" p-id="16140"></path><path d="M438.8352 682.6496h48.7936v48.7936h-48.7936z" fill="#DEE6FC" p-id="16141"></path><path d="M438.8352 633.9072h48.7936v48.7424h-48.7936zM438.8352 585.1648h48.7936v48.7424h-48.7936z" fill="#DD75A1" p-id="16142"></path><path d="M438.8352 536.3712h48.7936v48.7936h-48.7936zM438.8352 487.6288h48.7936v48.7424h-48.7936z" fill="#012777" p-id="16143"></path><path d="M438.8352 438.8352h48.7936v48.7936h-48.7936z" fill="#DEE6FC" p-id="16144"></path><path d="M438.8352 390.0928h48.7936v48.7424h-48.7936z" fill="#DD75A1" p-id="16145"></path><path d="M438.8352 341.3504h48.7936v48.7424h-48.7936z" fill="#DEE6FC" p-id="16146"></path><path d="M438.8352 292.5568h48.7936v48.7936h-48.7936zM438.8352 243.8144h48.7936v48.7424h-48.7936z" fill="#012777" p-id="16147"></path><path d="M438.8352 195.072h48.7936v48.7424h-48.7936zM438.8352 146.2784h48.7936v48.7936h-48.7936z" fill="#DD75A1" p-id="16148"></path><path d="M438.8352 97.536h48.7936v48.7424h-48.7936z" fill="#DEE6FC" p-id="16149"></path><path d="M438.8352 48.7424h48.7936v48.7936h-48.7936zM390.0928 682.6496h48.7424v48.7936h-48.7424z" fill="#012777" p-id="16150"></path><path d="M390.0928 633.9072h48.7424v48.7424h-48.7424z" fill="#DEE6FC" p-id="16151"></path><path d="M390.0928 585.1648h48.7424v48.7424h-48.7424zM390.0928 536.3712h48.7424v48.7936h-48.7424zM390.0928 487.6288h48.7424v48.7424h-48.7424z" fill="#DD75A1" p-id="16152"></path><path d="M390.0928 438.8352h48.7424v48.7936h-48.7424z" fill="#012777" p-id="16153"></path><path d="M390.0928 390.0928h48.7424v48.7424h-48.7424z" fill="#DEE6FC" p-id="16154"></path><path d="M390.0928 341.3504h48.7424v48.7424h-48.7424z" fill="#012777" p-id="16155"></path><path d="M390.0928 292.5568h48.7424v48.7936h-48.7424zM390.0928 243.8144h48.7424v48.7424h-48.7424z" fill="#DD75A1" p-id="16156"></path><path d="M390.0928 195.072h48.7424v48.7424h-48.7424z" fill="#DD75A1" p-id="16157"></path><path d="M390.0928 146.2784h48.7424v48.7936h-48.7424z" fill="#DEE6FC" p-id="16158"></path><path d="M390.0928 97.536h48.7424v48.7424h-48.7424zM341.3504 682.6496h48.7424v48.7936h-48.7424z" fill="#012777" p-id="16159"></path><path d="M341.3504 633.9072h48.7424v48.7424h-48.7424z" fill="#DEE6FC" p-id="16160"></path><path d="M341.3504 585.1648h48.7424v48.7424h-48.7424zM341.3504 536.3712h48.7424v48.7936h-48.7424zM341.3504 487.6288h48.7424v48.7424h-48.7424z" fill="#DD75A1" p-id="16161"></path><path d="M341.3504 438.8352h48.7424v48.7936h-48.7424z" fill="#012777" p-id="16162"></path><path d="M341.3504 390.0928h48.7424v48.7424h-48.7424z" fill="#DEE6FC" p-id="16163"></path><path d="M341.3504 341.3504h48.7424v48.7424h-48.7424z" fill="#012777" p-id="16164"></path><path d="M341.3504 292.5568h48.7424v48.7936h-48.7424zM341.3504 243.8144h48.7424v48.7424h-48.7424z" fill="#DD75A1" p-id="16165"></path><path d="M341.3504 195.072h48.7424v48.7424h-48.7424z" fill="#DD75A1" p-id="16166"></path><path d="M341.3504 146.2784h48.7424v48.7936h-48.7424z" fill="#DEE6FC" p-id="16167"></path><path d="M341.3504 97.536h48.7424v48.7424h-48.7424zM292.5568 828.928h48.7936v48.7936h-48.7936zM292.5568 780.1856h48.7936v48.7424h-48.7936zM292.5568 633.9072h48.7936v48.7424h-48.7936z" fill="#012777" p-id="16168"></path><path d="M292.5568 585.1648h48.7936v48.7424h-48.7936z" fill="#DEE6FC" p-id="16169"></path><path d="M292.5568 536.3712h48.7936v48.7936h-48.7936zM292.5568 487.6288h48.7936v48.7424h-48.7936zM292.5568 438.8352h48.7936v48.7936h-48.7936z" fill="#DD75A1" p-id="16170"></path><path d="M292.5568 390.0928h48.7936v48.7424h-48.7936z" fill="#012777" p-id="16171"></path><path d="M292.5568 341.3504h48.7936v48.7424h-48.7936zM292.5568 292.5568h48.7936v48.7936h-48.7936zM292.5568 243.8144h48.7936v48.7424h-48.7936z" fill="#DD75A1" p-id="16172"></path><path d="M292.5568 195.072h48.7936v48.7424h-48.7936z" fill="#DEE6FC" p-id="16173"></path><path d="M292.5568 146.2784h48.7936v48.7936h-48.7936zM243.8144 877.7216h48.7424v48.7424h-48.7424z" fill="#012777" p-id="16174"></path><path d="M243.8144 828.928h48.7424v48.7936h-48.7424zM243.8144 780.1856h48.7424v48.7424h-48.7424z" fill="#A2D8EA" p-id="16175"></path><path d="M243.8144 731.4432h48.7424v48.7424h-48.7424zM243.8144 633.9072h48.7424v48.7424h-48.7424z" fill="#012777" p-id="16176"></path><path d="M243.8144 585.1648h48.7424v48.7424h-48.7424z" fill="#DEE6FC" p-id="16177"></path><path d="M243.8144 536.3712h48.7424v48.7936h-48.7424zM243.8144 487.6288h48.7424v48.7424h-48.7424zM243.8144 438.8352h48.7424v48.7936h-48.7424zM243.8144 390.0928h48.7424v48.7424h-48.7424zM243.8144 341.3504h48.7424v48.7424h-48.7424zM243.8144 292.5568h48.7424v48.7936h-48.7424zM243.8144 243.8144h48.7424v48.7424h-48.7424z" fill="#DD75A1" p-id="16178"></path><path d="M243.8144 195.072h48.7424v48.7424h-48.7424z" fill="#DEE6FC" p-id="16179"></path><path d="M243.8144 146.2784h48.7424v48.7936h-48.7424zM195.072 926.464h48.7424v48.7936H195.072z" fill="#012777" p-id="16180"></path><path d="M195.072 877.7216h48.7424v48.7424H195.072zM195.072 828.928h48.7424v48.7936H195.072z" fill="#375AA4" p-id="16181"></path><path d="M195.072 780.1856h48.7424v48.7424H195.072z" fill="#A2D8EA" p-id="16182"></path><path d="M195.072 731.4432h48.7424v48.7424H195.072zM195.072 585.1648h48.7424v48.7424H195.072z" fill="#012777" p-id="16183"></path><path d="M195.072 536.3712h48.7424v48.7936H195.072zM195.072 487.6288h48.7424v48.7424H195.072zM195.072 438.8352h48.7424v48.7936H195.072zM195.072 390.0928h48.7424v48.7424H195.072zM195.072 341.3504h48.7424v48.7424H195.072zM195.072 292.5568h48.7424v48.7936H195.072zM195.072 243.8144h48.7424v48.7424H195.072z" fill="#DEE6FC" p-id="16184"></path><path d="M195.072 195.072h48.7424v48.7424H195.072zM146.2784 877.7216h48.7936v48.7424h-48.7936z" fill="#012777" p-id="16185"></path><path d="M146.2784 828.928h48.7936v48.7936h-48.7936z" fill="#375AA4" p-id="16186"></path><path d="M146.2784 780.1856h48.7936v48.7424h-48.7936z" fill="#A2D8EA" p-id="16187"></path><path d="M146.2784 731.4432h48.7936v48.7424h-48.7936z" fill="#A2D8EA" p-id="16188"></path><path d="M146.2784 682.6496h48.7936v48.7936h-48.7936zM146.2784 536.3712h48.7936v48.7936h-48.7936zM146.2784 487.6288h48.7936v48.7424h-48.7936zM146.2784 438.8352h48.7936v48.7936h-48.7936zM146.2784 390.0928h48.7936v48.7424h-48.7936zM146.2784 341.3504h48.7936v48.7424h-48.7936zM146.2784 292.5568h48.7936v48.7936h-48.7936zM146.2784 243.8144h48.7936v48.7424h-48.7936zM97.536 828.928h48.7424v48.7936h-48.7424z" fill="#012777" p-id="16189"></path><path d="M97.536 780.1856h48.7424v48.7424h-48.7424z" fill="#375AA4" p-id="16190"></path><path d="M97.536 731.4432h48.7424v48.7424h-48.7424zM48.7424 780.1856h48.7936v48.7424H48.7424z" fill="#012777" p-id="16191"></path></svg>