<svg t="1750669159869" class="icon" viewBox="0 0 1024 1024" version="1.1" xmlns="http://www.w3.org/2000/svg" p-id="3860" width="64" height="64"><path d="M194.412424 0h48.761976v48.761976h-48.761976zM194.412424 48.761976h48.761976v48.761977h-48.761976zM194.412424 97.523953h48.761976v48.761976h-48.761976z" fill="#3A2802" p-id="3861"></path><path d="M194.412424 146.285929h48.761976v48.761977h-48.761976z" fill="#FFFF41" p-id="3862"></path><path d="M194.412424 195.0464h48.761976v48.761976h-48.761976z" fill="#FFFF41" p-id="3863"></path><path d="M194.412424 243.808376h48.761976v48.761977h-48.761976z" fill="#3A2802" p-id="3864"></path><path d="M194.412424 292.570353h48.761976v48.761976h-48.761976z" fill="#FFFF41" p-id="3865"></path><path d="M194.412424 341.332329h48.761976v48.761977h-48.761976zM194.412424 390.094306h48.761976v48.761976h-48.761976zM194.412424 438.856282h48.761976v48.761977h-48.761976zM194.412424 487.618259h48.761976v48.761976h-48.761976z" fill="#FF6800" p-id="3866"></path><path d="M194.412424 536.381741h48.761976v48.761977h-48.761976zM194.412424 585.143718h48.761976v48.761976h-48.761976z" fill="#3A2802" p-id="3867"></path><path d="M194.412424 633.905694h48.761976v48.761977h-48.761976zM194.412424 682.667671h48.761976v48.761976h-48.761976z" fill="#FF41C8" p-id="3868"></path><path d="M194.412424 731.429647h48.761976v48.761977h-48.761976z" fill="#A300F1" p-id="3869"></path><path d="M194.412424 780.191624h48.761976v48.761976h-48.761976zM194.412424 828.9536h48.761976v48.761976h-48.761976z" fill="#1D4AD8" p-id="3870"></path><path d="M194.412424 877.714071h48.761976v48.761976h-48.761976z" fill="#1D4AD8" p-id="3871"></path><path d="M194.412424 926.476047h48.761976v48.761977h-48.761976zM243.165365 0h48.761976v48.761976h-48.761976zM243.165365 48.761976h48.761976v48.761977h-48.761976z" fill="#3A2802" p-id="3872"></path><path d="M243.165365 97.523953h48.761976v48.761976h-48.761976zM243.165365 146.285929h48.761976v48.761977h-48.761976z" fill="#FFFF41" p-id="3873"></path><path d="M243.165365 195.0464h48.761976v48.761976h-48.761976zM243.165365 243.808376h48.761976v48.761977h-48.761976zM243.165365 292.570353h48.761976v48.761976h-48.761976zM243.165365 341.332329h48.761976v48.761977h-48.761976zM243.165365 390.094306h48.761976v48.761976h-48.761976z" fill="#FF6800" p-id="3874"></path><path d="M243.165365 438.856282h48.761976v48.761977h-48.761976zM243.165365 487.618259h48.761976v48.761976h-48.761976zM243.165365 536.381741h48.761976v48.761977h-48.761976z" fill="#FF41C8" p-id="3875"></path><path d="M243.165365 585.143718h48.761976v48.761976h-48.761976zM243.165365 633.905694h48.761976v48.761977h-48.761976z" fill="#3A2802" p-id="3876"></path><path d="M243.165365 682.667671h48.761976v48.761976h-48.761976z" fill="#FF41C8" p-id="3877"></path><path d="M243.165365 731.429647h48.761976v48.761977h-48.761976zM243.165365 780.191624h48.761976v48.761976h-48.761976z" fill="#A300F1" p-id="3878"></path><path d="M243.165365 828.9536h48.761976v48.761976h-48.761976z" fill="#1D4AD8" p-id="3879"></path><path d="M243.165365 877.714071h48.761976v48.761976h-48.761976zM243.165365 926.476047h48.761976v48.761977h-48.761976zM291.928847 0h48.761977v48.761976h-48.761977zM291.928847 48.761976h48.761977v48.761977h-48.761977zM291.928847 97.523953h48.761977v48.761976h-48.761977z" fill="#3A2802" p-id="3880"></path><path d="M291.928847 146.285929h48.761977v48.761977h-48.761977z" fill="#FFFF41" p-id="3881"></path><path d="M291.928847 195.0464h48.761977v48.761976h-48.761977zM291.928847 243.808376h48.761977v48.761977h-48.761977zM291.928847 292.570353h48.761977v48.761976h-48.761977z" fill="#FFFF41" p-id="3882"></path><path d="M291.928847 341.332329h48.761977v48.761977h-48.761977zM291.928847 390.094306h48.761977v48.761976h-48.761977zM291.928847 438.856282h48.761977v48.761977h-48.761977z" fill="#FF6800" p-id="3883"></path><path d="M291.928847 487.618259h48.761977v48.761976h-48.761977zM291.928847 536.381741h48.761977v48.761977h-48.761977zM291.928847 585.143718h48.761977v48.761976h-48.761977z" fill="#FF41C8" p-id="3884"></path><path d="M291.928847 633.905694h48.761977v48.761977h-48.761977zM291.928847 682.667671h48.761977v48.761976h-48.761977z" fill="#3A2802" p-id="3885"></path><path d="M291.928847 731.429647h48.761977v48.761977h-48.761977z" fill="#FF41C8" p-id="3886"></path><path d="M291.928847 780.191624h48.761977v48.761976h-48.761977z" fill="#A300F1" p-id="3887"></path><path d="M291.928847 828.9536h48.761977v48.761976h-48.761977z" fill="#3A2802" p-id="3888"></path><path d="M291.928847 877.714071h48.761977v48.761976h-48.761977zM291.928847 926.476047h48.761977v48.761977h-48.761977zM340.693835 48.761976h48.761977v48.761977h-48.761977zM340.693835 97.523953h48.761977v48.761976h-48.761977zM340.693835 146.285929h48.761977v48.761977h-48.761977z" fill="#3A2802" p-id="3889"></path><path d="M340.693835 195.0464h48.761977v48.761976h-48.761977zM340.693835 243.808376h48.761977v48.761977h-48.761977zM340.693835 292.570353h48.761977v48.761976h-48.761977z" fill="#3A2802" p-id="3890"></path><path d="M388.058353 292.570353h48.761976v48.761976h-48.761976zM388.058353 341.332329h48.761976v48.761977h-48.761976zM388.058353 390.094306h48.761976v48.761976h-48.761976z" fill="#3A2802" p-id="3891"></path><path d="M388.058353 438.856282h48.761976v48.761977h-48.761976z" fill="#FFFF41" p-id="3892"></path><path d="M388.058353 487.618259h48.761976v48.761976h-48.761976zM388.058353 536.381741h48.761976v48.761977h-48.761976z" fill="#FF6800" p-id="3893"></path><path d="M388.058353 585.143718h48.761976v48.761976h-48.761976zM388.058353 633.905694h48.761976v48.761977h-48.761976z" fill="#FF41C8" p-id="3894"></path><path d="M388.058353 682.667671h48.761976v48.761976h-48.761976z" fill="#3A2802" p-id="3895"></path><path d="M388.058353 731.429647h48.761976v48.761977h-48.761976zM388.058353 780.191624h48.761976v48.761976h-48.761976zM388.058353 877.714071h48.761976v48.761976h-48.761976zM388.058353 926.476047h48.761976v48.761977h-48.761976zM436.823341 341.332329h48.761977v48.761977h-48.761977zM436.823341 390.094306h48.761977v48.761976h-48.761977zM436.823341 438.856282h48.761977v48.761977h-48.761977zM436.823341 487.618259h48.761977v48.761976h-48.761977zM436.823341 536.381741h48.761977v48.761977h-48.761977zM436.823341 585.143718h48.761977v48.761976h-48.761977zM485.588329 585.143718h48.761977v48.761976h-48.761977zM485.588329 633.905694h48.761977v48.761977h-48.761977zM485.588329 682.667671h48.761977v48.761976h-48.761977z" fill="#3A2802" p-id="3896"></path><path d="M485.588329 731.429647h48.761977v48.761977h-48.761977zM485.588329 780.191624h48.761977v48.761976h-48.761977zM485.588329 828.9536h48.761977v48.761976h-48.761977zM534.353318 585.143718h48.761976v48.761976h-48.761976zM534.353318 633.905694h48.761976v48.761977h-48.761976z" fill="#3A2802" p-id="3897"></path><path d="M583.106259 633.905694H631.868235v48.761977h-48.761976zM631.871247 633.905694h48.761977v48.761977h-48.761977zM631.871247 585.143718h48.761977v48.761976h-48.761977z" fill="#3A2802" p-id="3898"></path><path d="M680.634729 585.143718h48.761977v48.761976h-48.761977z" fill="#FF6800" p-id="3899"></path><path d="M680.634729 536.381741h48.761977v48.761977h-48.761977zM680.634729 487.618259h48.761977v48.761976h-48.761977z" fill="#3A2802" p-id="3900"></path><path d="M729.399718 585.143718h48.761976v48.761976h-48.761976z" fill="#FF41C8" p-id="3901"></path><path d="M729.399718 536.381741h48.761976v48.761977h-48.761976z" fill="#FF6800" p-id="3902"></path><path d="M729.399718 487.618259h48.761976v48.761976h-48.761976z" fill="#FFFF41" p-id="3903"></path><path d="M729.399718 438.856282h48.761976v48.761977h-48.761976zM729.399718 390.094306h48.761976v48.761976h-48.761976z" fill="#3A2802" p-id="3904"></path><path d="M778.152659 585.143718h48.761976v48.761976h-48.761976zM778.152659 536.381741h48.761976v48.761977h-48.761976zM778.152659 487.618259h48.761976v48.761976h-48.761976z" fill="#FF6800" p-id="3905"></path><path d="M778.152659 438.856282h48.761976v48.761977h-48.761976z" fill="#FFFF41" p-id="3906"></path><path d="M778.152659 390.094306h48.761976v48.761976h-48.761976zM778.152659 341.332329h48.761976v48.761977h-48.761976z" fill="#3A2802" p-id="3907"></path><path d="M826.917647 585.143718h48.761977v48.761976h-48.761977zM826.917647 536.381741h48.761977v48.761977h-48.761977z" fill="#FF6800" p-id="3908"></path><path d="M826.917647 487.618259h48.761977v48.761976h-48.761977z" fill="#FFFF41" p-id="3909"></path><path d="M826.917647 438.856282h48.761977v48.761977h-48.761977z" fill="#FF6800" p-id="3910"></path><path d="M826.917647 390.094306h48.761977v48.761976h-48.761977z" fill="#FFFF41" p-id="3911"></path><path d="M826.917647 341.332329h48.761977v48.761977h-48.761977zM826.917647 292.570353h48.761977v48.761976h-48.761977z" fill="#3A2802" p-id="3912"></path><path d="M826.917647 633.905694h48.761977v48.761977h-48.761977z" fill="#FF41C8" p-id="3913"></path><path d="M875.682635 585.143718h48.761977v48.761976h-48.761977z" fill="#3A2802" p-id="3914"></path><path d="M875.682635 536.381741h48.761977v48.761977h-48.761977z" fill="#FFFF41" p-id="3915"></path><path d="M924.447624 536.381741h48.761976v48.761977h-48.761976z" fill="#3A2802" p-id="3916"></path><path d="M875.682635 487.618259h48.761977v48.761976h-48.761977z" fill="#FF6800" p-id="3917"></path><path d="M875.682635 438.856282h48.761977v48.761977h-48.761977zM875.682635 390.094306h48.761977v48.761976h-48.761977z" fill="#FFFF41" p-id="3918"></path><path d="M875.682635 341.332329h48.761977v48.761977h-48.761977zM875.682635 292.570353h48.761977v48.761976h-48.761977zM924.447624 487.618259h48.761976v48.761976h-48.761976z" fill="#3A2802" p-id="3919"></path><path d="M924.447624 438.856282h48.761976v48.761977h-48.761976z" fill="#FFFF41" p-id="3920"></path><path d="M973.200565 438.856282h48.761976v48.761977h-48.761976zM924.447624 390.094306h48.761976v48.761976h-48.761976z" fill="#3A2802" p-id="3921"></path><path d="M973.200565 390.094306h48.761976v48.761976h-48.761976zM924.447624 341.332329h48.761976v48.761977h-48.761976z" fill="#3A2802" p-id="3922"></path><path d="M973.200565 341.332329h48.761976v48.761977h-48.761976zM924.447624 292.570353h48.761976v48.761976h-48.761976z" fill="#3A2802" p-id="3923"></path><path d="M973.200565 292.570353h48.761976v48.761976h-48.761976z" fill="#3A2802" p-id="3924"></path><path d="M680.634729 633.905694h48.761977v48.761977h-48.761977zM729.399718 633.905694h48.761976v48.761977h-48.761976z" fill="#FF41C8" p-id="3925"></path><path d="M778.152659 633.905694h48.761976v48.761977h-48.761976zM534.353318 682.667671h48.761976v48.761976h-48.761976z" fill="#3A2802" p-id="3926"></path><path d="M583.106259 682.667671H631.868235v48.761976h-48.761976zM631.871247 682.667671h48.761977v48.761976h-48.761977zM680.634729 682.667671h48.761977v48.761976h-48.761977zM729.399718 682.667671h48.761976v48.761976h-48.761976z" fill="#3A2802" p-id="3927"></path><path d="M778.152659 682.667671h48.761976v48.761976h-48.761976zM534.353318 731.429647h48.761976v48.761977h-48.761976z" fill="#3A2802" p-id="3928"></path><path d="M583.106259 731.429647H631.868235v48.761977h-48.761976z" fill="#FF41C8" p-id="3929"></path><path d="M631.871247 731.429647h48.761977v48.761977h-48.761977z" fill="#A300F1" p-id="3930"></path><path d="M680.634729 731.429647h48.761977v48.761977h-48.761977zM729.399718 731.429647h48.761976v48.761977h-48.761976z" fill="#FF41C8" p-id="3931"></path><path d="M778.152659 731.429647h48.761976v48.761977h-48.761976zM534.353318 780.191624h48.761976v48.761976h-48.761976z" fill="#3A2802" p-id="3932"></path><path d="M583.106259 780.191624H631.868235v48.761976h-48.761976zM631.871247 780.191624h48.761977v48.761976h-48.761977zM680.634729 780.191624h48.761977v48.761976h-48.761977z" fill="#A300F1" p-id="3933"></path><path d="M729.399718 780.191624h48.761976v48.761976h-48.761976z" fill="#1D4AD8" p-id="3934"></path><path d="M778.152659 780.191624h48.761976v48.761976h-48.761976zM534.353318 828.9536h48.761976v48.761976h-48.761976z" fill="#3A2802" p-id="3935"></path><path d="M583.106259 828.9536H631.868235v48.761976h-48.761976z" fill="#1D4AD8" p-id="3936"></path><path d="M631.871247 828.9536h48.761977v48.761976h-48.761977z" fill="#A300F1" p-id="3937"></path><path d="M680.634729 828.9536h48.761977v48.761976h-48.761977z" fill="#1D4AD8" p-id="3938"></path><path d="M729.399718 828.9536h48.761976v48.761976h-48.761976z" fill="#3A2802" p-id="3939"></path><path d="M778.152659 828.9536h48.761976v48.761976h-48.761976zM534.353318 877.714071h48.761976v48.761976h-48.761976z" fill="#3A2802" p-id="3940"></path><path d="M583.106259 877.714071H631.868235v48.761976h-48.761976zM631.871247 877.714071h48.761977v48.761976h-48.761977z" fill="#1D4AD8" p-id="3941"></path><path d="M680.634729 877.714071h48.761977v48.761976h-48.761977zM729.399718 877.714071h48.761976v48.761976h-48.761976zM534.353318 926.476047h48.761976v48.761977h-48.761976z" fill="#3A2802" p-id="3942"></path><path d="M583.106259 926.476047H631.868235v48.761977h-48.761976zM631.871247 926.476047h48.761977v48.761977h-48.761977zM680.634729 926.476047h48.761977v48.761977h-48.761977zM534.353318 975.238024h48.761976V1024h-48.761976z" fill="#3A2802" p-id="3943"></path><path d="M583.106259 975.238024H631.868235V1024h-48.761976zM631.871247 975.238024h48.761977V1024h-48.761977zM534.353318 536.381741h48.761976v48.761977h-48.761976z" fill="#3A2802" p-id="3944"></path><path d="M583.106259 536.381741H631.868235v48.761977h-48.761976zM534.353318 487.618259h48.761976v48.761976h-48.761976z" fill="#3A2802" p-id="3945"></path><path d="M583.106259 487.618259H631.868235v48.761976h-48.761976zM436.823341 633.905694h48.761977v48.761977h-48.761977zM436.823341 682.667671h48.761977v48.761976h-48.761977z" fill="#3A2802" p-id="3946"></path><path d="M436.823341 731.429647h48.761977v48.761977h-48.761977zM436.823341 780.191624h48.761977v48.761976h-48.761977zM436.823341 828.9536h48.761977v48.761976h-48.761977z" fill="#3A2802" p-id="3947"></path><path d="M436.823341 877.714071h48.761977v48.761976h-48.761977zM388.058353 243.808376h48.761976v48.761977h-48.761976z" fill="#3A2802" p-id="3948"></path><path d="M340.693835 341.332329h48.761977v48.761977h-48.761977zM340.693835 390.094306h48.761977v48.761976h-48.761977z" fill="#FFFF41" p-id="3949"></path><path d="M340.693835 438.856282h48.761977v48.761977h-48.761977zM340.693835 487.618259h48.761977v48.761976h-48.761977z" fill="#FF6800" p-id="3950"></path><path d="M340.693835 536.381741h48.761977v48.761977h-48.761977zM340.693835 585.143718h48.761977v48.761976h-48.761977zM340.693835 633.905694h48.761977v48.761977h-48.761977z" fill="#FF41C8" p-id="3951"></path><path d="M340.693835 682.667671h48.761977v48.761976h-48.761977z" fill="#3A2802" p-id="3952"></path><path d="M340.693835 731.429647h48.761977v48.761977h-48.761977z" fill="#FF41C8" p-id="3953"></path><path d="M340.693835 780.191624h48.761977v48.761976h-48.761977zM340.693835 828.9536h48.761977v48.761976h-48.761977zM340.693835 926.476047h48.761977v48.761977h-48.761977zM145.647435 48.761976H194.409412v48.761977H145.647435zM145.647435 97.523953H194.409412v48.761976H145.647435zM145.647435 146.285929H194.409412v48.761977H145.647435z" fill="#3A2802" p-id="3954"></path><path d="M145.647435 195.0464H194.409412v48.761976H145.647435zM145.647435 243.808376H194.409412v48.761977H145.647435zM145.647435 292.570353H194.409412v48.761976H145.647435z" fill="#3A2802" p-id="3955"></path><path d="M98.282918 292.570353h48.761976v48.761976H98.282918zM98.282918 341.332329h48.761976v48.761977H98.282918zM98.282918 390.094306h48.761976v48.761976H98.282918zM98.282918 438.856282h48.761976v48.761977H98.282918zM49.517929 438.856282h48.761977v48.761977H49.517929zM49.517929 625.546541h48.761977v48.761977H49.517929zM49.517929 723.070494h48.761977v48.761977H49.517929zM0.752941 723.070494h48.761977v48.761977H0.752941zM49.517929 820.594447h48.761977v48.761977H49.517929zM0.752941 820.594447h48.761977v48.761977H0.752941zM98.282918 487.618259h48.761976v48.761976H98.282918zM49.517929 487.618259h48.761977v48.761976H49.517929zM49.517929 674.308518h48.761977v48.761976H49.517929zM0.752941 674.308518h48.761977v48.761976H0.752941zM49.517929 771.832471h48.761977v48.761976H49.517929zM0.752941 771.832471h48.761977v48.761976H0.752941zM49.517929 869.356424h48.761977v48.761976H49.517929zM98.282918 536.381741h48.761976v48.761977H98.282918zM98.282918 585.143718h48.761976v48.761976H98.282918zM98.282918 633.905694h48.761976v48.761977H98.282918z" fill="#3A2802" p-id="3956"></path><path d="M98.282918 682.667671h48.761976v48.761976H98.282918z" fill="#A300F1" p-id="3957"></path><path d="M98.282918 731.429647h48.761976v48.761977H98.282918zM98.282918 780.191624h48.761976v48.761976H98.282918zM98.282918 828.9536h48.761976v48.761976H98.282918z" fill="#1D4AD8" p-id="3958"></path><path d="M98.282918 877.714071h48.761976v48.761976H98.282918zM98.282918 926.476047h48.761976v48.761977H98.282918zM145.647435 341.332329H194.409412v48.761977H145.647435zM145.647435 390.094306H194.409412v48.761976H145.647435zM145.647435 438.856282H194.409412v48.761977H145.647435z" fill="#3A2802" p-id="3959"></path><path d="M145.647435 487.618259H194.409412v48.761976H145.647435z" fill="#FF41C8" p-id="3960"></path><path d="M145.647435 536.381741H194.409412v48.761977H145.647435zM145.647435 585.143718H194.409412v48.761976H145.647435z" fill="#3A2802" p-id="3961"></path><path d="M145.647435 633.905694H194.409412v48.761977H145.647435zM145.647435 682.667671H194.409412v48.761976H145.647435z" fill="#FF41C8" p-id="3962"></path><path d="M145.647435 731.429647H194.409412v48.761977H145.647435z" fill="#A300F1" p-id="3963"></path><path d="M145.647435 780.191624H194.409412v48.761976H145.647435zM145.647435 828.9536H194.409412v48.761976H145.647435z" fill="#1D4AD8" p-id="3964"></path><path d="M145.647435 877.714071H194.409412v48.761976H145.647435z" fill="#1D4AD8" p-id="3965"></path><path d="M145.647435 926.476047H194.409412v48.761977H145.647435z" fill="#3A2802" p-id="3966"></path></svg>