<svg t="1763800306175" class="icon" viewBox="0 0 1024 1024" version="1.1" xmlns="http://www.w3.org/2000/svg" p-id="11384" width="30" height="30"><path d="M383.98345724 696.11753073a507.69478539 507.69478539 0 0 1-16.75880542-126.18498547c-0.25579237-52.92254427 8.65283572-105.44816865 25.16466969-156.60662837v-0.07056338a11.20193842 11.20193842 0 0 0-3.0871486-11.78408653 541.47171728 541.47171728 0 0 0-26.78762749-22.68613114c-31.99167758-25.32343748-64.83011653-45.15175046-97.58917118-58.93807288-41.73824613-17.55264367-83.46767212-25.30579645-124.04162281-23.05658833a21.16901724 21.16901724 0 0 0-19.85477415 23.55053201c1.49065194 13.00130507 0.34399679 33.69401967-0.97906722 57.65029171-2.26684916 41.75588717-5.15112773 93.72582539 2.84899649 147.0364679 9.70246634 64.77719419 32.95310378 115.63575854 71.11025839 155.48643437 29.71600827 31.03025139 68.62289896 54.78365341 115.64457945 70.60749457 29.85713505 10.04646312 63.55115473 17.05869999 100.71160109 21.00142932a0.07938352 0.07938352 0 0 0 0.08820443-0.1146656 499.87106923 499.87106923 0 0 1-26.47009266-75.89092818zM893.16007446 181.87799097c-2.22274695-18.17007307-4.14559933-33.86160762-5.10702553-45.86620521a21.16901724 21.16901724 0 0 0-39.69190801-8.39704336c-0.36163705 0.65271149-4.27790597 6.72998334-28.77222312 19.73128842-18.40822517 9.77302972-42.47916203 20.48984458-70.35170224 32.90018142-55.13647032 24.54724028-123.75054915 55.08354799-183.26194922 94.60786807-72.17752927 47.88608213-116.22672679 98.99161871-134.6966952 156.21852937-0.76737708 2.39033489-1.50829221 4.78948992-2.23156709 7.18864571-12.77197389 43.09659144-19.66072504 87.16342999-19.40493344 131.46841984a465.3391091 465.3391091 0 0 0 15.30343631 115.65339959 454.47234732 454.47234732 0 0 0 26.25840175 73.94161463 0.07938352 0.07938352 0 0 0 0.14994766 0c1.5435743-28.375304 7.65612823-78.06957293 29.55724049-138.3659919 19.71364737-54.41319546 48.31828257-106.36549341 84.98478524-154.56028948 45.65451505-59.90831998 103.86931306-113.99515969 173.1802048-160.75222769a21.16901724 21.16901724 0 0 1 23.68283864 35.0964672c-65.46518698 44.19032427-120.33704482 95.07535057-163.1778439 151.30555295-34.07329778 44.75483134-60.62277395 92.97608935-78.88105222 143.33189066-30.87148435 85.04652848-27.39623677 146.27791171-27.34331442 146.88652099 0.19404911 3.07832768 3.14889107 60.65805602-10.68153357 95.75452322-4.62190198 11.72234327 1.59649664 25.22641294 13.70693891 28.67519781a21.16901724 21.16901724 0 0 0 25.42046205-12.50736063c19.05211576-47.63028978 17.51736236-88.20423969 10.24051222-118.2907067a0.07938352 0.07938352 0 0 1 0.07938429-0.09702455c55.7450796-2.23156709 105.73042297-11.21075855 149.06516573-26.82290957 51.55537805-18.57581312 94.96068498-46.93347608 128.99870067-84.27915142 29.62780386-32.52090334 52.74613543-72.48624476 68.62289895-118.82875182 13.33648095-38.90689067 21.93639433-83.37064757 25.57922985-132.13877237 6.43008877-87.75439823-4.19852168-174.46798674-11.2283996-231.85366518z" fill="#6366f1" p-id="11385"></path></svg>