<svg t="1750930356732" class="icon" viewBox="0 0 1024 1024" version="1.1" xmlns="http://www.w3.org/2000/svg" p-id="7706" width="64" height="64"><path d="M512 85.333333C276.352 85.333333 85.333333 276.352 85.333333 512s191.018667 426.666667 426.666667 426.666667 426.666667-191.018667 426.666667-426.666667S747.648 85.333333 512 85.333333zM0 512C0 229.226667 229.226667 0 512 0s512 229.226667 512 512-229.226667 512-512 512S0 794.773333 0 512z" p-id="7707" data-spm-anchor-id="a313x.search_index.0.i3.21af3a819W3wVY" class="selected" fill="#8a8a8a"></path><path d="M409.237333 970.069333c-4.117333-5.333333-4.117333-52.8 0-142.378666-44.202667 1.536-72.106667-1.536-83.776-9.194667-17.472-11.498667-34.986667-46.933333-50.496-71.914667-15.530667-24.96-49.984-28.928-63.893333-34.517333-13.909333-5.568-17.408-28.330667 38.336-11.136 55.744 17.216 58.453333 64.106667 76.053333 75.050667 17.6 10.965333 59.648 6.186667 78.698667-2.602667 19.050667-8.789333 17.642667-41.472 21.056-54.421333 4.288-12.096-10.858667-14.784-11.178667-14.869334-18.624 0-116.352-21.269333-143.210666-115.904-26.837333-94.656 7.744-156.522667 26.197333-183.125333 12.288-17.706667 11.2-55.509333-3.264-113.344 52.544-6.72 93.12 9.813333 121.664 49.621333 0.042667 0.213333 37.461333-22.250667 96.576-22.250666 59.136 0 80.106667 18.304 96.298667 22.250666 16.213333 3.946667 29.141333-69.674667 129.130666-49.621333-20.885333 41.024-38.357333 92.288-25.024 113.365333 13.354667 21.056 65.706667 88.042667 33.557334 183.104-21.461333 63.36-63.616 101.994667-126.485334 115.904-7.189333 2.304-10.794667 6.016-10.794666 11.136 0 7.68 9.728 8.512 23.765333 44.501334 9.386667 23.978667 10.048 92.501333 2.048 205.546666-20.288 5.162667-36.074667 8.64-47.36 10.410667-19.989333 3.136-41.706667 4.906667-63.04 5.568-21.333333 0.682667-28.736 0.618667-58.24-2.133333a422.378667 422.378667 0 0 1-56.618667-9.045334z" p-id="7708" data-spm-anchor-id="a313x.search_index.0.i2.21af3a819W3wVY" class="selected" fill="#8a8a8a"></path></svg>