<?xml version="1.0" standalone="no"?><!DOCTYPE svg PUBLIC "-//W3C//DTD SVG 1.1//EN" "http://www.w3.org/Graphics/SVG/1.1/DTD/svg11.dtd"><svg t="1750667916895" class="icon" viewBox="0 0 1024 1024" version="1.1" xmlns="http://www.w3.org/2000/svg" p-id="25551" xmlns:xlink="http://www.w3.org/1999/xlink" width="64" height="64"><path d="M256 448V320h128V256H320V192H128v256z" fill="#FDFEFD" p-id="25552"></path><path d="M320 256h64v64h256V192H384V64H128v128h192zM640 64h256v128h-256zM960 448v64h-64v64h128V192h-128v256zM128 576h128v128H128zM704 768H384v-64H256v128h128v128h256v-128h128v-128h-64zM832 576h64v128h-64zM128 192H0v384h128V448z" fill="#d81e06" p-id="25553"></path><path d="M896 576V512h64V448h-64V192h-256v128H256v128H128v128h128v128h128v64h320v-64h128V576z" fill="#f84552" p-id="25554"></path></svg>