<svg t="1766567122119" class="icon" viewBox="0 0 1024 1024" version="1.1" xmlns="http://www.w3.org/2000/svg" p-id="8585" width="30" height="30"><path d="M677.92 996H382.56c-117.12 0-175.84 0-226.24-25.6-44.48-22.72-80-58.24-102.72-102.72-25.6-50.24-25.6-109.12-25.6-226.24V382.56c0-117.12 0-175.84 25.6-226.24 22.72-44.48 58.24-80 102.72-102.72 50.24-25.6 109.12-25.6 226.24-25.6H512c19.84 0 36 16.16 36 36S531.84 100 512 100h-129.44c-105.6 0-158.56 0-193.6 17.76-30.88 15.68-55.52 40.48-71.36 71.36-17.76 34.88-17.76 88-17.76 193.6V641.6c0 105.6 0 158.72 17.76 193.6 15.68 30.88 40.32 55.52 71.36 71.36 34.88 17.76 88 17.76 193.6 17.76h295.36c73.12 0 109.92 0 135.36-8.64 47.68-16.16 85.92-54.4 102.08-102.08 8.64-25.44 8.64-62.24 8.64-135.36 0-36.16 0-64.8-3.68-72.8a38.48 38.48 0 0 0-39.36-21.76c-8.64 0.96-32.8 16.16-63.52 35.2l-142.56 89.12a191.2 191.2 0 0 1-221.76-13.76c-48.64-39.52-120.16-34.4-162.72 11.68l-50.56 54.72c-13.44 14.56-36.16 15.52-50.88 2.08-14.56-13.44-15.52-36.16-2.08-50.72l50.56-54.72c68.32-73.92 182.88-82.08 260.96-18.72a119.424 119.424 0 0 0 138.4 8.64l142.4-88.96c45.76-28.64 68.8-43.04 93.6-45.76a110.688 110.688 0 0 1 112.64 62.4c10.72 22.56 10.72 49.6 10.72 103.52 0 81.12 0 121.76-12.48 158.56-23.36 68.8-78.24 123.68-147.04 147.04-36.8 12.48-77.44 12.48-158.56 12.48z" fill="#3366FF" p-id="8586"></path><path d="M800 416c-15.84 0-29.6-11.2-32.8-26.72-13.6-66.88-65.6-118.88-132.48-132.48C619.2 253.6 608 239.84 608 224s11.2-29.6 26.72-32.8c66.88-13.6 118.88-65.76 132.64-132.48 3.2-15.52 16.96-26.72 32.8-26.72s29.6 11.2 32.8 26.72c13.6 66.88 65.6 118.88 132.48 132.48 15.52 3.2 26.72 16.96 26.72 32.8s-11.2 29.6-26.72 32.8c-66.88 13.6-118.88 65.6-132.64 132.48-3.2 15.52-16.96 26.72-32.8 26.72z m-76.64-192A233.92 233.92 0 0 1 800 300.64 233.92 233.92 0 0 1 876.64 224 233.92 233.92 0 0 1 800 147.36 233.92 233.92 0 0 1 723.36 224z m106.56-152.48zM545.44 331.84c3.2-15.84 25.92-15.84 29.12 0 7.2 35.04 34.56 62.4 69.6 69.6 15.84 3.2 15.84 25.92 0 29.12-35.04 7.2-62.4 34.56-69.6 69.6-3.2 15.84-25.92 15.84-29.12 0a89.408 89.408 0 0 0-69.6-69.6c-15.84-3.2-15.84-25.92 0-29.12 35.04-7.2 62.4-34.56 69.6-69.6z" fill="#FF9933" p-id="8587"></path><path d="M288 426.72c-2.72 0-5.6-0.32-8.32-0.8-2.72-0.64-5.44-1.44-8-2.56a40.16 40.16 0 0 1-7.36-3.84c-2.4-1.6-4.48-3.36-6.56-5.28-1.92-2.08-3.68-4.16-5.28-6.56-1.44-2.24-2.88-4.8-3.84-7.36-1.12-2.56-1.92-5.28-2.4-8a36.896 36.896 0 0 1 0-16.64c0.48-2.72 1.28-5.44 2.4-8 0.96-2.56 2.4-5.12 3.84-7.36 1.6-2.4 3.36-4.48 5.28-6.56 2.08-1.92 4.16-3.68 6.56-5.28 2.24-1.44 4.8-2.88 7.36-3.84 2.56-1.12 5.28-1.92 8-2.4 5.44-1.12 11.2-1.12 16.64 0 2.72 0.48 5.44 1.28 8 2.4 2.56 0.96 5.12 2.4 7.36 3.84 2.4 1.6 4.48 3.36 6.56 5.28 1.92 2.08 3.68 4.16 5.28 6.56 1.44 2.24 2.88 4.8 3.84 7.36 1.12 2.56 1.92 5.28 2.56 8 0.48 2.72 0.8 5.6 0.8 8.32 0 11.2-4.64 22.24-12.48 30.24-2.08 1.92-4.16 3.68-6.56 5.28-2.24 1.44-4.8 2.88-7.36 3.84-2.56 1.12-5.28 1.92-8 2.56-2.72 0.48-5.6 0.8-8.32 0.8z" fill="#3366FF" p-id="8588"></path></svg>