<svg t="1753172615259" class="icon" viewBox="0 0 1024 1024" version="1.1" xmlns="http://www.w3.org/2000/svg" p-id="10302" width="64" height="64"><path d="M741.888 224.085333C555.633778 375.580444 491.576889 512.512 483.555556 568.888889l0.056888 85.333333c-34.702222 173.511111 25.827556 124.757333 129.934223 41.016889 45.397333-36.522667 99.100444-79.758222 156.842666-114.062222 11.605333 86.755556 27.648 172.373333 49.664 243.484444 12.515556 40.391111-16.384 85.560889-58.709333 85.560889h-449.991111c-86.186667 0-165.774222-48.924444-187.164445-132.380444-44.771556-175.559111-59.733333-412.103111-64.739555-550.343111C57.116444 164.693333 107.861333 113.777778 170.666667 113.777778h455.111111c61.724444 0 112.184889 49.095111 116.110222 110.307555zM199.111111 284.444444a28.444444 28.444444 0 0 0 0 56.888889h227.555556a28.444444 28.444444 0 0 0 0-56.888889h-227.555556z m56.888889 170.666667a28.444444 28.444444 0 0 0 0 56.888889h113.777778a28.444444 28.444444 0 0 0 0-56.888889h-113.777778z m284.444444 170.666667c9.500444-66.389333 96.711111-244.622222 369.777778-426.666667 45.511111-22.755556 75.832889-66.389333 85.333334-85.333333 37.944889 66.389333 62.577778 227.555556-142.222223 341.333333s-312.888889 218.055111-341.333333 256l28.444444-85.333333z" fill="#505E78" p-id="10303"></path></svg>