<svg t="1753940381406" class="icon" viewBox="0 0 1024 1024" version="1.1" xmlns="http://www.w3.org/2000/svg" p-id="17992" width="200" height="200"><path d="M512 0c282.774588 0 512 229.225412 512 512s-229.225412 512-512 512S0 794.774588 0 512 229.225412 0 512 0z m-111.796706 280.606118a21.232941 21.232941 0 0 0-28.250353-6.776471 20.570353 20.570353 0 0 0-8.192 27.467294c113.513412 216.576 10.480941 414.177882 7.198118 420.321883a20.48 20.48 0 0 0 6.083765 27.617882 21.142588 21.142588 0 0 0 28.702117-4.517647c0.060235-0.120471 0.391529-0.602353 0.873412-1.566118h0.150588l21.323294-33.340235c60.235294-91.015529 157.244235-144.564706 158.208-145.136941a20.570353 20.570353 0 0 0 8.252236-28.16 21.232941 21.232941 0 0 0-28.581647-8.131765c-3.192471 1.807059-61.199059 33.671529-117.940706 91.376941 11.535059-57.344 16.655059-130.349176-0.572236-210.221176 77.914353 72.944941 186.398118 116.434824 313.22353 124.265411a20.992 20.992 0 0 0 22.347294-19.395764 20.781176 20.781176 0 0 0-19.666824-21.955765c-145.498353-9.005176-264.011294-68.276706-333.342117-166.128941z" fill="#FF5E5E" p-id="17993"></path></svg>
