<?xml version="1.0" standalone="no"?><!DOCTYPE svg PUBLIC "-//W3C//DTD SVG 1.1//EN" "http://www.w3.org/Graphics/SVG/1.1/DTD/svg11.dtd"><svg t="1750930663721" class="icon" viewBox="0 0 1024 1024" version="1.1" xmlns="http://www.w3.org/2000/svg" p-id="10586" xmlns:xlink="http://www.w3.org/1999/xlink" width="64" height="64"><path d="M218.978 0L365.49 0l0 144.935L218.98 144.935 218.98 0zM365.49 144.935L512 144.93499999l0 146.51100001L365.49 291.446l0-146.51zM512 291.446l146.51 0 0 146.51L512 437.95599999l0-146.50999999z m0 293.022l146.51 0 0 146.51L512 730.978l0-146.51z m-146.51 146.51L512 730.978 512 877.49000001 365.49 877.49 365.49 730.98zM218.977 877.49L365.49 877.49 365.49 1024 218.98 1024 218.98 877.49z m439.533-439.532l146.51 0 0 146.51-146.51 0 0-146.51z" fill="#FD4C5D" p-id="10587"></path></svg>