<svg t="1756953474555" class="icon" viewBox="0 0 1024 1024" version="1.1" xmlns="http://www.w3.org/2000/svg" p-id="19642" width="48" height="48"><path d="M763.328 64H261.44A133.76 133.76 0 0 0 128 198.016v661.888c-0.064 18.432 5.12 36.48 15.04 52.032a101.12 101.12 0 0 0 137.472 33.984l217.088-132.992c10.624-7.04 24.32-7.04 34.88 0l211.2 131.008c15.36 9.984 33.408 15.232 51.712 15.168A101.12 101.12 0 0 0 896 858.112V198.144a133.312 133.312 0 0 0-38.4-94.912 131.2 131.2 0 0 0-94.08-39.04L763.328 64z m67.776 793.92a34.24 34.24 0 0 1-33.92 33.92 30.72 30.72 0 0 1-16.896-4.928l-211.2-131.008a96.896 96.896 0 0 0-103.552 0l-217.088 132.992a30.912 30.912 0 0 1-44.8-12.16 36.992 36.992 0 0 1-4.992-16.96V197.824c0-17.792 7.04-34.88 19.584-47.424 12.48-12.544 29.44-19.584 47.104-19.584h501.888c17.664 0 34.624 7.04 47.168 19.584 12.48 12.608 19.52 29.632 19.584 47.424v659.968l-2.88 0.128z m-184.32-592H378.88a33.92 33.92 0 0 0-33.728 34.048 33.92 33.92 0 0 0 33.728 33.984h267.968a34.304 34.304 0 0 0 33.856-33.92 34.944 34.944 0 0 0-33.92-34.048z" fill="#ffffff" p-id="19643"></path></svg>
