<?xml version="1.0" standalone="no"?><!DOCTYPE svg PUBLIC "-//W3C//DTD SVG 1.1//EN" "http://www.w3.org/Graphics/SVG/1.1/DTD/svg11.dtd"><svg t="1751392424441" class="icon" viewBox="0 0 1091 1024" version="1.1" xmlns="http://www.w3.org/2000/svg" p-id="33118" xmlns:xlink="http://www.w3.org/1999/xlink" width="68.1875" height="64"><path d="M665.672292 104.111326c0 10.683424-5.333703 16.017127-16.017127 16.017127-85.899853-32.626888-171.335208-37.960591-256.274034-16.017127-47.907227-5.34972-85.275185 10.667407-112.119889 48.051381-70.763667 21.302779-97.464218 69.35416-80.085636 144.154144 26.892756-3.443682 42.909883 7.239741 48.051382 32.034254a4860.205007 4860.205007 0 0 0-64.068509 48.051381c-26.636482 31.057209-37.319906 68.425167-32.034254 112.11989-9.882567-1.761884-17.891131-7.111604-24.02569-16.017127a135.08845 135.08845 0 0 0-8.008564 64.068508h-48.051381c-3.796059-284.464177 135.024381-444.635448 416.445304-480.513812 65.269793-5.782183 123.988581 10.234944 176.188398 48.051381z" fill="#EABA3B" opacity=".635" p-id="33119"></path><path d="M873.894944 216.231216c-1.761884-9.882567-7.111604-17.891131-16.017127-24.025691a1420.158573 1420.158573 0 0 1-192.205525-24.025691c-14.479483-11.356143-19.813186-27.37327-16.017127-48.051381 10.683424 0 16.017127-5.333703 16.017127-16.017127 27.853784-58.750822 65.221741-64.084525 112.119889-16.017127 68.29703-47.234508 110.998691-28.54252 128.137017 56.059945-0.400428 30.04813-11.067835 54.073821-32.034254 72.077072z" fill="#EA513F" p-id="33120"></path><path d="M649.655165 120.128453c-3.796059 20.678111 1.537644 36.695238 16.017127 48.051381-4.965309 26.332157-20.982436 42.349284-48.051382 48.051382-34.917337-3.459699-61.617888 9.882567-80.085635 40.042817-128.889822 23.320937-176.941203-27.389287-144.154144-152.162707 84.938825-21.943464 170.374181-16.609761 256.274034 16.017127z" fill="#FAECB4" p-id="33121"></path><path d="M313.295496 200.214088c32.867145 8.857471 38.200848 24.874598 16.017127 48.051382-38.985687-11.564366-76.353645-11.564366-112.11989 0 19.572929-39.690441 51.607183-55.707568 96.102763-48.051382z" fill="#C85615" p-id="33122"></path><path d="M393.381131 104.111326c-32.787059 124.77342 15.264322 175.483644 144.154144 152.162707 18.467748-30.16025 45.168298-43.502517 80.085635-40.042817v16.017127c6.679142 11.564366 17.362566 19.572929 32.034255 24.02569-111.799547 119.263528-218.585733 116.604685-320.342542-8.008563 22.183721-23.176783 16.850018-39.19391-16.017127-48.051382-12.205051-12.301154-28.222178-20.309717-48.051381-24.02569 8.905523-6.13456 14.255243-14.143123 16.017127-24.025691 26.844705-37.383975 64.212662-53.401102 112.119889-48.051381z" fill="#F9E79E" p-id="33123"></path><path d="M665.672292 168.179834a1420.158573 1420.158573 0 0 0 192.205525 24.025691c8.905523 6.13456 14.255243 14.143123 16.017127 24.025691-5.333703 16.017127-16.017127 26.700551-32.034254 32.034254-16.017127 5.333703-26.700551 16.017127-32.034255 32.034254a91.746104 91.746104 0 0 1-48.051381 16.017127c-29.567617-67.592276-77.618998-88.959124-144.154144-64.068508v-16.017127c27.068945-5.702097 43.086072-21.719224 48.051382-48.051382z" fill="#DB2929" p-id="33124"></path><path d="M281.261242 152.162707c-1.761884 9.882567-7.111604 17.891131-16.017127 24.025691 19.829203 3.715973 35.84633 11.724537 48.051381 24.02569-44.495579-7.656187-76.529833 8.36094-96.102763 48.051382 35.766245-11.564366 73.134202-11.564366 112.11989 0 101.756808 124.613249 208.542995 127.272092 320.342542 8.008563-14.671688-4.452761-25.355112-12.461325-32.034255-24.02569 66.535146-24.890615 114.586527-3.523768 144.154144 64.068508-19.380724 6.919399-35.397851 17.602823-48.051381 32.034254a295.291755 295.291755 0 0 0-96.102763 8.008564c-12.04488 10.731475-17.3946 24.089759-16.017127 40.042817-26.684534 37.287872-64.068508 53.304999-112.119889 48.051382a547.913883 547.913883 0 0 1-128.137017-24.025691c19.829203-11.051818 19.829203-19.060381 0-24.025691 1.377473-15.953059-3.972248-29.311343-16.017127-40.042817a295.291755 295.291755 0 0 0-96.102762-8.008564c-5.141498-24.794513-21.158625-35.477936-48.051382-32.034254-17.378583-74.799983 9.321968-122.851365 80.085636-144.154144z" fill="#F6DE83" p-id="33125"></path><path d="M713.723673 328.351105l80.085635 32.034254c2.082227 14.031003-3.251477 24.714427-16.017127 32.034254-29.199223-19.973357-61.233477-30.656781-96.102762-32.034254a331.186137 331.186137 0 0 0-80.085636 16.017127c-1.377473-15.953059 3.972248-29.311343 16.017127-40.042817a295.291755 295.291755 0 0 1 96.102763-8.008564z" fill="#7D311F" p-id="33126"></path><path d="M249.226988 328.351105a295.291755 295.291755 0 0 1 96.102762 8.008564c12.04488 10.731475 17.3946 24.089759 16.017127 40.042817h-16.017127c-55.819688-24.890615-106.545929-14.207192-152.162707 32.034255a38.889585 38.889585 0 0 1-8.008564-32.034255 4860.205007 4860.205007 0 0 1 64.068509-48.051381z" fill="#79301D" p-id="33127"></path><path d="M681.689419 360.385359a261.527651 261.527651 0 0 0-32.034254 80.085636c-28.782777 19.701066-60.817032 30.368473-96.102763 32.034254h-128.137017v48.051381c-14.479483-11.356143-19.813186-27.37327-16.017127-48.051381l-96.102762-16.017127c3.411648-26.332157-1.922055-50.357848-16.017127-72.077072a78.996471 78.996471 0 0 1 48.051381-8.008564h16.017127c19.829203 4.965309 19.829203 12.973873 0 24.025691a547.913883 547.913883 0 0 0 128.137017 24.025691c48.051381 5.253618 85.435356-10.763509 112.119889-48.051382a331.186137 331.186137 0 0 1 80.085636-16.017127z" fill="#F5DB72" p-id="33128"></path><path d="M841.86069 248.26547c69.35416 137.65119 74.703881 276.455613 16.017127 416.445304a91.746104 91.746104 0 0 0-48.051382 16.017127c41.64453-103.054196 55.002814-209.840382 40.042818-320.342542a620.311298 620.311298 0 0 0-40.042818-80.085635c5.333703-16.017127 16.017127-26.700551 32.034255-32.034254z" fill="#E39526" opacity=".91" p-id="33129"></path><path d="M345.32975 376.402486a78.996471 78.996471 0 0 0-48.051381 8.008564c14.095072 21.719224 19.428775 45.744915 16.017127 72.077072-42.445387 70.427308-95.846488 81.110732-160.171271 32.034254-5.285652-43.694723 5.397772-81.06268 32.034254-112.11989a38.889585 38.889585 0 0 0 8.008564 32.034255c45.616778-46.241446 96.343019-56.92487 152.162707-32.034255z" fill="#F0A34D" p-id="33130"></path><path d="M681.689419 360.385359c34.869286 1.377473 66.90354 12.060897 96.102762 32.034254 12.76565-7.319827 18.099354-18.003251 16.017127-32.034254 61.425682 47.314593 61.425682 98.040835 0 152.162708-70.395274 16.769932-118.446655-7.255759-144.154143-72.077072a261.527651 261.527651 0 0 1 32.034254-80.085636z" fill="#F1AB4E" p-id="33131"></path><path d="M809.826435 280.299724a620.311298 620.311298 0 0 1 40.042818 80.085635c14.959997 110.50216 1.601713 217.288346-40.042818 320.342542-100.427387-43.246243-148.478768-11.211989-144.154143 96.102762-160.539665 78.900368-304.693808 57.549538-432.462431-64.068508a313.423143 313.423143 0 0 1 56.059944-64.068508c12.589462-107.635094-27.453356-134.351662-120.128453-80.085636a2976.702982 2976.702982 0 0 0-48.051381-32.034254 135.08845 135.08845 0 0 1 8.008564-64.068508c6.13456 8.905523 14.143123 14.255243 24.02569 16.017127 64.324782 49.076477 117.725884 38.393054 160.171271-32.034254l96.102762 16.017127c-3.796059 20.678111 1.537644 36.695238 16.017127 48.051381 8.537129 48.051381 35.23768 72.077072 80.085636 72.077072 30.064148-34.052412 46.081275-74.09523 48.051381-120.128453 35.285731-1.665781 67.319985-12.333188 96.102763-32.034254 25.707489 64.821313 73.75887 88.847004 144.154143 72.077072 61.425682-54.121872 61.425682-104.848114 0-152.162708l-80.085635-32.034254c12.65353-14.431431 28.670657-25.114855 48.051381-32.034254a91.746104 91.746104 0 0 0 48.051381-16.017127z" fill="#F3D24E" p-id="33132"></path><path d="M553.552402 472.505249c-1.970107 46.033223-17.987234 86.076041-48.051381 120.128453-44.847956 0-71.548507-24.025691-80.085636-72.077072v-48.051381h128.137017z" fill="#7B2D1E" p-id="33133"></path><path d="M73.03859 536.573757h48.051381c15.728819 10.250961 31.745946 20.934385 48.051381 32.034254 92.675097-54.266027 132.717915-27.549459 120.128453 80.085636a313.423143 313.423143 0 0 0-56.059944 64.068508c-10.683424 0-16.017127 5.333703-16.017128 16.017127-16.017127 5.333703-26.700551 16.017127-32.034254 32.034254-61.858145-16.401538-107.234666-53.769496-136.14558-112.119889-13.342267-42.781746-5.333703-80.149704 24.025691-112.11989z" fill="#E44036" p-id="33134"></path><path d="M809.826435 680.727901a91.746104 91.746104 0 0 1 48.051382-16.017127c44.799904 7.479998 66.150735 34.164532 64.068508 80.085635-80.614201 4.51683-155.366133 20.533957-224.239779 48.051381h-16.017127c0-10.683424-5.333703-16.017127-16.017127-16.017127-4.324624-107.314751 43.726757-139.349006 144.154143-96.102762z" fill="#EB5341" p-id="33135"></path><path d="M233.209861 712.762155c127.768623 121.618046 271.922766 142.968876 432.462431 64.068508 10.683424 0 16.017127 5.333703 16.017127 16.017127-137.138642 65.478016-275.959082 62.803155-416.445304-8.008563a235.323631 235.323631 0 0 1-48.051382-56.059945c0-10.683424 5.333703-16.017127 16.017128-16.017127z" fill="#EA9C35" p-id="33136"></path><path d="M921.946325 744.796409c-35.878365 57.405383-78.580025 110.790468-128.137017 160.171271-32.354597-27.068945-64.388851-53.753478-96.102762-80.085635v-32.034255c68.873646-27.517424 143.625579-43.534551 224.239779-48.051381z" fill="#DE322E" p-id="33137"></path><path d="M217.192733 728.779282c12.65353 20.726162 28.670657 39.402133 48.051382 56.059945 140.486222 70.811719 279.306662 73.486579 416.445304 8.008563h16.017127v32.034255c-186.086982 99.146017-356.92566 77.795186-512.548067-64.068509 5.333703-16.017127 16.017127-26.700551 32.034254-32.034254z" fill="#E36F21" opacity=".955" p-id="33138"></path></svg>