<svg t="1750669252042" class="icon" viewBox="0 0 1024 1024" version="1.1" xmlns="http://www.w3.org/2000/svg" p-id="62555" width="64" height="64"><path d="M945.230769 393.846154h78.769231v78.769231h-78.769231zM866.461538 393.846154h78.769231v78.769231h-78.769231z" fill="#FF9343" p-id="62556"></path><path d="M787.692308 630.153846h78.76923v78.769231h-78.76923zM787.692308 551.384615h78.76923v78.769231h-78.76923zM787.692308 472.615385h78.76923v78.76923h-78.76923z" fill="#1E2028" p-id="62557"></path><path d="M787.692308 393.846154h78.76923v78.769231h-78.76923z" fill="#FF9343" p-id="62558"></path><path d="M787.692308 315.076923h78.76923v78.769231h-78.76923zM787.692308 236.307692h78.76923v78.769231h-78.76923zM787.692308 157.538462h78.76923v78.76923h-78.76923zM708.923077 708.923077h78.769231v78.769231h-78.769231z" fill="#1E2028" p-id="62559"></path><path d="M708.923077 630.153846h78.769231v78.769231h-78.769231z" fill="#FF9B57" p-id="62560"></path><path d="M708.923077 551.384615h78.769231v78.769231h-78.769231zM708.923077 472.615385h78.769231v78.76923h-78.769231z" fill="#FFDD4D" p-id="62561"></path><path d="M708.923077 393.846154h78.769231v78.769231h-78.769231z" fill="#FF9343" p-id="62562"></path><path d="M708.923077 315.076923h78.769231v78.769231h-78.769231zM708.923077 236.307692h78.769231v78.769231h-78.769231zM708.923077 157.538462h78.769231v78.76923h-78.769231z" fill="#FFDD4D" p-id="62563"></path><path d="M708.923077 78.769231h78.769231v78.769231h-78.769231zM630.153846 945.230769h78.769231v78.769231h-78.769231zM630.153846 866.461538h78.769231v78.769231h-78.769231zM630.153846 787.692308h78.769231v78.76923h-78.769231z" fill="#1E2028" p-id="62564"></path><path d="M630.153846 708.923077h78.769231v78.769231h-78.769231z" fill="#FF9B57" p-id="62565"></path><path d="M630.153846 630.153846h78.769231v78.769231h-78.769231zM630.153846 551.384615h78.769231v78.769231h-78.769231zM630.153846 472.615385h78.769231v78.76923h-78.769231zM630.153846 393.846154h78.769231v78.769231h-78.769231z" fill="#FFDD4D" p-id="62566"></path><path d="M630.153846 315.076923h78.769231v78.769231h-78.769231zM630.153846 236.307692h78.769231v78.769231h-78.769231z" fill="#1E2028" p-id="62567"></path><path d="M630.153846 157.538462h78.769231v78.76923h-78.769231zM630.153846 78.769231h78.769231v78.769231h-78.769231z" fill="#FFDD4D" p-id="62568"></path><path d="M630.153846 0h78.769231v78.769231h-78.769231zM551.384615 787.692308h78.769231v78.76923h-78.769231z" fill="#1E2028" p-id="62569"></path><path d="M551.384615 708.923077h78.769231v78.769231h-78.769231z" fill="#FF9B57" p-id="62570"></path><path d="M551.384615 630.153846h78.769231v78.769231h-78.769231zM551.384615 551.384615h78.769231v78.769231h-78.769231zM551.384615 472.615385h78.769231v78.76923h-78.769231zM551.384615 393.846154h78.769231v78.769231h-78.769231zM551.384615 315.076923h78.769231v78.769231h-78.769231zM551.384615 236.307692h78.769231v78.769231h-78.769231zM551.384615 157.538462h78.769231v78.76923h-78.769231zM551.384615 78.769231h78.769231v78.769231h-78.769231z" fill="#FFDD4D" p-id="62571"></path><path d="M551.384615 0h78.769231v78.769231h-78.769231zM472.615385 787.692308h78.76923v78.76923h-78.76923z" fill="#1E2028" p-id="62572"></path><path d="M472.615385 708.923077h78.76923v78.769231h-78.76923z" fill="#FF9B57" p-id="62573"></path><path d="M472.615385 630.153846h78.76923v78.769231h-78.76923zM472.615385 551.384615h78.76923v78.769231h-78.76923z" fill="#1E2028" p-id="62574"></path><path d="M472.615385 472.615385h78.76923v78.76923h-78.76923zM472.615385 393.846154h78.76923v78.769231h-78.76923zM472.615385 315.076923h78.76923v78.769231h-78.76923zM472.615385 236.307692h78.76923v78.769231h-78.76923zM472.615385 157.538462h78.76923v78.76923h-78.76923zM472.615385 78.769231h78.76923v78.769231h-78.76923z" fill="#FFDD4D" p-id="62575"></path><path d="M472.615385 0h78.76923v78.769231h-78.76923zM393.846154 945.230769h78.769231v78.769231h-78.769231zM393.846154 866.461538h78.769231v78.769231h-78.769231zM393.846154 787.692308h78.769231v78.76923h-78.769231z" fill="#1E2028" p-id="62576"></path><path d="M393.846154 708.923077h78.769231v78.769231h-78.769231z" fill="#FF9B57" p-id="62577"></path><path d="M393.846154 630.153846h78.769231v78.769231h-78.769231z" fill="#1E2028" p-id="62578"></path><path d="M393.846154 551.384615h78.769231v78.769231h-78.769231zM393.846154 472.615385h78.769231v78.76923h-78.769231zM393.846154 393.846154h78.769231v78.769231h-78.769231zM393.846154 315.076923h78.769231v78.769231h-78.769231zM393.846154 236.307692h78.769231v78.769231h-78.769231zM393.846154 157.538462h78.769231v78.76923h-78.769231z" fill="#FFDD4D" p-id="62579"></path><path d="M393.846154 78.769231h78.769231v78.769231h-78.769231z" fill="#FFF1B6" p-id="62580"></path><path d="M393.846154 0h78.769231v78.769231h-78.769231zM315.076923 787.692308h78.769231v78.76923h-78.769231z" fill="#1E2028" p-id="62581"></path><path d="M315.076923 708.923077h78.769231v78.769231h-78.769231z" fill="#FF9B57" p-id="62582"></path><path d="M315.076923 630.153846h78.769231v78.769231h-78.769231z" fill="#1E2028" p-id="62583"></path><path d="M315.076923 551.384615h78.769231v78.769231h-78.769231z" fill="#FFF1B6" p-id="62584"></path><path d="M315.076923 472.615385h78.769231v78.76923h-78.769231z" fill="#1E2028" p-id="62585"></path><path d="M315.076923 393.846154h78.769231v78.769231h-78.769231zM315.076923 315.076923h78.769231v78.769231h-78.769231zM315.076923 236.307692h78.769231v78.769231h-78.769231zM315.076923 157.538462h78.769231v78.76923h-78.769231z" fill="#FFF1B6" p-id="62586"></path><path d="M315.076923 78.769231h78.769231v78.769231h-78.769231zM236.307692 787.692308h78.769231v78.76923h-78.769231z" fill="#1E2028" p-id="62587"></path><path d="M236.307692 708.923077h78.769231v78.769231h-78.769231z" fill="#FF9B57" p-id="62588"></path><path d="M236.307692 630.153846h78.769231v78.769231h-78.769231z" fill="#FFDD4D" p-id="62589"></path><path d="M236.307692 551.384615h78.769231v78.769231h-78.769231z" fill="#FFF1B6" p-id="62590"></path><path d="M236.307692 472.615385h78.769231v78.76923h-78.769231zM236.307692 393.846154h78.769231v78.769231h-78.769231zM236.307692 315.076923h78.769231v78.769231h-78.769231zM236.307692 236.307692h78.769231v78.769231h-78.769231zM236.307692 157.538462h78.769231v78.76923h-78.769231zM157.538462 708.923077h78.76923v78.769231H157.538462z" fill="#1E2028" p-id="62591"></path><path d="M157.538462 630.153846h78.76923v78.769231H157.538462z" fill="#FFDD4D" p-id="62592"></path><path d="M157.538462 551.384615h78.76923v78.769231H157.538462zM78.769231 551.384615h78.769231v78.769231H78.769231z" fill="#FFF1B6" p-id="62593"></path><path d="M157.538462 472.615385h78.76923v78.76923H157.538462zM78.769231 630.153846h78.769231v78.769231H78.769231zM0 551.384615h78.769231v78.769231H0zM78.769231 472.615385h78.769231v78.76923H78.769231zM0 472.615385h78.769231v78.76923H0z" fill="#1E2028" p-id="62594"></path></svg>