<svg t="1752592405652" class="icon" viewBox="0 0 1024 1024" version="1.1" xmlns="http://www.w3.org/2000/svg" p-id="9556" width="64" height="64"><path d="M387.029124 313.938202c17.041483-22.721978 39.763461-39.763461 68.165932-45.443955l68.165933-22.721977c11.360989-5.680494 22.721978-22.721978 17.041483-34.082966 0-5.680494-11.360989-11.360989-17.041483-17.041484L449.514562 171.925843c-39.763461-11.360989-68.165933-45.443955-85.207416-85.207416L341.585169 18.552495c-5.680494-11.360989-17.041483-22.721978-34.082967-17.041483-5.680494 0-11.360989 11.360989-17.041483 17.041483l-17.041483 68.165932C256.377753 126.481888 227.975281 160.564854 182.531326 171.925843L114.365393 194.64782c-11.360989 5.680494-17.041483 22.721978-17.041483 34.082967 0 5.680494 11.360989 11.360989 17.041483 17.041483l68.165933 22.721977c39.763461 11.360989 73.846427 45.443955 85.207416 85.207416l22.721977 68.165933c5.680494 11.360989 11.360989 17.041483 22.721978 17.041483s22.721978-5.680494 22.721977-17.041483l22.721978-68.165933c11.360989-11.360989 17.041483-28.402472 28.402472-39.763461zM12.116495 501.394517l39.76346-11.360989c22.721978-5.680494 39.763461-28.402472 51.12445-51.124449l5.680494-39.763461c0-5.680494 11.360989-11.360989 17.041483-11.360989l11.360989 11.360989 11.360989 39.763461c5.680494 22.721978 22.721978 39.763461 45.443955 51.124449l39.76346 11.360989c5.680494 0 11.360989 11.360989 11.360989 17.041483 0 5.680494-5.680494 5.680494-11.360989 11.360989l-34.082966 11.360989c-22.721978 5.680494-39.763461 28.402472-51.124449 51.124449l-11.360989 34.082966c0 5.680494-11.360989 11.360989-17.041483 11.360989l-11.360989-11.360989-11.360989-39.76346c-5.680494-22.721978-28.402472-39.763461-51.124449-45.443955l-34.082966-17.041483c-11.360989 0-11.360989-5.680494-11.360989-17.041484 0-5.680494 5.680494-5.680494 11.360989-5.680494z m147.692853 170.414831c-5.680494 5.680494-11.360989 5.680494-11.360988 5.680495v181.77582c0 28.402472 11.360989 56.804944 22.721977 85.207416l335.149169-329.468674 5.680494-5.680495c39.763461-34.082966 102.248899-34.082966 142.01236 0l5.680494 5.680495 335.149168 329.468674c17.041483-22.721978 22.721978-51.124449 22.721978-85.207416V308.257708c0-85.207416-68.165933-159.053843-159.053843-159.053843H534.721978c17.041483 5.680494 28.402472 11.360989 34.082966 28.402472 17.041483 28.402472 17.041483 62.485438 0 85.207416-5.680494 11.360989-17.041483 22.721978-34.082966 28.402472l-68.165933 22.721977c-11.360989 5.680494-22.721978 11.360989-34.082966 22.721978l-5.680495 5.680494c-11.360989 5.680494-11.360989 17.041483-17.041483 28.402472l-17.041483 68.165933c-5.680494 17.041483-17.041483 28.402472-28.402472 39.76346-17.041483 5.680494-28.402472 11.360989-45.443955 11.360989-11.360989 0-22.721978 0-34.082966-5.680494 5.680494 5.680494 11.360989 17.041483 11.360989 28.402472s-5.680494 28.402472-11.360989 34.082966c-11.360989 17.041483-22.721978 22.721978-34.082967 28.402472l-39.76346 11.360989c-5.680494 0-5.680494 5.680494-11.360989 5.680494-5.680494 5.680494-5.680494 5.680494-5.680494 11.360989l-11.360989 39.763461c0 11.360989-11.360989 22.721978-22.721978 28.402471z m397.634607 0c17.041483-11.360989 34.082966-11.360989 45.443955-5.680494l5.680494 5.680494 335.149169 329.468674c-22.721978 17.041483-51.124449 22.721978-85.207416 22.721978H307.502202c-28.402472 0-56.804944-5.680494-85.207415-22.721978l335.149168-329.468674z m90.88791-244.261258c0-51.124449 45.443955-96.568404 96.568405-96.568404 51.124449 0 96.568404 45.443955 96.568404 96.568404 0 51.124449-45.443955 96.568404-96.568404 96.568405-56.804944 0-96.568404-45.443955-96.568405-96.568405z" fill="#FB3D4E" p-id="9557"></path></svg>