<?xml version="1.0" standalone="no"?><!DOCTYPE svg PUBLIC "-//W3C//DTD SVG 1.1//EN" "http://www.w3.org/Graphics/SVG/1.1/DTD/svg11.dtd"><svg t="1750930688252" class="icon" viewBox="0 0 1024 1024" version="1.1" xmlns="http://www.w3.org/2000/svg" p-id="10744" xmlns:xlink="http://www.w3.org/1999/xlink" width="64" height="64"><path d="M805.022 1024L658.51 1024l0-144.935L805.02 879.065 805.02 1024zM658.51 879.065L512 879.06500001l0-146.51100001L658.51 732.554l0 146.51zM512 732.554l-146.51 0 0-146.51L512 586.04400001l0 146.50999999z m0-293.022l-146.51 0 0-146.51L512 293.022l0 146.51z m146.51-146.51L512 293.022 512 146.50999999 658.51 146.51 658.51 293.02zM805.023 146.51L658.51 146.51 658.51 0 805.02 0 805.02 146.51z m-439.533 439.532l-146.51 0 0-146.51 146.51 0 0 146.51z" fill="#FD4C5D" p-id="10745"></path></svg>