<svg t="1766123075465" class="icon" viewBox="0 0 1151 1024" version="1.1" xmlns="http://www.w3.org/2000/svg" p-id="13171" width="30" height="30"><path d="M1036.533109 388.372546a378.602675 378.602675 0 0 0-118.857898-67.179942A669.609425 669.609425 0 0 0 859.199262 301.880621c5.166996-20.670982 9.519992-40.797965 12.782989-60.379949a373.162679 373.162679 0 0 0 1.631998-135.992883 126.472891 126.472891 0 0 0-57.38895-90.026922 128.10489 128.10489 0 0 0-106.889909-5.711995 387.033667 387.033667 0 0 0-118.040898 67.995941c-16.046986 13.055989-32.365972 27.198977-48.413959 43.245963-16.318986-15.502987-32.637972-30.189974-48.684958-43.245963a373.162679 373.162679 0 0 0-118.040898-68.539941 127.288891 127.288891 0 0 0-106.889908 5.439995 128.648889 128.648889 0 0 0-57.388951 90.298923 385.401669 385.401669 0 0 0 1.631999 135.991883q4.895996 29.373975 13.054988 60.379948a646.754444 646.754444 0 0 0-58.747949 19.311983 378.602675 378.602675 0 0 0-118.857898 67.179943A128.648889 128.648889 0 0 0 0 483.022465a128.648889 128.648889 0 0 0 48.956958 95.194918 378.602675 378.602675 0 0 0 118.857898 67.179942 646.754444 646.754444 0 0 0 58.747949 19.310984c-5.439995 20.670982-9.790992 41.069965-13.054988 60.379948a385.401669 385.401669 0 0 0-1.631999 135.992883 128.648889 128.648889 0 0 0 58.748949 91.386921 108.793907 108.793907 0 0 0 54.396954 14.414988 165.094858 165.094858 0 0 0 51.404956-8.974992 373.162679 373.162679 0 0 0 118.040898-68.539941c16.046986-13.055989 32.365972-27.198977 48.684958-43.245963 16.046986 15.502987 32.366972 30.189974 48.413959 43.245963a387.033667 387.033667 0 0 0 118.040898 68.539941 163.18986 163.18986 0 0 0 51.404956 8.702992 106.889908 106.889908 0 0 0 54.396953-14.414987 126.472891 126.472891 0 0 0 57.388951-90.026923 372.89068 372.89068 0 0 0-1.631999-135.991883c-3.263997-19.582983-7.615993-39.709966-12.782989-60.379948a669.609425 669.609425 0 0 0 58.47595-19.311984 378.602675 378.602675 0 0 0 118.857898-67.179942 128.648889 128.648889 0 0 0 48.956958-95.194918 128.648889 128.648889 0 0 0-48.956958-95.193918zM622.572465 116.38778A341.339707 341.339707 0 0 1 724.566377 56.280832a81.59493 81.59493 0 0 1 66.635943 0 79.962931 79.962931 0 0 1 33.726971 57.115951 329.916716 329.916716 0 0 1-2.175998 118.313898c-2.991997 18.222984-6.799994 36.989968-11.96799 56.299951a1131.999027 1131.999027 0 0 0-143.879876-22.029981 1112.416044 1112.416044 0 0 0-89.482923-109.337906c15.231987-14.414988 30.189974-27.198977 45.149961-39.981965z m68.811941 453.66961c-16.590986 27.198977-33.997971 54.397953-51.948956 81.59593-31.549973 2.447998-63.915945 3.535997-96.554917 3.535997s-65.275944 0-96.825916-3.535997c-17.950985-27.197977-35.08597-54.396953-51.676956-81.59493s-32.365972-57.66095-46.50996-86.491926q21.214982-43.244963 46.50996-86.489925c16.589986-28.559975 33.725971-55.757952 51.676956-81.59593 31.549973-2.447998 63.915945-3.535997 96.825916-3.535997s65.004944 0 96.554917 3.535997c17.950985 27.197977 35.35797 54.396953 51.676956 81.59493s32.365972 57.93295 46.50996 86.762925c-14.143988 28.829975-29.646975 57.93295-46.23796 86.763926z m72.619937-27.197977a924.747205 924.747205 0 0 1 32.909972 88.122925c-29.645975 6.527994-60.923948 11.96699-93.562919 16.046986 10.607991-16.589986 20.942982-33.453971 31.006973-50.316957s20.125983-35.629969 29.645974-54.396953zM542.608534 774.590214c-20.125983-21.758981-39.980966-45.420961-59.291949-70.715939H601.629483c-19.309983 25.294978-39.165966 48.956958-59.019949 70.715939zM382.139672 645.670325c-32.638972-4.079996-63.916945-9.519992-93.56292-16.047986 9.246992-28.829975 20.126983-58.20395 32.909972-88.122924 9.519992 17.950985 19.582983 35.901969 29.917974 54.396953s20.126983 33.997971 30.733974 50.589956zM352.219697 372.05256c-10.334991 17.678985-20.398982 35.629969-29.917974 54.396954-12.782989-29.918974-23.66298-59.292949-32.909972-88.122925 29.645975-6.527994 60.923948-11.96799 93.56192-16.046986-10.606991 16.589986-20.941982 33.453971-30.733974 50.588957z m190.389837-179.509845c19.853983 21.758981 39.709966 45.420961 59.019949 70.715939-19.582983 0-39.437966-1.359999-59.019949-1.359999s-39.709966 0-59.292949 1.359999c19.309983-25.294978 39.165966-48.956958 59.291949-70.715939zM732.99737 371.780561c-10.063991-16.862986-20.399982-33.725971-31.006973-50.316957 32.638972 4.079996 63.916945 9.518992 93.562919 16.046986a924.747205 924.747205 0 0 1-32.909971 88.122924 1785.694465 1785.694465 0 0 0-29.645975-54.396953zM262.736774 233.340679a336.172711 336.172711 0 0 1-2.175998-118.313898 81.59493 81.59493 0 0 1 33.725971-57.388951 81.59493 81.59493 0 0 1 66.636943 0 333.996713 333.996713 0 0 1 101.993912 59.836949c14.959987 12.239989 30.189974 25.838978 45.149961 40.253965a1152.39901 1152.39901 0 0 0-89.483923 110.969905 1131.999027 1131.999027 0 0 0-143.879876 22.029981c-4.894996-19.309983-8.974992-38.077967-11.96699-56.299951z m-77.242933 366.089686A339.164709 339.164709 0 0 1 82.138929 542.860413a81.59493 81.59493 0 0 1-32.365972-58.20495A81.59493 81.59493 0 0 1 82.139929 426.450514a339.164709 339.164709 0 0 1 103.354912-57.660951c17.134985-6.527994 35.629969-12.510989 54.395953-17.950985a1142.335018 1142.335018 0 0 0 52.765954 133.815886 1142.335018 1142.335018 0 0 0-52.765954 133.816885c-19.037984-5.439995-37.532968-11.42399-54.395953-17.950985z m277.423761 251.314784a333.996713 333.996713 0 0 1-101.993912 59.835948 81.59493 81.59493 0 0 1-66.636943 0 81.59493 81.59493 0 0 1-33.725971-57.38795 336.172711 336.172711 0 0 1 2.175998-119.945897c2.991997-18.222984 7.071994-36.989968 11.96799-56.299952a1131.999027 1131.999027 0 0 0 143.879876 22.029981 1152.39901 1152.39901 0 0 0 89.481923 110.969905c-14.958987 14.414988-30.189974 27.198977-45.149961 40.253965z m359.835691-117.497899a329.916716 329.916716 0 0 1 2.175998 118.313898 81.59493 81.59493 0 0 1-33.726971 57.115951 81.59493 81.59493 0 0 1-66.635943 1.359999 335.629712 335.629712 0 0 1-101.993912-60.107948c-14.959987-11.96799-29.917974-25.566978-45.149961-39.981966a1112.416044 1112.416044 0 0 0 89.482923-110.969905 1131.999027 1131.999027 0 0 0 143.879876-20.126982c5.167996 19.310983 8.975992 38.077967 11.96799 56.300951zM1003.349138 542.860413a339.164709 339.164709 0 0 1-103.353911 57.659951q-25.837978 9.791992-54.396954 17.951985a1140.43102 1140.43102 0 0 0-52.492955-133.816886A1140.43102 1140.43102 0 0 0 845.599273 350.838578q29.102975 8.159993 54.396954 17.949985a339.164709 339.164709 0 0 1 103.353911 57.661951 81.59493 81.59493 0 0 1 32.366972 58.20395 81.59493 81.59493 0 0 1-32.366972 58.204949z m0 0" fill="#00A6E2" p-id="13172"></path><path d="M542.609534 389.732545a97.369916 97.369916 0 1 0 97.641916 98.729915 97.369916 97.369916 0 0 0-97.642916-98.729915z m0 144.967875a47.596959 47.596959 0 1 1 47.868959-46.23796 47.596959 47.596959 0 0 1-47.869959 46.23796z m0 0" fill="#00A6E2" p-id="13173"></path></svg>