<svg t="1750669185370" class="icon" viewBox="0 0 1024 1024" version="1.1" xmlns="http://www.w3.org/2000/svg" p-id="3240" width="64" height="64"><path d="M694.211765 0h51.2v51.2h-51.2zM537.6 51.2h51.2v51.2h-51.2zM486.4 102.4h51.2v51.2h-51.2z" fill="#3A2802" p-id="3241"></path><path d="M435.2 153.6h51.2v51.2h-51.2z" fill="#FF7C5B" p-id="3242"></path><path d="M486.4 204.8h51.2v51.2h-51.2z" fill="#FF3400" p-id="3243"></path><path d="M435.2 256h51.2v51.2h-51.2zM435.2 307.2h51.2v51.2h-51.2zM435.2 358.4h51.2v51.2h-51.2zM435.2 409.6h51.2v51.2h-51.2z" fill="#FFFFFF" p-id="3244"></path><path d="M435.2 460.8h51.2v51.2h-51.2z" fill="#FFFFA5" p-id="3245"></path><path d="M435.2 512h51.2v51.2h-51.2zM435.2 563.2h51.2v51.2h-51.2z" fill="#FF3400" p-id="3246"></path><path d="M435.2 614.4h51.2v51.2h-51.2z" fill="#FFDE00" p-id="3247"></path><path d="M435.2 665.6h51.2v51.2h-51.2z" fill="#71ACFD" p-id="3248"></path><path d="M435.2 716.8h51.2v51.2h-51.2z" fill="#FF3400" p-id="3249"></path><path d="M435.2 768h51.2v51.2h-51.2z" fill="#71ACFD" p-id="3250"></path><path d="M486.4 870.4h51.2v51.2h-51.2z" fill="#3A2802" p-id="3251"></path><path d="M486.4 921.6h51.2v51.2h-51.2z" fill="#B5751C" p-id="3252"></path><path d="M486.4 972.8h51.2v51.2h-51.2z" fill="#3A2802" p-id="3253"></path><path d="M435.2 819.2h51.2v51.2h-51.2z" fill="#9F1EC3" p-id="3254"></path><path d="M384 204.8h51.2v51.2h-51.2zM332.8 256h51.2v51.2h-51.2z" fill="#FF7C5B" p-id="3255"></path><path d="M332.8 307.2h51.2v51.2h-51.2z" fill="#FFFFA5" p-id="3256"></path><path d="M332.8 358.4h51.2v51.2h-51.2z" fill="#FFDE00" p-id="3257"></path><path d="M332.8 409.6h51.2v51.2h-51.2z" fill="#CD2A00" p-id="3258"></path><path d="M332.8 460.8h51.2v51.2h-51.2zM332.8 512h51.2v51.2h-51.2zM332.8 563.2h51.2v51.2h-51.2zM332.8 614.4h51.2v51.2h-51.2z" fill="#FF3400" p-id="3259"></path><path d="M332.8 665.6h51.2v51.2h-51.2z" fill="#FFDE00" p-id="3260"></path><path d="M332.8 716.8h51.2v51.2h-51.2z" fill="#71ACFD" p-id="3261"></path><path d="M332.8 768h51.2v51.2h-51.2z" fill="#FF3400" p-id="3262"></path><path d="M384 870.4h51.2v51.2h-51.2z" fill="#3A2802" p-id="3263"></path><path d="M384 921.6h51.2v51.2h-51.2z" fill="#B5751C" p-id="3264"></path><path d="M384 972.8h51.2v51.2h-51.2z" fill="#3A2802" p-id="3265"></path><path d="M332.8 819.2h51.2v51.2h-51.2z" fill="#9F1EC3" p-id="3266"></path><path d="M537.6 256h51.2v51.2h-51.2zM537.6 307.2h51.2v51.2h-51.2z" fill="#FFFFFF" p-id="3267"></path><path d="M537.6 358.4h51.2v51.2h-51.2zM537.6 409.6h51.2v51.2h-51.2z" fill="#FE9494" p-id="3268"></path><path d="M537.6 460.8h51.2v51.2h-51.2z" fill="#FFFFA5" p-id="3269"></path><path d="M537.6 512h51.2v51.2h-51.2zM537.6 563.2h51.2v51.2h-51.2zM537.6 614.4h51.2v51.2h-51.2z" fill="#FF3400" p-id="3270"></path><path d="M537.6 665.6h51.2v51.2h-51.2z" fill="#FFDE00" p-id="3271"></path><path d="M537.6 716.8h51.2v51.2h-51.2z" fill="#47D147" p-id="3272"></path><path d="M537.6 768h51.2v51.2h-51.2z" fill="#71ACFD" p-id="3273"></path><path d="M588.8 870.4h51.2v51.2h-51.2z" fill="#3A2802" p-id="3274"></path><path d="M588.8 921.6h51.2v51.2h-51.2z" fill="#7D4900" p-id="3275"></path><path d="M588.8 972.8h51.2v51.2h-51.2z" fill="#3A2802" p-id="3276"></path><path d="M537.6 819.2h51.2v51.2h-51.2z" fill="#85299F" p-id="3277"></path><path d="M435.2 102.4h51.2v51.2h-51.2zM384 153.6h51.2v51.2h-51.2z" fill="#3A2802" p-id="3278"></path><path d="M435.2 204.8h51.2v51.2h-51.2z" fill="#FF3400" p-id="3279"></path><path d="M384 256h51.2v51.2h-51.2zM384 307.2h51.2v51.2h-51.2zM384 358.4h51.2v51.2h-51.2z" fill="#FFDE00" p-id="3280"></path><path d="M384 409.6h51.2v51.2h-51.2zM384 460.8h51.2v51.2h-51.2zM384 512h51.2v51.2h-51.2zM384 563.2h51.2v51.2h-51.2zM384 614.4h51.2v51.2h-51.2z" fill="#FF3400" p-id="3281"></path><path d="M384 665.6h51.2v51.2h-51.2z" fill="#FFDE00" p-id="3282"></path><path d="M384 716.8h51.2v51.2h-51.2z" fill="#71ACFD" p-id="3283"></path><path d="M384 768h51.2v51.2h-51.2z" fill="#FF3400" p-id="3284"></path><path d="M435.2 870.4h51.2v51.2h-51.2z" fill="#7D4900" p-id="3285"></path><path d="M435.2 921.6h51.2v51.2h-51.2z" fill="#716262" p-id="3286"></path><path d="M435.2 972.8h51.2v51.2h-51.2z" fill="#3A2802" p-id="3287"></path><path d="M384 819.2h51.2v51.2h-51.2z" fill="#7D4900" p-id="3288"></path><path d="M332.8 204.8h51.2v51.2h-51.2zM281.6 256h51.2v51.2h-51.2z" fill="#3A2802" p-id="3289"></path><path d="M281.6 307.2h51.2v51.2h-51.2z" fill="#FF7C5B" p-id="3290"></path><path d="M281.6 358.4h51.2v51.2h-51.2z" fill="#FFFFA5" p-id="3291"></path><path d="M281.6 409.6h51.2v51.2h-51.2z" fill="#FFDE00" p-id="3292"></path><path d="M281.6 460.8h51.2v51.2h-51.2zM281.6 512h51.2v51.2h-51.2z" fill="#3A2802" p-id="3293"></path><path d="M281.6 563.2h51.2v51.2h-51.2z" fill="#FF3400" p-id="3294"></path><path d="M230.4 563.2h51.2v51.2H230.4z" fill="#3A2802" p-id="3295"></path><path d="M281.6 614.4h51.2v51.2h-51.2zM230.4 614.4h51.2v51.2H230.4z" fill="#FF3400" p-id="3296"></path><path d="M179.2 614.4h51.2v51.2H179.2z" fill="#3A2802" p-id="3297"></path><path d="M281.6 665.6h51.2v51.2h-51.2z" fill="#FF3400" p-id="3298"></path><path d="M281.6 716.8h51.2v51.2h-51.2z" fill="#FFDE00" p-id="3299"></path><path d="M281.6 768h51.2v51.2h-51.2z" fill="#FF3400" p-id="3300"></path><path d="M332.8 870.4h51.2v51.2h-51.2z" fill="#3A2802" p-id="3301"></path><path d="M332.8 921.6h51.2v51.2h-51.2z" fill="#B5751C" p-id="3302"></path><path d="M332.8 972.8h51.2v51.2h-51.2zM281.6 819.2h51.2v51.2h-51.2z" fill="#3A2802" p-id="3303"></path><path d="M230.4 665.6h51.2v51.2H230.4z" fill="#FF3400" p-id="3304"></path><path d="M230.4 716.8h51.2v51.2H230.4z" fill="#FFDE00" p-id="3305"></path><path d="M230.4 768h51.2v51.2H230.4z" fill="#FF3400" p-id="3306"></path><path d="M281.6 870.4h51.2v51.2h-51.2z" fill="#3A2802" p-id="3307"></path><path d="M281.6 921.6h51.2v51.2h-51.2z" fill="#B5751C" p-id="3308"></path><path d="M281.6 972.8h51.2v51.2h-51.2zM230.4 819.2h51.2v51.2H230.4z" fill="#3A2802" p-id="3309"></path><path d="M179.2 665.6h51.2v51.2H179.2zM179.2 716.8h51.2v51.2H179.2z" fill="#FF3400" p-id="3310"></path><path d="M179.2 768h51.2v51.2H179.2zM230.4 870.4h51.2v51.2H230.4z" fill="#3A2802" p-id="3311"></path><path d="M230.4 921.6h51.2v51.2H230.4z" fill="#7D4900" p-id="3312"></path><path d="M179.2 921.6h51.2v51.2H179.2zM230.4 972.8h51.2v51.2H230.4zM179.2 972.8h51.2v51.2H179.2zM128 665.6h51.2v51.2H128zM128 716.8h51.2v51.2H128zM230.4 307.2h51.2v51.2H230.4zM230.4 358.4h51.2v51.2H230.4zM230.4 409.6h51.2v51.2H230.4z" fill="#3A2802" p-id="3313"></path><path d="M486.4 256h51.2v51.2h-51.2z" fill="#FFFFFF" p-id="3314"></path><path d="M486.4 307.2h51.2v51.2h-51.2zM486.4 358.4h51.2v51.2h-51.2z" fill="#3A2802" p-id="3315"></path><path d="M486.4 409.6h51.2v51.2h-51.2z" fill="#FE9494" p-id="3316"></path><path d="M486.4 460.8h51.2v51.2h-51.2z" fill="#FFFFA5" p-id="3317"></path><path d="M486.4 512h51.2v51.2h-51.2zM486.4 563.2h51.2v51.2h-51.2zM486.4 614.4h51.2v51.2h-51.2zM486.4 665.6h51.2v51.2h-51.2z" fill="#FF3400" p-id="3318"></path><path d="M486.4 716.8h51.2v51.2h-51.2z" fill="#47D147" p-id="3319"></path><path d="M486.4 768h51.2v51.2h-51.2z" fill="#71ACFD" p-id="3320"></path><path d="M537.6 870.4h51.2v51.2h-51.2z" fill="#3A2802" p-id="3321"></path><path d="M537.6 921.6h51.2v51.2h-51.2z" fill="#B5751C" p-id="3322"></path><path d="M537.6 972.8h51.2v51.2h-51.2z" fill="#3A2802" p-id="3323"></path><path d="M486.4 819.2h51.2v51.2h-51.2z" fill="#85299F" p-id="3324"></path><path d="M640 51.2h51.2v51.2h-51.2z" fill="#3A2802" p-id="3325"></path><path d="M588.8 102.4h51.2v51.2h-51.2z" fill="#FF7C5B" p-id="3326"></path><path d="M537.6 153.6h51.2v51.2h-51.2zM588.8 204.8h51.2v51.2h-51.2zM640 256h51.2v51.2h-51.2zM640 307.2h51.2v51.2h-51.2zM640 358.4h51.2v51.2h-51.2zM640 409.6h51.2v51.2h-51.2zM640 460.8h51.2v51.2h-51.2zM640 512h51.2v51.2h-51.2zM640 563.2h51.2v51.2h-51.2z" fill="#FF3400" p-id="3327"></path><path d="M640 614.4h51.2v51.2h-51.2zM640 665.6h51.2v51.2h-51.2z" fill="#FFDE00" p-id="3328"></path><path d="M640 716.8h51.2v51.2h-51.2z" fill="#71ACFD" p-id="3329"></path><path d="M640 768h51.2v51.2h-51.2z" fill="#85299F" p-id="3330"></path><path d="M691.2 870.4h51.2v51.2h-51.2z" fill="#3A2802" p-id="3331"></path><path d="M691.2 921.6h51.2v51.2h-51.2z" fill="#B5751C" p-id="3332"></path><path d="M691.2 972.8h51.2v51.2h-51.2zM640 819.2h51.2v51.2h-51.2z" fill="#3A2802" p-id="3333"></path><path d="M742.4 51.2h51.2v51.2h-51.2zM691.2 102.4h51.2v51.2h-51.2zM640 153.6h51.2v51.2h-51.2zM691.2 204.8h51.2v51.2h-51.2z" fill="#FF3400" p-id="3334"></path><path d="M742.4 256h51.2v51.2h-51.2z" fill="#CD2A00" p-id="3335"></path><path d="M742.4 307.2h51.2v51.2h-51.2z" fill="#FF3400" p-id="3336"></path><path d="M742.4 358.4h51.2v51.2h-51.2z" fill="#CD2A00" p-id="3337"></path><path d="M742.4 409.6h51.2v51.2h-51.2zM742.4 460.8h51.2v51.2h-51.2z" fill="#FF3400" p-id="3338"></path><path d="M742.4 512h51.2v51.2h-51.2zM742.4 563.2h51.2v51.2h-51.2z" fill="#FFDE00" p-id="3339"></path><path d="M742.4 614.4h51.2v51.2h-51.2z" fill="#47D147" p-id="3340"></path><path d="M742.4 665.6h51.2v51.2h-51.2z" fill="#71ACFD" p-id="3341"></path><path d="M742.4 716.8h51.2v51.2h-51.2z" fill="#3168B5" p-id="3342"></path><path d="M742.4 768h51.2v51.2h-51.2zM793.6 870.4h51.2v51.2h-51.2zM793.6 921.6h51.2v51.2h-51.2zM793.6 972.8h51.2v51.2h-51.2zM745.411765 0h51.2v51.2h-51.2zM588.8 51.2h51.2v51.2h-51.2z" fill="#3A2802" p-id="3343"></path><path d="M537.6 102.4h51.2v51.2h-51.2zM486.4 153.6h51.2v51.2h-51.2z" fill="#FF7C5B" p-id="3344"></path><path d="M537.6 204.8h51.2v51.2h-51.2zM588.8 256h51.2v51.2h-51.2z" fill="#FF3400" p-id="3345"></path><path d="M588.8 307.2h51.2v51.2h-51.2z" fill="#FFFFFF" p-id="3346"></path><path d="M588.8 358.4h51.2v51.2h-51.2zM588.8 409.6h51.2v51.2h-51.2z" fill="#FFFFA5" p-id="3347"></path><path d="M588.8 460.8h51.2v51.2h-51.2zM588.8 512h51.2v51.2h-51.2zM588.8 563.2h51.2v51.2h-51.2zM588.8 614.4h51.2v51.2h-51.2z" fill="#FF3400" p-id="3348"></path><path d="M588.8 665.6h51.2v51.2h-51.2z" fill="#FFDE00" p-id="3349"></path><path d="M588.8 716.8h51.2v51.2h-51.2z" fill="#47D147" p-id="3350"></path><path d="M588.8 768h51.2v51.2h-51.2z" fill="#71ACFD" p-id="3351"></path><path d="M640 870.4h51.2v51.2h-51.2z" fill="#7D4900" p-id="3352"></path><path d="M640 921.6h51.2v51.2h-51.2z" fill="#716262" p-id="3353"></path><path d="M640 972.8h51.2v51.2h-51.2z" fill="#3A2802" p-id="3354"></path><path d="M588.8 819.2h51.2v51.2h-51.2z" fill="#7D4900" p-id="3355"></path><path d="M691.2 51.2h51.2v51.2h-51.2zM640 102.4h51.2v51.2h-51.2zM588.8 153.6h51.2v51.2h-51.2zM640 204.8h51.2v51.2h-51.2zM691.2 256h51.2v51.2h-51.2zM691.2 307.2h51.2v51.2h-51.2zM691.2 358.4h51.2v51.2h-51.2zM691.2 409.6h51.2v51.2h-51.2zM691.2 460.8h51.2v51.2h-51.2zM691.2 512h51.2v51.2h-51.2z" fill="#FF3400" p-id="3356"></path><path d="M691.2 563.2h51.2v51.2h-51.2zM691.2 614.4h51.2v51.2h-51.2z" fill="#FFDE00" p-id="3357"></path><path d="M691.2 665.6h51.2v51.2h-51.2z" fill="#47D147" p-id="3358"></path><path d="M691.2 716.8h51.2v51.2h-51.2z" fill="#3168B5" p-id="3359"></path><path d="M691.2 768h51.2v51.2h-51.2z" fill="#85299F" p-id="3360"></path><path d="M742.4 870.4h51.2v51.2h-51.2z" fill="#3A2802" p-id="3361"></path><path d="M742.4 921.6h51.2v51.2h-51.2z" fill="#B5751C" p-id="3362"></path><path d="M742.4 972.8h51.2v51.2h-51.2zM691.2 819.2h51.2v51.2h-51.2zM793.6 51.2h51.2v51.2h-51.2zM742.4 102.4h51.2v51.2h-51.2zM691.2 153.6h51.2v51.2h-51.2zM742.4 204.8h51.2v51.2h-51.2zM793.6 256h51.2v51.2h-51.2zM793.6 307.2h51.2v51.2h-51.2z" fill="#3A2802" p-id="3363"></path><path d="M793.6 358.4h51.2v51.2h-51.2z" fill="#FF3400" p-id="3364"></path><path d="M844.8 358.4h51.2v51.2h-51.2z" fill="#3A2802" p-id="3365"></path><path d="M793.6 409.6h51.2v51.2h-51.2zM793.6 460.8h51.2v51.2h-51.2z" fill="#CD2A00" p-id="3366"></path><path d="M793.6 512h51.2v51.2h-51.2zM793.6 563.2h51.2v51.2h-51.2z" fill="#008300" p-id="3367"></path><path d="M793.6 614.4h51.2v51.2h-51.2zM793.6 665.6h51.2v51.2h-51.2z" fill="#3168B5" p-id="3368"></path><path d="M793.6 716.8h51.2v51.2h-51.2zM844.8 409.6h51.2v51.2h-51.2zM844.8 460.8h51.2v51.2h-51.2zM844.8 512h51.2v51.2h-51.2zM844.8 563.2h51.2v51.2h-51.2zM844.8 614.4h51.2v51.2h-51.2zM844.8 665.6h51.2v51.2h-51.2z" fill="#3A2802" p-id="3369"></path></svg>