<svg t="1750929037623" class="icon" viewBox="0 0 1024 1024" version="1.1" xmlns="http://www.w3.org/2000/svg" p-id="21447" width="64" height="64"><path d="M0 511.83a511.83 511.83 0 1 0 1023.659 0A511.83 511.83 0 1 0 0 511.83z" fill="#ffffff" p-id="21448" data-spm-anchor-id="a313x.search_index.0.i50.5e9e3a814yHyp4" class="selected"></path><path d="M1023.659 511.83q0 12.582-0.64 25.122-0.597 12.54-1.834 25.037t-3.071 24.951q-1.834 12.412-4.265 24.739-2.474 12.326-5.545 24.525-3.028 12.156-6.697 24.184-3.625 12.028-7.848 23.885-4.265 11.815-9.042 23.46-4.82 11.558-10.236 22.946-5.332 11.346-11.26 22.435t-12.37 21.838q-6.483 10.791-13.435 21.241-6.995 10.45-14.502 20.516-7.464 10.109-15.44 19.833-7.976 9.683-16.422 19.023-8.402 9.299-17.317 18.17-8.871 8.915-18.17 17.317-9.34 8.446-19.023 16.422-9.724 7.976-19.833 15.482-10.066 7.465-20.516 14.46-10.45 6.952-21.24 13.435-10.75 6.44-21.839 12.37-11.09 5.928-22.435 11.302-11.388 5.374-22.99 10.194-11.601 4.777-23.458 9.042-11.815 4.223-23.843 7.848-12.028 3.669-24.184 6.697-12.199 3.07-24.525 5.545-12.327 2.43-24.739 4.265-12.454 1.834-24.951 3.07-12.497 1.28-25.037 1.835-12.54 0.64-25.123 0.64t-25.122-0.64q-12.54-0.597-25.037-1.834t-24.952-3.071q-12.411-1.834-24.738-4.265-12.327-2.474-24.525-5.545-12.199-3.028-24.184-6.697-12.028-3.625-23.885-7.848-11.815-4.265-23.46-9.042-11.558-4.82-22.946-10.236-11.346-5.332-22.436-11.26t-21.838-12.37q-10.79-6.483-21.24-13.435-10.45-6.995-20.516-14.502-10.109-7.464-19.834-15.44-9.682-7.976-19.023-16.422-9.298-8.402-18.17-17.317-8.914-8.871-17.317-18.17-8.445-9.34-16.42-19.023-7.977-9.724-15.44-19.833-7.508-10.066-14.503-20.516-6.952-10.45-13.435-21.24-6.44-10.75-12.37-21.839-5.928-11.09-11.302-22.435-5.375-11.388-10.194-22.99-4.777-11.601-9.043-23.458-4.222-11.815-7.848-23.843-3.668-12.028-6.696-24.184-3.071-12.199-5.545-24.525-2.431-12.327-4.265-24.739-1.834-12.454-3.071-24.951-1.28-12.497-1.877-25.037T0 511.829t0.597-25.122q0.64-12.54 1.877-25.037t3.07-24.952Q7.38 424.307 9.81 411.98q2.474-12.327 5.545-24.525 3.028-12.199 6.696-24.184 3.626-12.028 7.848-23.885 4.266-11.815 9.043-23.46 4.82-11.558 10.236-22.946 5.332-11.346 11.26-22.436t12.37-21.838q6.483-10.79 13.435-21.24 6.995-10.45 14.502-20.516 7.464-10.109 15.44-19.834 7.976-9.682 16.421-19.023 8.403-9.298 17.317-18.17 8.872-8.914 18.17-17.317 9.341-8.445 19.023-16.42 9.725-7.977 19.834-15.44 10.066-7.508 20.516-14.503 10.45-6.952 21.24-13.435 10.749-6.44 21.838-12.37 11.09-5.928 22.436-11.302 11.388-5.375 22.99-10.194 11.6-4.777 23.458-9.043 11.815-4.222 23.843-7.848 11.985-3.668 24.184-6.696 12.198-3.071 24.525-5.545 12.327-2.431 24.738-4.265 12.455-1.834 24.952-3.071 12.497-1.28 25.037-1.877T511.83 0t25.123 0.597q12.54 0.64 25.037 1.877t24.951 3.07Q599.352 7.38 611.68 9.81q12.326 2.474 24.525 5.545 12.156 3.028 24.184 6.696 12.028 3.626 23.885 7.848 11.815 4.266 23.46 9.043 11.558 4.82 22.946 10.236 11.346 5.332 22.435 11.26t21.838 12.37q10.791 6.483 21.241 13.435 10.45 6.995 20.516 14.502 10.109 7.464 19.833 15.44 9.683 7.976 19.023 16.421 9.299 8.403 18.17 17.317 8.915 8.872 17.317 18.17 8.446 9.341 16.422 19.023 7.976 9.725 15.482 19.834 7.465 10.066 14.46 20.516 6.952 10.45 13.435 21.24 6.44 10.749 12.37 21.838 5.928 11.09 11.302 22.436 5.374 11.388 10.194 22.99 4.777 11.6 9.042 23.458 4.223 11.815 7.848 23.843 3.669 11.985 6.697 24.184 3.07 12.198 5.545 24.525 2.43 12.327 4.265 24.738 1.834 12.455 3.07 24.952 1.28 12.497 1.835 25.037 0.64 12.54 0.64 25.122z m-42.653 0q0-11.517-0.554-23.033t-1.706-22.947q-1.11-11.473-2.815-22.862-1.706-11.388-3.924-22.69-2.26-11.304-5.076-22.479-2.772-11.175-6.142-22.179-3.327-11.047-7.208-21.88-3.882-10.834-8.275-21.497-4.436-10.62-9.383-21.028-4.905-10.407-10.322-20.559-5.417-10.193-11.346-20.046-5.928-9.896-12.326-19.45-6.398-9.597-13.223-18.852-6.91-9.256-14.203-18.127-7.293-8.957-15.013-17.488-7.763-8.53-15.91-16.634-8.104-8.147-16.634-15.867-8.53-7.763-17.488-15.056-8.872-7.294-18.127-14.161t-18.852-13.265q-9.555-6.398-19.45-12.326-9.895-5.93-20.047-11.346-10.15-5.417-20.558-10.365-10.407-4.905-21.07-9.34-10.62-4.394-21.455-8.275-10.876-3.881-21.88-7.25-11.005-3.328-22.18-6.1-11.175-2.815-22.477-5.076-11.303-2.218-22.692-3.924t-22.861-2.815q-11.431-1.109-22.947-1.706-11.516-0.555-23.033-0.555t-23.032 0.555q-11.516 0.597-22.947 1.706-11.473 1.109-22.862 2.815-11.388 1.706-22.69 3.924-11.304 2.26-22.479 5.076-11.175 2.772-22.179 6.142-11.047 3.327-21.88 7.208-10.834 3.881-21.497 8.275-10.62 4.435-21.028 9.383-10.407 4.905-20.559 10.322-10.193 5.417-20.046 11.346-9.896 5.928-19.45 12.326-9.597 6.398-18.852 13.222-9.256 6.91-18.127 14.204-8.957 7.293-17.488 15.056-8.53 7.677-16.634 15.867-8.147 8.104-15.867 16.634-7.763 8.53-15.056 17.488-7.294 8.871-14.161 18.127T121.73 251.18q-6.398 9.554-12.326 19.45-5.93 9.853-11.346 20.046-5.417 10.152-10.365 20.559-4.905 10.407-9.34 21.028-4.394 10.663-8.275 21.496-3.881 10.834-7.25 21.881-3.328 11.004-6.1 22.18-2.815 11.174-5.076 22.477-2.218 11.303-3.924 22.691t-2.815 22.862q-1.109 11.43-1.706 22.947-0.555 11.516-0.555 23.032t0.555 23.033q0.597 11.516 1.706 22.947 1.109 11.473 2.815 22.861 1.706 11.389 3.924 22.692 2.26 11.302 5.076 22.477 2.772 11.175 6.142 22.18 3.327 11.004 7.208 21.88 3.881 10.834 8.275 21.455 4.435 10.663 9.383 21.07 4.905 10.407 10.322 20.558 5.417 10.194 11.346 20.047 5.928 9.895 12.326 19.45 6.398 9.596 13.222 18.852 6.91 9.255 14.204 18.127 7.293 8.957 15.056 17.488 7.677 8.53 15.867 16.634 8.104 8.147 16.634 15.91 8.53 7.677 17.488 15.013 8.871 7.294 18.127 14.16t18.852 13.266q9.554 6.398 19.45 12.326 9.853 5.929 20.046 11.346 10.152 5.417 20.559 10.364 10.407 4.905 21.028 9.341 10.663 4.393 21.496 8.275 10.834 3.881 21.881 7.25 11.004 3.328 22.18 6.1 11.174 2.815 22.477 5.076 11.303 2.218 22.691 3.924t22.862 2.815q11.43 1.151 22.947 1.706 11.516 0.554 23.032 0.554t23.033-0.554q11.516-0.555 22.947-1.706 11.473-1.11 22.861-2.815 11.389-1.706 22.692-3.924 11.302-2.26 22.477-5.076 11.175-2.772 22.18-6.142 11.004-3.327 21.88-7.208 10.834-3.882 21.455-8.275 10.663-4.436 21.07-9.383 10.407-4.905 20.558-10.322 10.194-5.417 20.047-11.346 9.895-5.928 19.45-12.326 9.596-6.398 18.852-13.223 9.255-6.91 18.127-14.203 8.957-7.293 17.488-15.013 8.53-7.763 16.634-15.91 8.147-8.104 15.91-16.634 7.677-8.53 15.013-17.488 7.294-8.872 14.16-18.127t13.266-18.852q6.398-9.555 12.326-19.45 5.929-9.895 11.346-20.047 5.417-10.15 10.364-20.558 4.905-10.407 9.341-21.07 4.393-10.62 8.275-21.455 3.881-10.876 7.25-21.88 3.328-11.005 6.1-22.18 2.815-11.175 5.076-22.477 2.218-11.303 3.924-22.692t2.815-22.861q1.151-11.431 1.706-22.947 0.554-11.516 0.554-23.033z" fill="#EFEDF3" p-id="21449"></path><path d="M810.951 323.988c-6.483-3.156-9.298 2.9-13.094 5.971-1.28 0.981-2.389 2.304-3.455 3.455-9.512 10.194-20.601 16.848-35.06 16.038-21.156-1.152-39.24 5.502-55.193 21.71-3.412-20.004-14.715-31.947-31.861-39.625-8.957-3.966-18.085-7.933-24.355-16.634-4.393-6.1-5.587-12.966-7.805-19.705-1.408-4.095-2.815-8.275-7.507-8.957-5.076-0.853-7.08 3.412-9.042 7.037a93.409 93.409 0 0 0-10.834 47.046c0.725 36.681 16.208 65.898 46.918 86.712 3.54 2.346 4.436 4.777 3.327 8.275-2.09 7.123-4.564 14.075-6.825 21.24-1.365 4.607-3.412 5.588-8.317 3.584a140.54 140.54 0 0 1-44.358-30.113c-21.881-21.156-41.63-44.572-66.325-62.827a284.492 284.492 0 0 0-17.53-12.07c-25.165-24.483 3.284-44.573 9.853-46.918 6.91-2.517 2.388-11.09-19.877-10.962-22.221 0.085-42.61 7.55-68.542 17.487-3.839 1.493-7.805 2.602-11.943 3.455a246.446 246.446 0 0 0-73.533-2.559c-48.111 5.417-86.584 28.15-114.82 67.05-33.951 46.704-41.927 99.807-32.16 155.255 10.237 58.348 40.008 106.716 85.774 144.506 47.43 39.155 102.025 58.349 164.34 54.638 37.833-2.133 79.973-7.25 127.488-47.515 11.943 5.971 24.568 8.317 45.425 10.151 16.08 1.493 31.563-0.81 43.506-3.284 18.767-3.966 17.487-21.326 10.705-24.568-55.021-25.676-42.95-15.227-53.912-23.63 27.937-33.183 70.12-67.56 86.584-179.011 1.28-8.872 0.17-14.417 0-21.625-0.128-4.35 0.853-6.057 5.844-6.569a105.352 105.352 0 0 0 39.453-12.113c35.658-19.492 50.031-51.524 53.4-89.911 0.513-5.844-0.084-11.943-6.269-15.014zM500.356 669.473c-53.316-41.97-79.163-55.79-89.869-55.15-9.98 0.555-8.19 11.943-5.971 19.45 2.26 7.336 5.289 12.412 9.469 18.895 2.9 4.265 4.905 10.663-2.9 15.397-17.147 10.663-47.004-3.582-48.411-4.265-34.762-20.473-63.808-47.515-84.281-84.494a258.602 258.602 0 0 1-33.141-114.565c-0.512-9.895 2.388-13.393 12.198-15.142 12.839-2.345 26.146-2.857 39.027-0.98 54.425 7.933 100.745 32.33 139.559 70.888 22.18 22.008 38.942 48.24 56.216 73.874 18.383 27.297 38.174 53.23 63.339 74.471 8.872 7.464 15.952 13.18 22.734 17.36-20.474 2.26-54.596 2.772-77.97-15.74z m25.549-164.596a7.848 7.848 0 1 1 15.696 0 7.848 7.848 0 0 1-7.89 7.848 7.763 7.763 0 0 1-7.806-7.848z m79.333 40.818c-5.033 2.048-10.151 3.84-15.013 4.052a32.16 32.16 0 0 1-20.388-6.483c-6.995-5.843-11.943-9.127-14.076-19.407a45.212 45.212 0 0 1 0.427-15.013c1.791-8.36-0.256-13.692-6.1-18.597-4.82-3.966-10.876-5.033-17.572-5.033a14.203 14.203 0 0 1-6.526-2.004c-2.772-1.408-5.118-4.905-2.9-9.17a30.027 30.027 0 0 1 4.905-5.332c9.085-5.204 19.577-3.498 29.26 0.426 8.999 3.668 15.78 10.407 25.59 19.919 9.981 11.516 11.773 14.758 17.446 23.374 4.478 6.824 8.573 13.776 11.388 21.752 1.706 4.905-0.512 8.957-6.398 11.516z" fill="#4D6BFE" p-id="21450"></path></svg>