<svg t="1750928874053" class="icon" viewBox="0 0 1024 1024" version="1.1" xmlns="http://www.w3.org/2000/svg" p-id="14331" data-spm-anchor-id="a313x.search_index.0.i16.5e9e3a814yHyp4" width="64" height="64"><path d="M368.64 74.24c-5.76 5.12-10.24 16.64-10.24 24.32 0 24.96 24.96 114.56 33.92 120.32 14.08 8.96 33.92 5.76 46.08-7.68 11.52-12.16 10.88-14.72-2.56-68.48-18.56-74.24-40.32-96-67.2-68.48zM538.88 90.88c-12.8 16.64-26.88 49.92-36.48 85.76-10.24 39.04-6.4 54.4 16.64 66.56 17.28 9.6 44.16-7.04 44.16-27.52 0-7.68 7.68-31.36 16-52.48 8.96-21.12 16-43.52 16-49.28 0-24.96-40.96-41.6-56.32-23.04zM201.6 157.44c-17.92 18.56-9.6 42.24 23.04 63.36 16 10.24 38.4 26.88 49.92 36.48 11.52 10.24 24.32 17.92 28.8 17.92 12.16 0 27.52-14.72 32-30.08 5.76-17.92-25.6-54.4-69.12-79.36-37.12-21.12-49.92-23.04-64.64-8.32zM593.28 275.2c-27.52 8.32-58.88 34.56-78.72 65.92l-17.92 28.8-28.8-12.8C357.12 308.48 300.8 295.04 255.36 307.2c-39.68 10.88-66.56 33.28-80 67.2-8.96 24.96-9.6 33.28-3.2 54.4 11.52 37.76 40.32 66.56 87.68 87.04 35.84 16 40.96 20.48 37.12 31.36-2.56 7.04-5.76 28.16-7.04 46.72-2.56 26.24 0 38.4 10.24 56.32 7.68 12.16 13.44 31.36 13.44 41.6 0 39.04 34.56 80 86.4 101.76 14.08 5.76 75.52 23.68 136.96 39.04l110.72 28.16 14.72 32c14.72 33.92 48 67.2 66.56 67.2 11.52 0 37.12-16 50.56-32 26.24-30.72 56.96-117.76 74.24-210.56 14.08-74.24 13.44-110.08-3.2-131.2-15.36-19.84-28.8-21.12-47.36-3.84-18.56 17.28-41.6 10.88-41.6-12.8s-14.72-64-34.56-94.08l-17.28-25.6 10.88-44.8c10.88-42.88 10.24-47.36 0-74.88-6.4-16.64-19.2-35.2-30.72-42.88-21.76-16-67.84-21.76-96.64-12.16z m62.72 76.8c1.92 6.4 0.64 23.04-2.56 36.48-13.44 48.64-8.96 85.76 15.36 123.52 18.56 29.44 22.4 40.96 22.4 71.68 0 31.36 2.56 37.76 16 49.28 8.96 7.04 25.6 14.72 35.84 16.64 10.88 2.56 21.12 8.32 22.4 12.8 5.76 14.08-39.04 103.04-58.24 115.84-24.32 15.36-56.96 12.8-162.56-13.44-147.84-36.48-173.44-53.12-161.28-104.32 5.12-23.68 3.84-26.88-7.04-30.72-22.4-7.04-26.88-29.44-12.8-58.24 19.84-37.76 29.44-43.52 77.44-43.52 68.48 0 108.8 32 113.92 90.88 4.48 43.52-6.4 52.48-48.64 39.04-36.48-11.52-56.32-5.76-62.08 17.92-5.76 23.68 17.28 43.52 61.44 53.12 75.52 16 117.76-20.48 117.12-101.76-0.64-66.56-32.64-120.32-87.68-148.48-35.2-17.92-119.04-23.68-158.72-10.24-26.24 9.6-30.72 8.96-68.48-4.48-42.24-15.36-71.04-37.12-71.04-53.76 0-5.12 6.4-16 14.08-24.32 25.6-27.52 78.72-17.28 196.48 36.48 77.44 35.84 74.24 36.48 112.64-23.04 29.44-45.44 46.72-60.16 71.04-60.16 15.36 0 21.76 3.2 24.96 12.8z" p-id="14332" data-spm-anchor-id="a313x.search_index.0.i17.5e9e3a814yHyp4" class="selected" fill="#bfbfbf"></path></svg>