<?xml version="1.0" standalone="no"?><!DOCTYPE svg PUBLIC "-//W3C//DTD SVG 1.1//EN" "http://www.w3.org/Graphics/SVG/1.1/DTD/svg11.dtd"><svg t="1750953067554" class="icon" viewBox="0 0 1024 1024" version="1.1" xmlns="http://www.w3.org/2000/svg" p-id="5193" xmlns:xlink="http://www.w3.org/1999/xlink" width="64" height="64"><path d="M840.448 986.3168l-67.584-12.6464-272.6912-45.312-256.1024 44.7232-68.608 21.6832L612.736 1024l227.712-37.6832z" fill="#2B2B2B" opacity=".1" p-id="5194"></path><path d="M711.808 892.6976l-10.5216-284.4928-16.1792-96.512-147.9168-60.16-190.6432 104.8064-69.76 372.0192 64.768 56.3968 372.8384 0.9728 58.5728-12.6464-61.1584-80.384z" fill="#446125" p-id="5195"></path><path d="M655.1296 849.408l-83.3024 33.92 12.3392 61.2608h42.88l28.0832-24.3456V849.408z" fill="#3F8F6F" p-id="5196"></path><path d="M655.1296 920.2432l53.2992 52.8384-51.5072 11.6736-74.0352-11.6736 1.28-28.4928 70.9632-24.3456z" fill="#54B08B" p-id="5197"></path><path d="M708.4288 996.6848h-125.5424v-23.6032h105.8816l41.6-15.6672-21.9392 39.2704z" fill="#3F8F6F" p-id="5198"></path><path d="M655.1296 849.408l-76.3904 65.2032-6.912-31.2832 41.6512-33.92h41.6512z" fill="#35785D" p-id="5199"></path><path d="M359.3728 273.2032l-86.3744 59.4688-5.6064 70.6816 59.0848 105.0112 406.4768-36.2752-12.5184-157.7984-43.0848-26.112-317.9776-14.976z" fill="#B8C745" p-id="5200"></path><path d="M677.3504 288.1792l-317.9776-14.976-86.3744 59.4688-5.6064 70.6816 49.6128-34.1504 368.1024-30.592 35.328-24.32-43.0848-26.112z" fill="#E8F078" p-id="5201"></path><path d="M462.1312 887.3728l-13.0816 52.096-42.9056 5.12-38.4768-16.2304 6.5536-60.3392 87.9104 19.3536z" fill="#3F8F6F" p-id="5202"></path><path d="M367.6672 928.3584l-26.112 56.3968h109.2864l-1.792-45.2864-81.3824-11.1104z" fill="#54B08B" p-id="5203"></path><path d="M450.8416 1004.3648h-109.2864v-19.6096l54.6304-16.7936 54.656 16.7936v19.6096z" fill="#3F8F6F" p-id="5204"></path><path d="M374.2208 868.0192l81.0752 46.592 6.8352-27.2384-26.9568-23.9104-60.9536 4.5568z" fill="#35785D" p-id="5205"></path><path d="M524.8768 651.776l-62.7456 197.632 65.6896 52.4288 127.3088-52.4288-0.3584-192.4608-49.792-22.144-80.1024 16.9728z" fill="#5A753D" p-id="5206"></path><path d="M392.1408 698.4192l-17.92 169.6 153.6 33.8176-2.944-250.0608-132.736 46.6432z" fill="#709D53" p-id="5207"></path><path d="M654.7712 397.7216l30.336-59.1104 108.4672 163.2-142.208 55.3728-10.8288-31.3856 14.2336-128.0768zM384.6144 344.6784l98.816 51.7632 89.6768 69.1456-48.2304 186.1888h-129.5616v-43.5712l-53.76-138.752 43.0592-124.7744z" fill="#5A753D" p-id="5208"></path><path d="M537.1904 451.5328l-12.416 156.672 0.1024 43.5712h129.8944l0.3584-60.8512 29.9776-252.3136-63.36-5.9392-2.2528 26.3424-26.9312-1.2544-14.1568 60.8768-41.216 32.896z" fill="#709D53" p-id="5209"></path><path d="M346.5472 556.3392l-42.368-45.0304-60.1088 461.7728 42.9824-28.1856 22.0672-39.8592 37.4272-348.6976z" fill="#5A753D" p-id="5210"></path><path d="M341.5552 984.7552l-97.4848-11.6736 65.0496-68.0448 32.4352 79.7184z" fill="#709D53" p-id="5211"></path><path d="M395.3152 651.776h259.456v48.7424l-262.6304-2.0992 3.1744-46.6432z" fill="#99C26D" p-id="5212"></path><path d="M304.1792 511.3088l12.8256-142.1056 77.6192-30.3616 22.1184-3.2512-24.8064 88.4992 8.8832 105.2672-96.64-18.048z" fill="#738D57" p-id="5213"></path><path d="M536.0384 427.9296l35.7888-37.1456 20.736-33.024 37.7344 5.4784-3.3024 55.7312-89.8048 32.5632-21.2992-19.0464 20.1472-4.5568z" fill="#35785D" p-id="5214"></path><path d="M536.0384 427.9296l1.152 23.6032-145.2544-27.4432-7.3216-79.4112 32.128-9.088 36.4032 39.5008 82.8928 52.8384z" fill="#54B08B" p-id="5215"></path><path d="M407.0912 338.6112l-8.3712-140.3904-17.3824-36.1216-32.896 15.1808-6.8864 182.3232 65.536-20.992zM675.2256 160.256l9.8816 178.3552-52.3008-4.5312-8.3712-191.2832 50.7904 17.4592z" fill="#2B2B2B" p-id="5216"></path><path d="M630.2976 363.2384l-168.1664-7.9104-47.616-34.0224-22.5792-258.2272 262.8864-11.3152-24.5248 311.4752z" fill="#DFBDA5" p-id="5217"></path><path d="M604.9792 362.0608l-172.0576-22.6304-20.6848-251.1872-30.8992-49.2032 27.0336 314.4448 6.144 39.1168 121.5232 35.328 63.232-31.104 5.7088-34.7648z" fill="#C3987B" p-id="5218"></path><path d="M509.952 257.152l24.6528 16.896 24.6784-16.896H509.952z" fill="#8B6651" p-id="5219"></path><path d="M432.8192 192.4352l51.584 15.8464 25.5488 48.8704 14.5408-78.9504-73.472-6.656-18.2016 20.8896zM559.2832 257.152l36.6592-48.8704 40.448-15.8464-18.176-11.4432-33.3824-3.712-40.1152 0.9216v48.9472l14.5664 30.0032z" fill="#C3987B" p-id="5220"></path><path d="M559.2832 257.152l-24.6784 6.2208-24.6528-6.2208 14.5408-78.9504h20.224l14.5664 78.9504z" fill="#E8CAB6" p-id="5221"></path><path d="M544.7168 178.2016l73.4976 2.7904 18.176 11.4432-18.176-30.336-73.4976 16.1024zM524.4928 178.2016l-73.472 2.7904-18.2016 11.4432 18.2016-30.336 73.472 16.1024z" fill="#474747" p-id="5222"></path><path d="M543.0016 407.9616l61.9776-45.9008-196.608-8.576 134.6304 54.4768z" fill="#8B6651" p-id="5223"></path><path d="M348.4416 177.28l5.2224-130.9184 54.7072-13.6448L451.3024 0h146.6112l32.384 39.04 55.9616 24.0384-11.0336 97.1776-29.3376 5.0688 6.7584-91.2128-113.4592 37.1456-122.7264-55.2448-20.736 158.336-47.2832-37.0688z" fill="#4F5253" p-id="5224"></path><path d="M539.1872 111.2576L451.3024 0l-97.6384 46.3616 58.5728 41.8816 126.9504 23.0144z" fill="#6F7173" p-id="5225"></path><path d="M427.7504 276.4032l208.4352 12.1088-5.888 74.7264-197.4784-8.6784-5.0688-78.1568z" fill="#C3987B" p-id="5226"></path><path d="M597.9136 0l-58.7264 111.2576 112.4864-23.8848 34.5856-24.2944L597.9136 0z" fill="#474747" p-id="5227"></path><path d="M464.3328 299.1616l19.0976-2.2016-21.2992 20.6848 2.2016-18.4832z" fill="#8B6651" p-id="5228"></path><path d="M470.8096 305.5872l9.9072 9.9072h59.0848" fill="#8B6651" p-id="5229"></path><path d="M427.7504 276.4032l-26.9312-10.8032 7.552 87.8848 24.448 1.0752-5.0688-78.1568z" fill="#8B6651" p-id="5230"></path><path d="M584.832 208.2816m-12.4928 0a12.4928 12.4928 0 1 0 24.9856 0 12.4928 12.4928 0 1 0-24.9856 0Z" fill="#2B2B2B" p-id="5231"></path><path d="M472.7808 208.2816m-12.4928 0a12.4928 12.4928 0 1 0 24.9856 0 12.4928 12.4928 0 1 0-24.9856 0Z" fill="#2B2B2B" p-id="5232"></path><path d="M596.8896 408.6016h28.1856v578.2272h-28.1856z" fill="#C4C4C4" p-id="5233"></path><path d="M610.9696 406.8608m-26.2144 0a26.2144 26.2144 0 1 0 52.4288 0 26.2144 26.2144 0 1 0-52.4288 0Z" fill="#DDDDDC" p-id="5234"></path><path d="M564.7616 996.8896l45.184 20.8384 27.2384-44.6464-12.1344-389.76-60.288 0.3328v413.2352z" fill="#C4C4C4" p-id="5235"></path><path d="M655.1296 583.6544h-44.16l-1.024 434.0736 45.184-20.8384V583.6544z" fill="#9DA1A2" p-id="5236"></path><path d="M701.2864 608.2048l26.9312-31.0528-26.9312-26.9312-25.5232 25.5232h-45.4656l-19.328-19.3536-19.328 19.3536h-41.344l-25.5232-25.5232-31.0272 26.9312 31.0272 31.0528 15.0016-17.28h51.8656l19.328 19.328 19.328-19.328h55.9872l15.0016 17.28z" fill="#DDDDDC" p-id="5237"></path><path d="M304.1792 511.3088l91.136 96.896 151.3216-25.216 5.1456-45.6448-19.8144-19.84-227.7888-6.1952z" fill="#54B08B" p-id="5238"></path><path d="M546.6368 582.9888l-14.6688-65.4848 64.2816-19.3536-49.6128 84.8384z" fill="#DFBDA5" p-id="5239"></path><path d="M793.5744 501.8112l-129.6384 15.0272-23.3984 26.5472 16.384 32.3584 64.3072 9.1904 72.3456-83.1232z" fill="#54B08B" p-id="5240"></path><path d="M596.2496 498.1504l-11.4944 42.4192 5.4016 35.1744h66.7648l7.0144-58.9056-67.6864-18.688z" fill="#DFBDA5" p-id="5241"></path><path d="M596.2496 498.1504l-6.0928 77.5936-43.52 7.2448 7.8592-49.1776 41.7536-35.6608z" fill="#C3987B" p-id="5242"></path></svg>